<?xml version="1.0" encoding="UTF-8"?>
<!DOCTYPE svg PUBLIC "-//W3C//DTD SVG 1.1//EN" "http://www.w3.org/Graphics/SVG/1.1/DTD/svg11.dtd">
<!-- Creator: CorelDRAW -->
<svg xmlns="http://www.w3.org/2000/svg" xml:space="preserve" width="157px" height="42px" version="1.1" style="shape-rendering:geometricPrecision; text-rendering:geometricPrecision; image-rendering:optimizeQuality; fill-rule:evenodd; clip-rule:evenodd"
viewBox="0 0 156.94 41.97"
 xmlns:xlink="http://www.w3.org/1999/xlink"
 xmlns:xodm="http://www.corel.com/coreldraw/odm/2003">
 <defs>
  <style type="text/css">
   <![CDATA[
    .fil2 {fill:black}
    .fil0 {fill:#ED1F24}
    .fil1 {fill:#FFAE01}
    .fil3 {fill:#FEFEFE;fill-rule:nonzero}
   ]]>
  </style>
 </defs>
 <g id="Camada_x0020_1">
  <metadata id="CorelCorpID_0Corel-Layer"/>
  <g id="_2404106748528">
   <path class="fil0" d="M18.51 41.17l9.74 -5.62c1.85,-1.08 2.92,-2.92 2.92,-5.07l0 -18.21c0,-2.13 -1.05,-3.96 -2.89,-5.04l-12.34 -7.23 -1.29 5.66c-0.38,1.67 -1.35,2.97 -2.85,3.8l-8.81 4.93c-1.89,1.06 -2.99,2.92 -2.99,5.1l0 10.98c0,2.14 1.06,3.99 2.92,5.06l9.74 5.63c1.86,1.08 3.99,1.08 5.85,0.01z"/>
   <path class="fil1" d="M18.51 41.17l6.23 -3.6c1.86,-1.07 2.92,-2.92 2.92,-5.06l0 -7.64c0,-2.03 -0.94,-3.78 -2.64,-4.89l-0.61 -0.4c-1.7,-1.11 -2.64,-2.86 -2.64,-4.89l0 -3.78 -9.45 5.98c-1.74,1.1 -2.71,2.87 -2.71,4.94l0 0.06c0,2.19 -1.11,4.07 -3.03,5.12l-0.05 0.02c-1.91,1.06 -3.02,2.94 -3.02,5.13l0 0.34c0,2.14 1.06,3.98 2.91,5.06l6.24 3.6c1.86,1.08 3.99,1.08 5.85,0.01z"/>
   <path class="fil2" d="M18.51 41.17l0.78 -0.45c1.86,-1.07 2.92,-2.92 2.92,-5.07l-0.01 -7.31c0,-2.11 -1.02,-3.92 -2.83,-5.01l-3.81 -2.29 0 4.01c0,2.08 -1,3.87 -2.77,4.97l-1.06 0.65c-1.77,1.1 -2.77,2.89 -2.77,4.97l0 0.01c0,2.15 1.06,3.99 2.91,5.06l0.79 0.45c1.86,1.08 3.99,1.08 5.85,0.01z"/>
  </g>
  <polygon class="fil3" points="53.82,33.47 50.41,33.47 50.41,23.31 45.82,23.31 45.82,33.47 42.45,33.47 42.45,10.85 45.82,10.85 45.82,20.17 50.41,20.17 50.41,10.85 53.82,10.85 "/>
  <path id="_1" class="fil3" d="M65.79 31.68c-0.01,1.19 -0.6,1.79 -1.79,1.79l-5.87 0c-1.19,0 -1.78,-0.6 -1.79,-1.79l0 -11.02c0.01,-1.19 0.6,-1.78 1.79,-1.79l5.87 0c1.19,0.01 1.78,0.6 1.79,1.79l0 5.38 -0.91 0.92 -5.37 0 0 4.08 3.11 0 0 -2.43 3.17 0 0 3.07zm-3.17 -6.88l0 -3.5 -3.11 0 0 3.5 3.11 0z"/>
  <path id="_2" class="fil3" d="M77.93 30.54c-0.01,1.18 -0.43,2.01 -1.27,2.49 -0.62,0.33 -1.55,0.5 -2.81,0.5 -0.28,0 -0.69,-0.01 -1.22,-0.03 -0.52,-0.02 -0.9,-0.03 -1.13,-0.03l0 5.33 -3.32 0 0 -19.93 3.32 0 0 0.53c0.77,-0.11 1.54,-0.23 2.31,-0.36 0.98,-0.15 1.75,-0.23 2.32,-0.23 1.19,0.01 1.79,0.6 1.8,1.79l0 9.94zm-3.32 -0.92l0 -7.99 -3.11 0.06 0 9.03 2.05 0c0.71,0 1.06,-0.37 1.06,-1.1z"/>
  <path id="_3" class="fil3" d="M90.01 33.47l-3.31 0 0 -11.84 -3.11 0.06 0 11.78 -3.32 0 0 -22.62 3.32 0 0 8.56c0.77,-0.11 1.54,-0.23 2.31,-0.36 0.98,-0.16 1.75,-0.24 2.32,-0.24 1.2,0.01 1.79,0.6 1.79,1.79l0 12.87z"/>
  <path id="_4" class="fil3" d="M101.8 33.47l-3.16 0 0 -0.5c-0.8,0.11 -1.59,0.23 -2.38,0.34 -1.05,0.15 -1.83,0.22 -2.37,0.22 -1.04,0 -1.56,-0.6 -1.56,-1.79l0 -5.27c0,-1.19 0.54,-1.79 1.62,-1.79l4.71 0 0 -3.35 -3.16 0 0 2.07 -2.99 0 0 -2.74c0,-1.19 0.54,-1.78 1.61,-1.79l5.89 0c1.19,0.01 1.79,0.6 1.79,1.79l0 12.81zm-3.14 -2.63l0 -3.91 -3.16 0 0 4.02 3.16 -0.11z"/>
  <path id="_5" class="fil3" d="M113.62 31.68c-0.01,1.19 -0.6,1.79 -1.79,1.79l-5.87 0c-1.19,0 -1.78,-0.6 -1.79,-1.79l0 -11.02c0.01,-1.19 0.6,-1.78 1.79,-1.79l5.87 0c1.19,0.01 1.78,0.6 1.79,1.79l0 5.38 -0.91 0.92 -5.37 0 0 4.08 3.11 0 0 -2.43 3.17 0 0 3.07zm-3.17 -6.88l0 -3.5 -3.11 0 0 3.5 3.11 0z"/>
  <path id="_6" class="fil3" d="M125.19 31.68c0,1.19 -0.6,1.79 -1.79,1.79l-5.65 0c-1.19,0 -1.79,-0.6 -1.8,-1.79l0 -3.15 3.17 0 0 2.45 2.9 0 0 -2.32 -5.07 -2.98c-0.67,-0.39 -1,-0.92 -1,-1.58l0 -3.44c0.01,-1.19 0.62,-1.78 1.83,-1.79l5.59 0c1.19,0.01 1.79,0.6 1.79,1.79l0 2.95 -3.14 0 0 -2.25 -2.9 0 0 2.12 5.06 2.95c0.68,0.38 1.01,0.92 1.01,1.61l0 3.64z"/>
  <path id="_7" class="fil3" d="M133.82 33.47l-3.72 0c-1.19,0 -1.79,-0.6 -1.79,-1.79l0 -9.99 -1.57 0 0 -2.82 1.57 0 0 -3.97 3.29 0 0 3.97 2.13 0 0 2.82 -2.13 0 0 8.97 2.22 0 0 2.81z"/>
  <path id="_8" class="fil3" d="M145.36 33.47l-3.29 0 0 -0.5c-0.76,0.12 -1.53,0.25 -2.31,0.37 -0.93,0.15 -1.71,0.22 -2.32,0.22 -1.19,0 -1.79,-0.6 -1.79,-1.79l0 -12.9 3.28 0 0 11.85 3.14 -0.06 0 -11.79 3.29 0 0 14.6z"/>
  <path id="_9" class="fil3" d="M156.94 31.68c0,1.19 -0.6,1.79 -1.79,1.79l-5.65 0c-1.19,0 -1.79,-0.6 -1.8,-1.79l0 -3.15 3.17 0 0 2.45 2.91 0 0 -2.32 -5.08 -2.98c-0.66,-0.39 -1,-0.92 -1,-1.58l0 -3.44c0.01,-1.19 0.62,-1.78 1.83,-1.79l5.59 0c1.19,0.01 1.79,0.6 1.79,1.79l0 2.95 -3.13 0 0 -2.25 -2.91 0 0 2.12 5.06 2.95c0.68,0.38 1.01,0.92 1.01,1.61l0 3.64z"/>
 </g>
</svg>
