<?xml version="1.0" encoding="UTF-8"?>
<!DOCTYPE svg PUBLIC "-//W3C//DTD SVG 1.1//EN" "http://www.w3.org/Graphics/SVG/1.1/DTD/svg11.dtd">
<!-- Creator: CorelDRAW -->
<svg xmlns="http://www.w3.org/2000/svg" xml:space="preserve" width="23px" height="16px" version="1.1" style="shape-rendering:geometricPrecision; text-rendering:geometricPrecision; image-rendering:optimizeQuality; fill-rule:evenodd; clip-rule:evenodd"
viewBox="0 0 3.91 2.67"
 xmlns:xlink="http://www.w3.org/1999/xlink"
 xmlns:xodm="http://www.corel.com/coreldraw/odm/2003">
 <defs>
  <style type="text/css">
   <![CDATA[
    .fil2 {fill:#FEFEFE}
    .fil3 {fill:#3F51B5}
    .fil0 {fill:#4CAF50}
    .fil1 {fill:#FEEA3C}
   ]]>
  </style>
 </defs>
 <g id="Camada_x0020_1">
  <metadata id="CorelCorpID_0Corel-Layer"/>
  <g id="_1817424736416">
   <rect class="fil0" width="3.91" height="2.67"/>
   <polygon class="fil1" points="1.96,0.27 2.75,0.8 3.55,1.33 2.75,1.87 1.96,2.4 1.16,1.87 0.36,1.33 1.16,0.8 "/>
   <circle class="fil2" cx="1.96" cy="1.33" r="0.61"/>
   <path class="fil3" d="M1.96 0.72c0.32,0 0.58,0.24 0.61,0.56 -0.37,-0.15 -0.78,-0.21 -1.19,-0.17 0.09,-0.23 0.31,-0.39 0.58,-0.39zm0.6 0.74c-0.06,0.28 -0.31,0.49 -0.6,0.49 -0.34,0 -0.62,-0.28 -0.62,-0.62 0,-0.01 0,-0.02 0,-0.04 0.43,-0.05 0.84,0.02 1.22,0.17z"/>
  </g>
 </g>
</svg>
