<?xml version="1.0" encoding="UTF-8"?>
<!DOCTYPE svg PUBLIC "-//W3C//DTD SVG 1.1//EN" "http://www.w3.org/Graphics/SVG/1.1/DTD/svg11.dtd">
<!-- Creator: CorelDRAW -->
<svg xmlns="http://www.w3.org/2000/svg" xml:space="preserve" width="23px" height="16px" version="1.1" style="shape-rendering:geometricPrecision; text-rendering:geometricPrecision; image-rendering:optimizeQuality; fill-rule:evenodd; clip-rule:evenodd"
viewBox="0 0 6.68 4.55"
 xmlns:xlink="http://www.w3.org/1999/xlink"
 xmlns:xodm="http://www.corel.com/coreldraw/odm/2003">
 <defs>
  <style type="text/css">
   <![CDATA[
    .fil2 {fill:#FEFEFE}
    .fil0 {fill:#3F51B5}
    .fil3 {fill:#EBEFF1}
    .fil1 {fill:#F44336}
   ]]>
  </style>
 </defs>
 <g id="Camada_x0020_1">
  <metadata id="CorelCorpID_0Corel-Layer"/>
  <g id="_1817424599472">
   <rect class="fil0" width="3.19" height="2.53"/>
   <rect class="fil1" y="4.05" width="6.68" height="0.51"/>
   <g>
    <polygon class="fil2" points="0.34,0.42 0.39,0.6 0.58,0.6 0.43,0.71 0.49,0.88 0.34,0.77 0.18,0.88 0.24,0.71 0.09,0.6 0.28,0.6 "/>
    <polygon class="fil2" points="0.94,0.42 1,0.6 1.19,0.6 1.04,0.71 1.09,0.88 0.94,0.77 0.79,0.88 0.85,0.71 0.7,0.6 0.88,0.6 "/>
    <polygon class="fil2" points="1.55,0.42 1.61,0.6 1.8,0.6 1.65,0.71 1.7,0.88 1.55,0.77 1.4,0.88 1.46,0.71 1.31,0.6 1.49,0.6 "/>
    <polygon class="fil2" points="2.16,0.42 2.22,0.6 2.4,0.6 2.25,0.71 2.31,0.88 2.16,0.77 2.01,0.88 2.07,0.71 1.92,0.6 2.1,0.6 "/>
    <polygon class="fil2" points="2.72,0.42 2.78,0.6 2.97,0.6 2.82,0.71 2.88,0.88 2.72,0.77 2.57,0.88 2.63,0.71 2.48,0.6 2.67,0.6 "/>
    <polygon class="fil2" points="0.49,1.04 0.55,1.22 0.73,1.22 0.58,1.33 0.64,1.51 0.49,1.4 0.34,1.51 0.4,1.33 0.24,1.22 0.43,1.22 "/>
    <polygon class="fil2" points="1.1,1.04 1.15,1.22 1.34,1.22 1.19,1.33 1.25,1.51 1.1,1.4 0.94,1.51 1,1.33 0.85,1.22 1.04,1.22 "/>
    <polygon class="fil2" points="1.71,1.04 1.76,1.22 1.95,1.22 1.8,1.33 1.86,1.51 1.71,1.4 1.55,1.51 1.61,1.33 1.46,1.22 1.65,1.22 "/>
    <polygon class="fil2" points="2.31,1.04 2.37,1.22 2.56,1.22 2.41,1.33 2.46,1.51 2.31,1.4 2.16,1.51 2.22,1.33 2.07,1.22 2.26,1.22 "/>
    <polygon class="fil2" points="2.88,1.04 2.94,1.22 3.12,1.22 2.97,1.33 3.03,1.51 2.88,1.4 2.73,1.51 2.78,1.33 2.63,1.22 2.82,1.22 "/>
    <polygon class="fil2" points="0.34,1.65 0.39,1.82 0.58,1.82 0.43,1.93 0.49,2.11 0.34,2 0.18,2.11 0.24,1.93 0.09,1.82 0.28,1.82 "/>
    <polygon class="fil2" points="0.94,1.65 1,1.82 1.19,1.82 1.04,1.93 1.09,2.11 0.94,2 0.79,2.11 0.85,1.93 0.7,1.82 0.88,1.82 "/>
    <polygon class="fil2" points="1.55,1.65 1.61,1.82 1.8,1.82 1.65,1.93 1.7,2.11 1.55,2 1.4,2.11 1.46,1.93 1.31,1.82 1.49,1.82 "/>
    <polygon class="fil2" points="2.16,1.65 2.22,1.82 2.4,1.82 2.25,1.93 2.31,2.11 2.16,2 2.01,2.11 2.07,1.93 1.92,1.82 2.1,1.82 "/>
    <polygon class="fil2" points="2.72,1.65 2.78,1.82 2.97,1.82 2.82,1.93 2.88,2.11 2.72,2 2.57,2.11 2.63,1.93 2.48,1.82 2.67,1.82 "/>
   </g>
   <rect class="fil3" y="3.54" width="6.68" height="0.51"/>
   <rect class="fil1" y="3.04" width="6.68" height="0.51"/>
   <rect class="fil3" y="2.53" width="6.68" height="0.51"/>
   <rect class="fil1" x="3.19" y="2.02" width="3.49" height="0.51"/>
   <rect class="fil3" x="3.19" y="1.52" width="3.49" height="0.51"/>
   <rect class="fil1" x="3.19" y="1.01" width="3.49" height="0.51"/>
   <rect class="fil3" x="3.19" y="0.51" width="3.49" height="0.51"/>
   <rect class="fil1" x="3.19" width="3.49" height="0.51"/>
  </g>
 </g>
</svg>
