<?xml version="1.0" encoding="UTF-8"?>
<!DOCTYPE svg PUBLIC "-//W3C//DTD SVG 1.1//EN" "http://www.w3.org/Graphics/SVG/1.1/DTD/svg11.dtd">
<!-- Creator: CorelDRAW -->
<svg xmlns="http://www.w3.org/2000/svg" xml:space="preserve" width="100px" height="100px" version="1.1" style="shape-rendering:geometricPrecision; text-rendering:geometricPrecision; image-rendering:optimizeQuality; fill-rule:evenodd; clip-rule:evenodd"
viewBox="0 0 100 100"
 xmlns:xlink="http://www.w3.org/1999/xlink"
 xmlns:xodm="http://www.corel.com/coreldraw/odm/2003">
 <defs>
  <style type="text/css">
   <![CDATA[
    .str0 {stroke:#A5AEC1;stroke-width:3.23;stroke-miterlimit:22.9256;stroke-opacity:0.501961}
    .fil0 {fill:none}
    .fil2 {fill:none}
    .fil1 {fill:#7B88A4;fill-opacity:0.101961}
   ]]>
  </style>
 </defs>
 <g id="Camada_x0020_1">
  <metadata id="CorelCorpID_0Corel-Layer"/>
  <rect class="fil0" width="100" height="100"/>
  <g id="_1710549066368">
   <path class="fil1" d="M0.01 34.7c0,5.99 4.21,14.75 6.18,20.64l2.06 7c2.87,9.91 1.27,15.91 2.87,20.93 3.03,9.54 14.79,12.11 23.56,12.11 4.59,0 9.23,-0.74 13.19,-1.53 7.59,-1.5 14.85,-4.47 21.55,-7.87 2.43,-1.23 7.01,-4.17 9.03,-5.69 3.78,-2.83 8.46,-6.9 11.38,-10.59 1.19,-1.51 2.08,-2.71 3.15,-4.31 9.49,-14.14 9.6,-31.43 -1.22,-44.83 -1.67,-2.06 -2.39,-2.54 -4.11,-4.15 -0.45,-0.42 -1.1,-0.9 -1.56,-1.26 -4.63,-3.56 -10.76,-6.26 -16.98,-7.82 -14.96,-3.75 -34.89,-2.93 -49.57,2.35 -10.51,3.79 -19.53,12.64 -19.53,25.02z"/>
   <path class="fil2 str0" d="M91.3 4.62c1.81,0 3.27,1.46 3.27,3.27 0,1.81 -1.46,3.28 -3.27,3.28 -1.81,0 -3.28,-1.47 -3.28,-3.28 0,-1.81 1.47,-3.27 3.28,-3.27z"/>
  </g>
 </g>
</svg>
