<?xml version="1.0" encoding="UTF-8"?>
<!DOCTYPE svg PUBLIC "-//W3C//DTD SVG 1.1//EN" "http://www.w3.org/Graphics/SVG/1.1/DTD/svg11.dtd">
<!-- Creator: CorelDRAW -->
<svg xmlns="http://www.w3.org/2000/svg" xml:space="preserve" width="100px" height="100px" version="1.1" style="shape-rendering:geometricPrecision; text-rendering:geometricPrecision; image-rendering:optimizeQuality; fill-rule:evenodd; clip-rule:evenodd"
viewBox="0 0 100 100"
 xmlns:xlink="http://www.w3.org/1999/xlink"
 xmlns:xodm="http://www.corel.com/coreldraw/odm/2003">
 <defs>
  <style type="text/css">
   <![CDATA[
    .fil0 {fill:none}
    .fil1 {fill:#7B88A4;fill-opacity:0.101961}
    .fil2 {fill:#A5AEC1;fill-opacity:0.501961}
   ]]>
  </style>
 </defs>
 <g id="Camada_x0020_1">
  <metadata id="CorelCorpID_0Corel-Layer"/>
  <rect class="fil0" width="100" height="100"/>
  <g id="_1710825941328">
   <path class="fil1" d="M5.39 50.2c0,15.06 2.26,29.59 9.84,39.74 0.77,1.04 1.43,1.63 2.22,2.63 0.5,0.63 0.72,0.63 1.29,1.13 4.13,3.67 9.36,6.29 16.48,6.29 3.32,0 7.08,-1.27 9.5,-2.18 1.5,-0.57 2.79,-0.99 4.29,-1.56l6.49 -2.38c15.25,-5.32 22.91,-3.4 27.93,-4.94 2.71,-0.82 5.49,-2.86 7,-4.89 0.43,-0.58 0.78,-0.99 1.17,-1.64 7.84,-12.94 2.92,-33.89 -2.75,-46.51 -8.36,-18.6 -23.95,-35.88 -46.17,-35.88 -8.62,0 -15.8,3.54 -21.69,8.14 -6.64,5.21 -11.26,14.38 -13.27,22.42 -1.56,6.27 -2.33,13.01 -2.33,19.63z"/>
   <g>
    <polygon class="fil2" points="16.02,7.82 18.04,9.93 22.17,5.9 20.15,3.79 "/>
    <polygon class="fil2" points="4.33,19.51 6.35,21.62 10.47,17.59 8.46,15.48 "/>
    <polygon class="fil2" points="4.93,5.8 8.97,9.93 11.08,7.92 6.95,3.89 "/>
   </g>
  </g>
 </g>
</svg>
