<?xml version="1.0" encoding="UTF-8"?>
<!DOCTYPE svg PUBLIC "-//W3C//DTD SVG 1.1//EN" "http://www.w3.org/Graphics/SVG/1.1/DTD/svg11.dtd">
<!-- Creator: CorelDRAW -->
<svg xmlns="http://www.w3.org/2000/svg" xml:space="preserve" width="100px" height="100px" version="1.1" style="shape-rendering:geometricPrecision; text-rendering:geometricPrecision; image-rendering:optimizeQuality; fill-rule:evenodd; clip-rule:evenodd"
viewBox="0 0 100 100"
 xmlns:xlink="http://www.w3.org/1999/xlink"
 xmlns:xodm="http://www.corel.com/coreldraw/odm/2003">
 <defs>
  <style type="text/css">
   <![CDATA[
    .fil0 {fill:none}
    .fil1 {fill:#7B88A4;fill-opacity:0.101961}
    .fil2 {fill:#A5AEC1;fill-opacity:0.501961}
   ]]>
  </style>
 </defs>
 <g id="Camada_x0020_1">
  <metadata id="CorelCorpID_0Corel-Layer"/>
  <rect class="fil0" width="100" height="100"/>
  <g id="_1710832117408">
   <path class="fil1" d="M95.17 20.45l-1.81 1.57 -3.94 -3.96c0.65,-1.14 1.36,-0.82 1.72,-2.01 -0.77,-0.51 -1.32,-0.96 -2.1,-1.53 -0.81,-0.58 -1.51,-1.02 -2.33,-1.51 -1.53,-0.92 -3.33,-1.62 -4.85,-2.53l-0.4 -0.08 -0.2 -0.2c-2.14,-0.5 -4.45,-1.71 -8.52,-2.57 -1.6,-0.34 -2.87,-0.6 -4.56,-0.88 -1.6,-0.27 -3.15,-0.41 -4.98,-0.67 -1.64,-0.22 -3.49,-0.26 -4.98,-0.46l-5.38 -0.26c-7.09,-0.01 -13.66,0.4 -20.48,1.9 -3.08,0.68 -5.77,1.55 -8.47,2.63 -4.89,1.95 -8.36,4.07 -12.13,7.42 -1.96,1.74 -2.33,2.14 -4.03,4.23 -0.91,1.1 -1.59,2.02 -2.35,3.29 -1.36,2.26 -2.75,4.82 -3.57,7.52 -1.91,6.25 -2.5,12.5 -0.78,19.58 2.69,11.14 7.76,16.85 14.86,24.04 3.96,4 11.63,8.76 16.59,11.24 4.83,2.42 10.39,4.66 16.24,6.13 3.14,0.79 5.84,1.28 9.29,1.79 1.47,0.22 3.37,0.18 5.02,0.43 3.55,0.53 11.44,-0.64 14.73,-1.77 7.28,-2.5 12,-7.67 11.97,-15.85 -0.01,-1.8 0.03,-3.69 0.25,-5.39 0.66,-5.1 1.29,-8.9 2.9,-13.84l2.84 -8.25c1.18,-3.01 3.62,-9.65 4.05,-12.67 1,-7.01 -1.63,-13.54 -4.6,-17.34z"/>
   <g>
    <path class="fil2" d="M88.67 8.54l2.02 1.91c0.98,-0.29 1.56,-1.26 2.21,-1.91 0.73,-0.73 1.51,-1.34 2.07,-2.17l-2.18 -2.06 -4.12 4.23z"/>
    <path class="fil2" d="M81.26 10.2l0.2 0.2 0.4 0.08c0.48,-0.88 1.26,-1.26 1.82,-2.09l-3.98 -4.08 -2.12 2.01 3.68 3.88z"/>
    <path class="fil2" d="M95.17 20.45c0.2,-0.31 0.09,-0.14 0.2,-0.57 -0.79,-0.53 -1.36,-1.26 -2.07,-1.97 -0.64,-0.64 -1.23,-1.61 -2.16,-1.86 -0.36,1.19 -1.07,0.87 -1.72,2.01l3.94 3.96 1.81 -1.57z"/>
   </g>
  </g>
 </g>
</svg>
