<?xml version="1.0" encoding="UTF-8"?>
<!DOCTYPE svg PUBLIC "-//W3C//DTD SVG 1.1//EN" "http://www.w3.org/Graphics/SVG/1.1/DTD/svg11.dtd">
<!-- Creator: CorelDRAW -->
<svg xmlns="http://www.w3.org/2000/svg" xml:space="preserve" width="100px" height="100px" version="1.1" style="shape-rendering:geometricPrecision; text-rendering:geometricPrecision; image-rendering:optimizeQuality; fill-rule:evenodd; clip-rule:evenodd"
viewBox="0 0 100 100"
 xmlns:xlink="http://www.w3.org/1999/xlink"
 xmlns:xodm="http://www.corel.com/coreldraw/odm/2003">
 <defs>
  <style type="text/css">
   <![CDATA[
    .fil0 {fill:none}
    .fil1 {fill:#7B88A4;fill-opacity:0.101961}
    .fil2 {fill:#A5AEC1;fill-opacity:0.501961}
   ]]>
  </style>
 </defs>
 <g id="Camada_x0020_1">
  <metadata id="CorelCorpID_0Corel-Layer"/>
  <rect class="fil0" width="100" height="100"/>
  <g id="_1710842295888">
   <path class="fil1" d="M16.71 10.7l-0.4 0c-0.43,0.59 -2.31,1.37 -3.04,1.8 -0.55,0.34 -0.9,0.56 -1.48,0.94 -0.59,0.4 -1.04,0.78 -1.56,1.09l-0.05 1.77 -2.14 0.04 -1.41 1.42c-0.45,0.59 -0.78,0.87 -1.29,1.52 -5.17,6.62 -6.6,14.02 -4.12,22.04 0.89,2.89 1.91,5.73 2.99,8.49 3.55,8.98 6.09,18.3 6.05,28.23 -0.02,4.47 2.17,9.22 5.44,11.69 9.13,6.9 22.47,6.05 32.98,3.74 8.78,-1.93 16.77,-5.3 24.41,-9.86 4.85,-2.89 8.81,-5.96 12.82,-9.96 2.69,-2.69 3.04,-2.97 5.39,-6.1 3.06,-4.07 6.1,-9.71 7.5,-15.48 1.93,-7.93 1.44,-14.62 -1.28,-21.99 -1.52,-4.1 -4.87,-9.09 -7.98,-12.17 -0.59,-0.59 -0.95,-0.76 -1.52,-1.31 -3.29,-3.21 -8.24,-5.74 -12.5,-7.45 -5.31,-2.14 -10.58,-3.08 -16.24,-3.73 -0.71,-0.08 -1.9,-0.12 -2.77,-0.25 -1.87,-0.27 -9.36,-0.4 -11.03,-0.17l-5.38 0.26c-6.21,0.08 -17.96,2.63 -23.39,5.44z"/>
   <g>
    <polygon class="fil2" points="16.31,10.7 16.71,10.7 16.71,4.86 13.69,4.86 13.69,10.7 "/>
    <polygon class="fil2" points="8.04,16.34 10.18,16.3 10.23,14.53 10.27,13.32 4.42,13.32 4.42,16.35 "/>
   </g>
  </g>
 </g>
</svg>
