<?xml version="1.0" encoding="UTF-8"?>
<!DOCTYPE svg PUBLIC "-//W3C//DTD SVG 1.1//EN" "http://www.w3.org/Graphics/SVG/1.1/DTD/svg11.dtd">
<!-- Creator: CorelDRAW -->
<svg xmlns="http://www.w3.org/2000/svg" xml:space="preserve" width="100px" height="100px" version="1.1" style="shape-rendering:geometricPrecision; text-rendering:geometricPrecision; image-rendering:optimizeQuality; fill-rule:evenodd; clip-rule:evenodd"
viewBox="0 0 100 99.97"
 xmlns:xlink="http://www.w3.org/1999/xlink"
 xmlns:xodm="http://www.corel.com/coreldraw/odm/2003">
 <defs>
  <style type="text/css">
   <![CDATA[
    .fil0 {fill:none}
    .fil1 {fill:#A5AEC1;fill-opacity:0.101961}
    .fil2 {fill:#A5AEC1;fill-opacity:0.701961}
   ]]>
  </style>
 </defs>
 <g id="Camada_x0020_1">
  <metadata id="CorelCorpID_0Corel-Layer"/>
  <rect class="fil0" x="0.01" width="99.97" height="99.97"/>
  <g id="_1431302538368">
   <path class="fil1" d="M95.53 20.91l-1.42 1.24 -3.98 -4.05c0.49,-0.59 1.04,-0.91 1.37,-1.61l-3.22 -2.42c-1.25,-0.83 -2.24,-1.42 -3.7,-2.15 -6.18,-3.08 -10.71,-4.19 -17.81,-5.36 -3.15,-0.53 -9.82,-0.96 -13.36,-1.15 -2.92,-0.16 -10.64,0.26 -13.85,0.66 -8.12,1.02 -15.57,3.14 -22.16,7.06 -1.44,0.85 -3.69,2.39 -4.95,3.51 -2.55,2.28 -5.11,4.87 -6.87,7.85 -3.05,5.17 -5.61,11.27 -5.58,17.79 0.04,10.54 3.3,18.62 8.84,26.04l2.6 3.24c3.16,3.58 8.44,8.03 12.47,10.71 5.88,3.92 12.46,7.19 19.5,9.52 11.87,3.93 32.29,7.12 41.9,-2.49 3.77,-3.78 4.3,-7.28 4.37,-13.16l0.47 -5.38c0.56,-4.48 1.97,-10.1 3.34,-14.19 0.97,-2.9 2.06,-5.59 3.08,-8.41 3.49,-9.74 5.07,-13.84 1.07,-23.49 -0.63,-1.52 -1.44,-2.45 -2.11,-3.76z"/>
   <g>
    <polygon class="fil2" points="78.35,6.37 82.38,10.49 84.5,8.48 80.47,4.35 "/>
    <path class="fil2" d="M91.5 16.49c-0.33,0.7 -0.88,1.02 -1.37,1.61l3.98 4.05 1.42 -1.24 0.64 -0.76 -4.01 -4.11 -0.66 0.45z"/>
    <polygon class="fil2" points="89.44,8.58 91.46,10.49 95.58,6.46 93.68,4.44 "/>
   </g>
  </g>
 </g>
</svg>
