<?xml version="1.0" encoding="UTF-8"?>
<!DOCTYPE svg PUBLIC "-//W3C//DTD SVG 1.1//EN" "http://www.w3.org/Graphics/SVG/1.1/DTD/svg11.dtd">
<!-- Creator: CorelDRAW -->
<svg xmlns="http://www.w3.org/2000/svg" xml:space="preserve" width="100px" height="100px" version="1.1" style="shape-rendering:geometricPrecision; text-rendering:geometricPrecision; image-rendering:optimizeQuality; fill-rule:evenodd; clip-rule:evenodd"
viewBox="0 0 100 100"
 xmlns:xlink="http://www.w3.org/1999/xlink"
 xmlns:xodm="http://www.corel.com/coreldraw/odm/2003">
 <defs>
  <style type="text/css">
   <![CDATA[
    .fil0 {fill:none}
    .fil1 {fill:#A5AEC1;fill-opacity:0.101961}
    .fil2 {fill:#A5AEC1;fill-opacity:0.701961}
   ]]>
  </style>
 </defs>
 <g id="Camada_x0020_1">
  <metadata id="CorelCorpID_0Corel-Layer"/>
  <rect class="fil0" width="100" height="100"/>
  <g id="_1431449760320">
   <path class="fil1" d="M91.98 20.15l-0.23 -0.2 -2.19 -2.44 0.41 -0.59c-1.36,-2.48 -3.65,-4.12 -6.32,-5.37 -3.38,-1.59 -6.12,-1.01 -10.25,-1.45l-5.33 -0.52c-7.5,-1.09 -17.62,-4.76 -24.59,-7.46 -1.72,-0.66 -5.1,-1.66 -6.95,-1.92 -3.73,-0.51 -7.32,0.05 -10.25,1.02 -3.09,1.04 -5.2,2.28 -7.68,4.21 -8.21,6.37 -11.5,17.7 -13.16,27.76 -1.26,7.55 -1.47,20.11 -0.44,27.57 0.51,3.66 1.07,6.59 1.91,9.79 1.12,4.29 1.89,5.24 3.25,8.64l2.07 3.77c0.73,1.19 1.54,2.4 2.4,3.45 10.32,12.67 26.71,17.03 42.04,10.72 2.68,-1.1 5.39,-2.48 7.69,-4 1.84,-1.22 5.11,-3.59 6.7,-5.2 6.23,-6.3 7.97,-8.13 12.89,-16.34 0.77,-1.28 1.35,-2.41 2.05,-3.8 2.75,-5.5 4.91,-11.07 6.42,-17.16 2.17,-8.75 3.25,-19.63 0.34,-28.24 -0.26,-0.77 -0.59,-1.4 -0.78,-2.24z"/>
   <g>
    <polygon class="fil2" points="89.97,16.92 89.56,17.51 91.75,19.95 91.98,20.15 93.55,21.6 95.65,19.59 91.62,15.46 "/>
    <polygon class="fil2" points="77.82,5.79 81.85,9.92 83.96,7.9 79.93,3.77 "/>
    <polygon class="fil2" points="88.9,8 90.93,9.91 95.05,5.89 93.14,3.86 "/>
   </g>
  </g>
 </g>
</svg>
