<?xml version="1.0" encoding="UTF-8"?>
<!DOCTYPE svg PUBLIC "-//W3C//DTD SVG 1.1//EN" "http://www.w3.org/Graphics/SVG/1.1/DTD/svg11.dtd">
<!-- Creator: CorelDRAW -->
<svg xmlns="http://www.w3.org/2000/svg" xml:space="preserve" width="100px" height="100px" version="1.1" style="shape-rendering:geometricPrecision; text-rendering:geometricPrecision; image-rendering:optimizeQuality; fill-rule:evenodd; clip-rule:evenodd"
viewBox="0 0 100 99.99"
 xmlns:xlink="http://www.w3.org/1999/xlink"
 xmlns:xodm="http://www.corel.com/coreldraw/odm/2003">
 <defs>
  <style type="text/css">
   <![CDATA[
    .str0 {stroke:#A5AEC1;stroke-width:3.23;stroke-miterlimit:22.9256;stroke-opacity:0.501961}
    .fil0 {fill:none}
    .fil2 {fill:none}
    .fil1 {fill:#7B88A4;fill-opacity:0.101961}
   ]]>
  </style>
 </defs>
 <g id="Camada_x0020_1">
  <metadata id="CorelCorpID_0Corel-Layer"/>
  <rect class="fil0" x="0.01" width="99.99" height="99.99"/>
  <g id="_1710745037632">
   <path class="fil1" d="M66.07 12.62c-7.05,-3.56 -19.79,-7.35 -27.34,-7.53 -1.87,-0.04 -3.61,-0.35 -5.63,-0.19 -8.91,0.74 -19.37,2.85 -22.1,12.57 -0.49,1.72 -0.7,3.03 -0.69,5.16 0.03,9.17 -2.09,15.96 -4.81,24.21 -1.62,4.91 -5.21,12.72 -5.47,17.71 -0.36,7.01 2.84,13.67 6.1,17.09 0.5,0.53 0.76,1.04 1.32,1.49 0.7,0.55 0.87,0.74 1.5,1.33 2.63,2.47 7.72,5.03 11.21,6.33 11.12,4.14 26.66,5.26 41.16,3.61 6.69,-0.76 12.92,-2.73 18.06,-5.12 10.09,-4.67 18.22,-14.77 20.11,-26.25 1.22,-7.46 0.16,-13.16 -2.23,-19.92 -1.38,-3.87 -3.86,-7.84 -6.27,-11.06 -0.44,-0.6 -0.78,-1.03 -1.24,-1.59 -2.75,-3.37 -6.98,-7.25 -10.48,-9.87 -5.81,-4.22 -6.99,-4.9 -13.2,-7.97z"/>
   <path class="fil2 str0" d="M85.88 10.53c1.81,0 3.27,1.47 3.27,3.28 0,1.81 -1.46,3.27 -3.27,3.27 -1.81,0 -3.28,-1.46 -3.28,-3.27 0,-1.81 1.47,-3.28 3.28,-3.28z"/>
  </g>
 </g>
</svg>
