<?xml version="1.0" encoding="UTF-8"?>
<!DOCTYPE svg PUBLIC "-//W3C//DTD SVG 1.1//EN" "http://www.w3.org/Graphics/SVG/1.1/DTD/svg11.dtd">
<!-- Creator: CorelDRAW -->
<svg xmlns="http://www.w3.org/2000/svg" xml:space="preserve" width="100px" height="100px" version="1.1" style="shape-rendering:geometricPrecision; text-rendering:geometricPrecision; image-rendering:optimizeQuality; fill-rule:evenodd; clip-rule:evenodd"
viewBox="0 0 100 100"
 xmlns:xlink="http://www.w3.org/1999/xlink"
 xmlns:xodm="http://www.corel.com/coreldraw/odm/2003">
 <defs>
  <style type="text/css">
   <![CDATA[
    .str0 {stroke:#A5AEC1;stroke-width:3.23;stroke-miterlimit:22.9256;stroke-opacity:0.701961}
    .fil0 {fill:none}
    .fil2 {fill:none}
    .fil1 {fill:#A5AEC1;fill-opacity:0.101961}
   ]]>
  </style>
 </defs>
 <g id="Camada_x0020_1">
  <metadata id="CorelCorpID_0Corel-Layer"/>
  <rect class="fil0" width="100" height="100"/>
  <g id="_1431458612032">
   <path class="fil1" d="M12.57 13.1l-0.2 0.41 -0.2 0.2 -0.2 0.4c-0.42,1.78 -4.66,7.21 -6.22,21.41 -0.48,4.43 -0.98,11.67 -0.84,16.09l0.84 10.24c1.7,14.16 8.46,27.88 21.47,34.38 4.78,2.38 11.25,4.35 18.45,3.59 9.77,-1.03 15.96,-3.82 23.64,-9.82 1.3,-1.02 5.08,-4.37 5.75,-5.6 3.23,-2.94 5.95,-6.32 8.87,-11.77 3.81,-5.23 8.27,-17.91 9.6,-23.93 2.48,-11.27 3.13,-28.39 -6.19,-35.37 -6.91,-5.16 -13.96,-1.41 -27.82,-5.84 -5.2,-1.67 -7.42,-2.37 -12.59,-4.35 -7.49,-2.87 -12.38,-4.44 -20.63,-1.7 -0.81,0.27 -1.19,0.5 -1.98,0.84 -3.06,1.3 -4.41,2.69 -6.74,4.54 -1.61,1.28 -4.13,5.28 -5.01,6.28z"/>
   <path class="fil2 str0" d="M8.44 8.01c1.81,0 3.28,1.47 3.28,3.28 0,1.81 -1.47,3.27 -3.28,3.27 -1.81,0 -3.27,-1.46 -3.27,-3.27 0,-1.81 1.46,-3.28 3.27,-3.28z"/>
  </g>
 </g>
</svg>
