<?xml version="1.0" encoding="UTF-8"?>
<!DOCTYPE svg PUBLIC "-//W3C//DTD SVG 1.1//EN" "http://www.w3.org/Graphics/SVG/1.1/DTD/svg11.dtd">
<!-- Creator: CorelDRAW -->
<svg xmlns="http://www.w3.org/2000/svg" xml:space="preserve" width="100px" height="100px" version="1.1" style="shape-rendering:geometricPrecision; text-rendering:geometricPrecision; image-rendering:optimizeQuality; fill-rule:evenodd; clip-rule:evenodd"
viewBox="0 0 100 100"
 xmlns:xlink="http://www.w3.org/1999/xlink"
 xmlns:xodm="http://www.corel.com/coreldraw/odm/2003">
 <defs>
  <style type="text/css">
   <![CDATA[
    .fil0 {fill:none}
    .fil1 {fill:#A5AEC1;fill-opacity:0.101961}
    .fil2 {fill:#A5AEC1;fill-opacity:0.701961}
   ]]>
  </style>
 </defs>
 <g id="Camada_x0020_1">
  <metadata id="CorelCorpID_0Corel-Layer"/>
  <rect class="fil0" width="100" height="100"/>
  <g id="_1431530699024">
   <path class="fil1" d="M81.5 9.87l-0.6 -0.4 -0.2 -0.2 -0.2 -0.2 -0.21 -0.21 -0.2 -0.2 -0.2 -0.2 -0.2 -0.2 -0.2 -0.2 -0.2 -0.2c-0.59,-0.16 -1.18,-0.74 -1.7,-1.13 -0.7,-0.52 -1.02,-0.78 -1.79,-1.23 -4.19,-2.47 -7.37,-3.97 -12.58,-4.96 -7.08,-1.34 -14.89,0.01 -20.31,2.19 -15.99,6.43 -27.12,21.59 -33.09,37.26 -1.09,2.87 -2.04,5.72 -2.82,8.87 -0.71,2.82 -1.65,7.16 -1.88,10.02 -0.29,3.6 -0.58,7.28 -0.19,11.04 0.36,3.43 1.14,6.81 2.33,9.56 3.08,7.12 8.05,10.26 16.19,10.22 5.46,-0.03 12.71,1.54 17.61,2.95 5.18,1.5 11.87,4.2 17.49,6.1 6.09,2.05 11.14,1.47 17.05,-1.04 0.94,-0.4 1.16,-0.56 2.01,-1.02 2.1,-1.14 2.68,-1.85 4.16,-3.1 3.88,-3.28 7.02,-8.64 8.73,-13.44 0.54,-1.52 0.98,-2.88 1.46,-4.38 1.72,-5.32 2.87,-15.14 2.84,-20.55 0,-1.23 0.19,-1.55 0.22,-2.6 0.03,-0.99 -0.01,-2.04 -0.01,-3.04 0.01,-2.34 -0.56,-8.81 -0.81,-11.08 -0.45,-4.23 -2.01,-10.42 -3.54,-14.2 -1.16,-2.88 -2.34,-5.41 -3.91,-7.78 -2.24,-3.37 -4.47,-5.48 -5.25,-6.65z"/>
   <g>
    <path class="fil2" d="M88.51 8.01l2.02 1.91c0.98,-0.3 1.56,-1.26 2.21,-1.91 0.74,-0.74 1.51,-1.34 2.07,-2.17l-2.17 -2.06 -4.13 4.23z"/>
    <polygon class="fil2" points="79.29,7.86 79.49,8.06 79.69,8.26 79.89,8.46 80.09,8.66 80.29,8.86 80.5,9.07 80.7,9.27 80.9,9.47 81.5,9.87 83.57,7.9 79.54,3.78 77.42,5.79 "/>
    <polygon class="fil2" points="89.12,17.48 93.15,21.61 95.26,19.6 91.23,15.47 "/>
   </g>
  </g>
 </g>
</svg>
