<?xml version="1.0" encoding="UTF-8"?>
<!DOCTYPE svg PUBLIC "-//W3C//DTD SVG 1.1//EN" "http://www.w3.org/Graphics/SVG/1.1/DTD/svg11.dtd">
<!-- Creator: CorelDRAW -->
<svg xmlns="http://www.w3.org/2000/svg" xml:space="preserve" width="100px" height="100px" version="1.1" style="shape-rendering:geometricPrecision; text-rendering:geometricPrecision; image-rendering:optimizeQuality; fill-rule:evenodd; clip-rule:evenodd"
viewBox="0 0 100 100"
 xmlns:xlink="http://www.w3.org/1999/xlink"
 xmlns:xodm="http://www.corel.com/coreldraw/odm/2003">
 <defs>
  <style type="text/css">
   <![CDATA[
    .str0 {stroke:#A5AEC1;stroke-width:3.23;stroke-miterlimit:22.9256;stroke-opacity:0.501961}
    .fil0 {fill:none}
    .fil2 {fill:none}
    .fil1 {fill:#7B88A4;fill-opacity:0.101961}
   ]]>
  </style>
 </defs>
 <g id="Camada_x0020_1">
  <metadata id="CorelCorpID_0Corel-Layer"/>
  <rect class="fil0" width="100" height="100"/>
  <g id="_1710828726416">
   <path class="fil1" d="M35.11 6.31c2.61,7.5 -7.83,8.79 -8.07,2.02 -1.36,0.29 -2.9,0.96 -4.19,1.5 -2.55,1.06 -5.18,2.58 -7.42,4.06 -11.68,7.74 -17.28,21.91 -14.76,36.08 1.46,8.16 6.4,16.75 12.17,22.52 1.02,1.02 1.9,1.89 2.92,2.92 4.33,4.37 11.8,8.89 17.35,11.67 10.73,5.38 25.05,9.16 37.83,7.73 7.96,-0.88 14.96,-4.25 17.66,-10.97 1.11,-2.74 1.11,-4.72 1.09,-7.58l0.78 -8.09c1.7,-10.31 5.17,-17.31 8.17,-26.5 2.65,-8.14 1.15,-15.71 -4.02,-22.34 -0.51,-0.65 -0.85,-0.93 -1.3,-1.53l-3.05 -2.79c-7.27,-5.39 -13.9,-7.33 -22.98,-8.87 -3.97,-0.67 -12.03,-1.24 -16.1,-1.24 -0.93,0 -1.91,-0.03 -2.83,0 -1.08,0.03 -1.51,0.22 -2.81,0.21 -1.81,-0.02 -9.58,0.73 -10.44,1.2z"/>
   <path class="fil2 str0" d="M31.28 5.16c1.81,0 3.28,1.47 3.28,3.28 0,1.81 -1.47,3.27 -3.28,3.27 -1.81,0 -3.27,-1.46 -3.27,-3.27 0,-1.81 1.46,-3.28 3.27,-3.28z"/>
  </g>
 </g>
</svg>
