<?xml version="1.0" encoding="UTF-8"?>
<!DOCTYPE svg PUBLIC "-//W3C//DTD SVG 1.1//EN" "http://www.w3.org/Graphics/SVG/1.1/DTD/svg11.dtd">
<!-- Creator: CorelDRAW -->
<svg xmlns="http://www.w3.org/2000/svg" xml:space="preserve" width="100px" height="100px" version="1.1" style="shape-rendering:geometricPrecision; text-rendering:geometricPrecision; image-rendering:optimizeQuality; fill-rule:evenodd; clip-rule:evenodd"
viewBox="0 0 100 100"
 xmlns:xlink="http://www.w3.org/1999/xlink"
 xmlns:xodm="http://www.corel.com/coreldraw/odm/2003">
 <defs>
  <style type="text/css">
   <![CDATA[
    .fil0 {fill:none}
    .fil1 {fill:#A5AEC1;fill-opacity:0.101961}
    .fil2 {fill:#A5AEC1;fill-opacity:0.701961}
   ]]>
  </style>
 </defs>
 <g id="Camada_x0020_1">
  <metadata id="CorelCorpID_0Corel-Layer"/>
  <rect class="fil0" width="100" height="100"/>
  <g id="_1431543103952">
   <path class="fil1" d="M75.61 82.56l3.39 -2.42c2.53,-1.89 4.06,-3.15 6.3,-5.4 5.03,-5.02 9.44,-10.29 11.92,-17.31 2.47,-6.97 3.43,-12.51 2.2,-20.09 -0.97,-5.99 -4.09,-12.36 -7.31,-15.99l-0.76 0.72c-0.74,-0.35 -3.69,-3.32 -4.11,-4.04l0.82 -0.99c-0.77,-0.55 -1.51,-1.25 -2.35,-1.87 -10.19,-7.64 -24.19,-9.82 -36.74,-9.82 -5.14,0 -11.52,0.42 -15.96,1.18 -2.53,0.42 -4.82,0.83 -7.07,1.4 -5.27,1.32 -13.38,4.51 -17.24,8.35 -1.42,1.41 -2.62,2.36 -4.08,4.39 -4.97,6.88 -5.92,15.04 -2.71,23.27l3.39 9.31c1.75,5.36 2.64,7.54 3.8,13.33 2.25,11.17 -1.29,19.1 8.86,25.21 11.13,6.71 29.57,3.48 42.01,-1.26 3.1,-1.18 7.98,-3.39 10.84,-5.08l0.73 -0.54c2.08,0.27 3.56,-0.91 4.07,-2.35z"/>
   <g>
    <polygon class="fil2" points="86.61,9.33 88.63,11.44 92.76,7.41 90.74,5.3 "/>
    <path class="fil2" d="M88.06 17.04l-0.82 0.99c0.42,0.72 3.37,3.69 4.11,4.04l0.76 -0.72 1.16 -1.13 -4.03 -4.14 -1.18 0.96z"/>
    <polygon class="fil2" points="75.53,6.31 79.56,10.44 81.67,8.42 77.54,4.39 "/>
   </g>
  </g>
 </g>
</svg>
