<?xml version="1.0" encoding="UTF-8"?>
<!DOCTYPE svg PUBLIC "-//W3C//DTD SVG 1.1//EN" "http://www.w3.org/Graphics/SVG/1.1/DTD/svg11.dtd">
<!-- Creator: CorelDRAW -->
<svg xmlns="http://www.w3.org/2000/svg" xml:space="preserve" width="100px" height="100px" version="1.1" style="shape-rendering:geometricPrecision; text-rendering:geometricPrecision; image-rendering:optimizeQuality; fill-rule:evenodd; clip-rule:evenodd"
viewBox="0 0 100 100"
 xmlns:xlink="http://www.w3.org/1999/xlink"
 xmlns:xodm="http://www.corel.com/coreldraw/odm/2003">
 <defs>
  <style type="text/css">
   <![CDATA[
    .fil0 {fill:none}
    .fil1 {fill:#A5AEC1;fill-opacity:0.101961}
    .fil2 {fill:#A5AEC1;fill-opacity:0.701961}
   ]]>
  </style>
 </defs>
 <g id="Camada_x0020_1">
  <metadata id="CorelCorpID_0Corel-Layer"/>
  <rect class="fil0" width="100" height="100"/>
  <g id="_1431546105168">
   <path class="fil1" d="M4.32 50.2c0,15.06 2.27,29.59 9.85,39.74 0.77,1.04 1.42,1.63 2.21,2.63 0.5,0.63 0.73,0.63 1.29,1.13 4.13,3.68 9.36,6.29 16.48,6.29 3.32,0 7.08,-1.27 9.51,-2.18 1.49,-0.57 2.78,-0.98 4.29,-1.56l6.48 -2.38c15.25,-5.32 22.91,-3.4 27.93,-4.94 2.71,-0.82 5.49,-2.86 7,-4.89 0.43,-0.58 0.78,-0.99 1.18,-1.64 7.83,-12.94 2.91,-33.89 -2.76,-46.51 -8.36,-18.6 -23.95,-35.88 -46.17,-35.88 -8.62,0 -15.8,3.54 -21.69,8.14 -6.64,5.21 -11.26,14.38 -13.27,22.42 -1.56,6.27 -2.33,13.01 -2.33,19.63z"/>
   <g>
    <polygon class="fil2" points="77.85,5.8 81.88,9.93 83.99,7.92 79.96,3.79 "/>
    <polygon class="fil2" points="89.54,17.5 93.57,21.63 95.68,19.61 91.65,15.48 "/>
    <polygon class="fil2" points="88.53,8.42 90.44,10.45 94.68,6.3 92.65,4.4 "/>
   </g>
  </g>
 </g>
</svg>
