<?xml version="1.0" encoding="UTF-8"?>
<!DOCTYPE svg PUBLIC "-//W3C//DTD SVG 1.1//EN" "http://www.w3.org/Graphics/SVG/1.1/DTD/svg11.dtd">
<!-- Creator: CorelDRAW -->
<svg xmlns="http://www.w3.org/2000/svg" xml:space="preserve" width="260px" height="110px" version="1.1" style="shape-rendering:geometricPrecision; text-rendering:geometricPrecision; image-rendering:optimizeQuality; fill-rule:evenodd; clip-rule:evenodd"
viewBox="0 0 260 110"
 xmlns:xlink="http://www.w3.org/1999/xlink"
 xmlns:xodm="http://www.corel.com/coreldraw/odm/2003"
 data-name="Layer 1">
 <defs>
  <style type="text/css">
   <![CDATA[
    .str0 {stroke:#7B88A4;stroke-width:0.42;stroke-miterlimit:22.9256;stroke-opacity:0.501961}
    .fil3 {fill:none}
    .fil2 {fill:#7B88A4;fill-opacity:0.301961}
    .fil1 {fill:#7B88A4;fill-opacity:0.501961}
    .fil0 {fill:#7B88A4;fill-rule:nonzero;fill-opacity:0.501961}
   ]]>
  </style>
 </defs>
 <g id="Camada_x0020_1">
  <metadata id="CorelCorpID_0Corel-Layer"/>
  <path class="fil0" d="M53.72 75.3c-0.09,0.04 -0.19,0.08 -0.3,0.11 -0.11,0.03 -0.22,0.05 -0.33,0.06 -0.06,0.01 -0.11,0.01 -0.17,0.01 -0.05,0 -0.11,0 -0.17,-0.01 -0.11,-0.01 -0.22,-0.02 -0.33,-0.05 -0.11,-0.03 -0.23,-0.07 -0.33,-0.12l0 0c-0.11,-0.05 -0.21,-0.11 -0.31,-0.17l0 0c-0.09,-0.07 -0.18,-0.15 -0.26,-0.24 -0.08,-0.08 -0.16,-0.18 -0.22,-0.29l-3.03 -4.97 -2.57 3.01c-0.12,0.14 -0.24,0.27 -0.37,0.39 -0.13,0.13 -0.26,0.24 -0.4,0.34l-0.02 0.02c-0.13,0.1 -0.27,0.19 -0.4,0.27 -0.14,0.08 -0.28,0.15 -0.42,0.21 -0.11,0.05 -0.22,0.09 -0.33,0.13 -0.11,0.03 -0.22,0.05 -0.34,0.07 -0.11,0.01 -0.23,0.02 -0.34,0.02 0,0 -0.01,0 -0.01,0 -0.11,0 -0.23,-0.01 -0.34,-0.03 -0.13,-0.03 -0.26,-0.07 -0.39,-0.12 -0.12,-0.05 -0.24,-0.12 -0.35,-0.19 -0.11,-0.08 -0.22,-0.17 -0.31,-0.26l0 0c-0.09,-0.11 -0.18,-0.22 -0.25,-0.34l-0.04 -0.06 -0.03 -0.07 -0.43 -1.17 0 -0.06 -2.28 -22.91c-0.01,-0.08 -0.01,-0.15 -0.01,-0.23 0,-0.07 0,-0.15 0.01,-0.22 0.03,-0.15 0.08,-0.29 0.15,-0.42 0.11,-0.21 0.27,-0.38 0.46,-0.52l0 0c0.09,-0.06 0.2,-0.11 0.3,-0.15 0.11,-0.04 0.22,-0.07 0.34,-0.08l0 0c0.05,0 0.1,-0.01 0.16,-0.01 0.09,0 0.18,0.01 0.27,0.03 0.14,0.03 0.28,0.08 0.42,0.14l0.1 0.06c4.51,2.95 8.72,5.7 12.91,8.44l6.35 4.14c0.12,0.07 0.23,0.15 0.34,0.24l0 0c0.09,0.07 0.18,0.16 0.27,0.24l0.02 0.03c0.08,0.08 0.17,0.17 0.24,0.27 0.07,0.09 0.13,0.19 0.19,0.29 0.07,0.12 0.12,0.25 0.17,0.38 0.04,0.13 0.07,0.26 0.08,0.39 0.01,0.07 0.02,0.14 0.02,0.21 0,0.06 -0.01,0.13 -0.02,0.2l0 0c-0.01,0.13 -0.03,0.27 -0.07,0.4 -0.07,0.22 -0.18,0.43 -0.32,0.62 -0.06,0.1 -0.14,0.19 -0.22,0.28 -0.09,0.09 -0.18,0.18 -0.27,0.25 -0.13,0.11 -0.26,0.2 -0.39,0.28 -0.15,0.09 -0.3,0.17 -0.45,0.24 -0.16,0.07 -0.34,0.13 -0.49,0.19 -0.17,0.06 -0.34,0.11 -0.52,0.14l0 0c-0.92,0.18 -1.84,0.41 -2.76,0.63l-1.09 0.26 3.01 4.99c0.06,0.11 0.12,0.22 0.16,0.33 0.07,0.2 0.1,0.41 0.1,0.62 0,0.16 -0.02,0.31 -0.05,0.46l0 0.03c-0.03,0.11 -0.07,0.21 -0.11,0.31 -0.05,0.11 -0.11,0.21 -0.17,0.3 -0.07,0.1 -0.15,0.19 -0.23,0.27 -0.09,0.08 -0.18,0.16 -0.28,0.23l-0.67 0.43c-0.92,0.63 -1.89,1.21 -2.88,1.73l0 0zm-16.16 -34.38c0.1,0.19 0.15,0.4 0.15,0.62 0,0.74 -0.6,1.34 -1.34,1.34 -0.45,0 -0.88,-0.24 -1.13,-0.62l-2.67 -4.68c-0.09,-0.19 -0.14,-0.39 -0.14,-0.6 0,-0.74 0.6,-1.34 1.34,-1.34 0.44,0 0.86,0.23 1.11,0.6l2.69 4.68 -0.01 0zm-5.02 15.63c0.19,-0.09 0.39,-0.14 0.6,-0.14 0.74,0 1.34,0.6 1.34,1.34 0,0.45 -0.23,0.86 -0.6,1.11l-4.68 2.7c-0.18,0.09 -0.39,0.14 -0.59,0.14 -0.74,0 -1.34,-0.6 -1.34,-1.34 0,-0.45 0.22,-0.87 0.59,-1.11l4.68 -2.7 0 0zm-0.69 -8.82c0.56,0.18 0.94,0.69 0.94,1.28 0,0.74 -0.6,1.33 -1.34,1.33 -0.1,0 -0.19,-0.01 -0.29,-0.03l-5.18 -1.4c-0.54,-0.19 -0.9,-0.69 -0.9,-1.27 0,-0.73 0.6,-1.33 1.34,-1.33 0.08,0 0.15,0 0.23,0.02l5.19 1.4 0.01 0zm20.54 0.45c-0.19,0.09 -0.39,0.14 -0.6,0.14 -0.74,0 -1.34,-0.6 -1.34,-1.34 0,-0.45 0.23,-0.87 0.6,-1.11l4.68 -2.7c0.18,-0.09 0.39,-0.14 0.59,-0.14 0.74,0 1.34,0.6 1.34,1.34 0,0.45 -0.22,0.87 -0.59,1.11l-4.68 2.7zm-6.2 -6.89c-0.12,0.63 -0.67,1.08 -1.31,1.08 -0.74,0 -1.34,-0.59 -1.34,-1.33 0,-0.15 0.03,-0.3 0.07,-0.44l1.38 -5.18c0.19,-0.54 0.69,-0.9 1.26,-0.9 0.74,0 1.34,0.6 1.34,1.34 0,0.07 -0.01,0.15 -0.02,0.23l-1.38 5.2zm6.74 32.21l3.23 -1.96c-1.13,-1.88 -2.95,-4.53 -3.84,-6.41 -0.02,-0.04 -0.03,-0.08 -0.04,-0.12 -0.02,-0.06 -0.02,-0.12 -0.02,-0.18 0,-0.37 0.26,-0.69 0.62,-0.78 1.8,-0.41 3.64,-0.8 5.42,-1.24 0.21,-0.05 0.41,-0.12 0.6,-0.2 0.16,-0.07 0.31,-0.15 0.44,-0.26 0.05,-0.03 0.09,-0.08 0.13,-0.12 0.02,-0.03 0.03,-0.05 0.04,-0.08l-0.02 -0.06c-0.04,-0.07 -0.09,-0.13 -0.14,-0.18 -0.09,-0.08 -0.18,-0.15 -0.28,-0.21l-18.36 -11.99c0.7,7.14 1.74,14.74 2.15,21.83 0.02,0.11 0.04,0.22 0.07,0.33 0.02,0.07 0.04,0.14 0.08,0.21l0.04 0.04c0.02,0.01 0.04,0.01 0.05,0.01 0.02,0 0.04,0 0.05,-0.01 0.06,-0.01 0.12,-0.03 0.17,-0.05 0.16,-0.07 0.3,-0.16 0.43,-0.27 0.16,-0.13 0.31,-0.28 0.45,-0.44 0.65,-0.76 3.21,-4.06 3.81,-4.41 0.13,-0.07 0.27,-0.11 0.41,-0.11 0.28,0 0.54,0.15 0.69,0.39l3.82 6.26 0 0.01z"/>
  <g id="_2103300532112">
   <polygon class="fil1" points="99.12,28.42 101.66,36.26 109.9,36.25 103.22,41.08 105.78,48.92 99.12,44.06 92.46,48.92 95.02,41.08 88.34,36.25 96.59,36.26 "/>
   <path class="fil2" d="M121.18 31.69l91.74 0c2.2,0 4,1.79 4,4l0 5.96c0,2.2 -1.8,4 -4,4l-91.74 0c-2.21,0 -4,-1.8 -4,-4l0 -5.96c0,-2.21 1.79,-4 4,-4z"/>
   <g>
    <path class="fil1" d="M99.12 58.42l2.54 7.84 8.24 -0.01 -6.68 4.83 2.56 7.84 -6.66 -4.86 -6.66 4.86 2.56 -7.84 -6.68 -4.83 8.25 0.01 2.53 -7.84zm0.95 8.35l-0.95 -2.95 -0.95 2.95 -0.37 1.16 -1.21 -0.01 -3.1 0 2.51 1.81 0.98 0.71 -0.37 1.16 -0.97 2.95 2.51 -1.83 0.97 -0.71 0.98 0.71 2.5 1.83 -0.96 -2.95 -0.38 -1.16 0.98 -0.71 2.51 -1.81 -3.09 0 -1.21 0.01 -0.38 -1.16z"/>
   </g>
   <path class="fil2" d="M121.18 61.69l91.74 0c2.2,0 4,1.8 4,4l0 5.96c0,2.2 -1.8,4 -4,4l-91.74 0c-2.21,0 -4,-1.8 -4,-4l0 -5.96c0,-2.2 1.79,-4 4,-4z"/>
   <path class="fil3 str0" d="M91.14 18.74l127.78 0c8.81,0 16,7.18 16,16l0 40.52c0,8.81 -7.19,16 -16,16l-127.78 0c-8.81,0 -16,-7.19 -16,-16l0 -40.52c0,-8.82 7.19,-16 16,-16z"/>
  </g>
 </g>
</svg>
