<?xml version="1.0" encoding="UTF-8"?>
<!DOCTYPE svg PUBLIC "-//W3C//DTD SVG 1.1//EN" "http://www.w3.org/Graphics/SVG/1.1/DTD/svg11.dtd">
<!-- Creator: CorelDRAW -->
<svg xmlns="http://www.w3.org/2000/svg" xml:space="preserve" width="260px" height="110px" version="1.1" style="shape-rendering:geometricPrecision; text-rendering:geometricPrecision; image-rendering:optimizeQuality; fill-rule:evenodd; clip-rule:evenodd"
viewBox="0 0 260 110"
 xmlns:xlink="http://www.w3.org/1999/xlink"
 xmlns:xodm="http://www.corel.com/coreldraw/odm/2003"
 data-name="Layer 1">
 <defs>
  <style type="text/css">
   <![CDATA[
    .str0 {stroke:#7B88A4;stroke-width:0.42;stroke-miterlimit:22.9256;stroke-opacity:0.501961}
    .fil3 {fill:none}
    .fil2 {fill:#7B88A4;fill-opacity:0.301961}
    .fil1 {fill:#7B88A4;fill-opacity:0.501961}
    .fil0 {fill:#7B88A4;fill-rule:nonzero;fill-opacity:0.501961}
   ]]>
  </style>
 </defs>
 <g id="Camada_x0020_1">
  <metadata id="CorelCorpID_0Corel-Layer"/>
  <path class="fil0" d="M35.06 62.17c-0.04,-0.02 -0.1,-0.05 -0.14,-0.08 -0.56,-0.45 -1.17,-0.95 -1.7,-1.38 -0.78,-0.63 -1.67,-1.36 -2.29,-1.88 -0.42,-0.35 -0.91,-0.59 -1.36,-0.69 -0.3,-0.05 -0.56,-0.05 -0.77,0.03 -0.17,0.08 -0.32,0.21 -0.41,0.43 -0.13,0.28 -0.2,0.68 -0.16,1.24 0.03,0.48 0.2,1.01 0.42,1.53 0.33,0.75 0.79,1.45 1.12,1.89 0.03,0.03 0.04,0.05 0.06,0.09l6.69 9.55c0.08,0.13 0.14,0.27 0.14,0.4 0.14,1.1 0.37,1.94 0.71,2.46 0.26,0.37 0.57,0.57 0.98,0.55l10.53 0c0.66,-0.01 1.25,-0.19 1.8,-0.58 0.6,-0.41 1.14,-1.05 1.64,-1.92 0.01,-0.01 0.02,-0.03 0.03,-0.04 0.19,-0.33 0.44,-0.75 0.68,-1.15 1.07,-1.76 2,-3.29 2.11,-5.47l-0.07 -3c-0.01,-0.04 -0.01,-0.08 -0.01,-0.13 0,-0.04 0,-0.32 0.01,-0.7 0.03,-1.99 0.06,-4.45 -1.76,-4.75l-1.18 0c-0.01,0.56 -0.04,1.13 -0.07,1.68 -0.03,0.5 -0.07,0.96 -0.07,1.42 0,0.49 -0.39,0.88 -0.87,0.88 -0.49,0 -0.88,-0.39 -0.88,-0.88 0,-0.45 0.03,-0.98 0.06,-1.53 0.12,-1.88 0.26,-4.02 -1.23,-4.28l-1.17 0c-0.06,0 -0.13,-0.01 -0.19,-0.03 0.01,0.68 -0.03,1.38 -0.07,2.05 -0.03,0.5 -0.06,0.97 -0.06,1.42 0,0.49 -0.39,0.88 -0.87,0.88 -0.49,0 -0.88,-0.39 -0.88,-0.88 0,-0.45 0.03,-0.98 0.06,-1.53 0.12,-1.88 0.26,-4.02 -1.23,-4.28l-1.17 0c-0.08,0 -0.16,-0.02 -0.23,-0.03l0 3.41c0,0.49 -0.39,0.88 -0.88,0.88 -0.48,0 -0.88,-0.39 -0.88,-0.88l0 -9.17c0,-1.53 -0.62,-2.5 -1.42,-2.9 -0.3,-0.15 -0.61,-0.22 -0.92,-0.22 -0.31,0 -0.62,0.07 -0.92,0.22 -0.79,0.4 -1.4,1.37 -1.4,2.94l0 16.06c0,0.49 -0.39,0.88 -0.88,0.88 -0.49,0 -0.88,-0.39 -0.88,-0.88l0 -1.63 -0.02 0 0 0zm4.76 -24.97c0,0.58 -0.48,1.04 -1.05,1.04 -0.58,0 -1.04,-0.47 -1.04,-1.04l0 -4.2c0,-0.58 0.47,-1.05 1.04,-1.05 0.59,0 1.05,0.48 1.05,1.05l0 4.2 0 0 0 0zm-9.49 8.61c0.58,0 1.04,0.48 1.04,1.04 0,0.59 -0.47,1.05 -1.04,1.05l-4.21 0c-0.58,-0.01 -1.04,-0.48 -1.04,-1.05 0,-0.58 0.47,-1.04 1.04,-1.04l4.21 0 0 0zm2.97 -6.23c0.41,0.4 0.41,1.07 0,1.47 -0.4,0.41 -1.07,0.41 -1.47,0l-2.96 -2.97c-0.41,-0.41 -0.41,-1.07 0,-1.48 0.4,-0.4 1.07,-0.4 1.47,0l2.96 2.98 0 0zm13.71 8.31c-0.58,0 -1.04,-0.47 -1.04,-1.04 0,-0.58 0.47,-1.04 1.04,-1.04l4.2 0c0.59,0 1.05,0.47 1.05,1.04 0,0.58 -0.48,1.04 -1.05,1.04l-4.2 0 0 0zm-1.5 -7.06c-0.4,0.4 -1.07,0.4 -1.47,0 -0.41,-0.41 -0.41,-1.07 0,-1.48l2.96 -2.97c0.4,-0.41 1.07,-0.41 1.47,0 0.41,0.4 0.41,1.07 0,1.47l-2.96 2.98 0 0zm-2.25 10.92c0.07,-0.02 0.15,-0.03 0.23,-0.03l1.22 0c0.06,0 0.14,0.01 0.2,0.03 1.61,0.25 2.34,1.19 2.64,2.41 0.12,-0.05 0.24,-0.08 0.37,-0.08l1.22 0c0.06,0 0.14,0.01 0.19,0.02 1.75,0.27 2.45,1.34 2.7,2.7 0.04,-0.01 0.09,-0.01 0.14,-0.01l1.22 0c0.06,0 0.13,0.01 0.2,0.02 3.34,0.52 3.29,3.84 3.27,6.51l0 0.7 0.07 3.08 0 0.1c-0.13,2.63 -1.16,4.33 -2.36,6.3 -0.2,0.32 -0.4,0.66 -0.67,1.13 -0.01,0.01 -0.01,0.02 -0.02,0.03 -0.63,1.09 -1.35,1.92 -2.17,2.49 -0.84,0.59 -1.77,0.88 -2.78,0.89l-10.52 0c-1.05,0.03 -1.86,-0.43 -2.47,-1.33 -0.48,-0.72 -0.8,-1.73 -0.97,-3l-6.55 -9.37 -0.03 -0.03c-0.39,-0.52 -0.92,-1.33 -1.32,-2.23 -0.3,-0.68 -0.52,-1.41 -0.57,-2.13 -0.06,-0.85 0.06,-1.53 0.3,-2.07 0.3,-0.67 0.79,-1.1 1.37,-1.33 0.54,-0.22 1.15,-0.25 1.77,-0.13 0.73,0.15 1.5,0.52 2.14,1.06 0.53,0.44 1.42,1.16 2.28,1.87l0.72 0.59 0 -12.18c0,-2.34 1.04,-3.84 2.38,-4.52 0.54,-0.27 1.12,-0.41 1.72,-0.41 0.59,0 1.17,0.14 1.71,0.41 1.34,0.67 2.4,2.19 2.4,4.48l0 4.04 -0.03 -0.01 0 0z"/>
  <g id="_2103801239024">
   <polygon class="fil1" points="99.12,28.42 101.66,36.26 109.9,36.25 103.22,41.08 105.78,48.92 99.12,44.06 92.46,48.92 95.02,41.08 88.34,36.25 96.59,36.26 "/>
   <path class="fil2" d="M121.18 31.69l91.74 0c2.2,0 4,1.79 4,4l0 5.96c0,2.2 -1.8,4 -4,4l-91.74 0c-2.21,0 -4,-1.8 -4,-4l0 -5.96c0,-2.21 1.79,-4 4,-4z"/>
   <g>
    <path class="fil1" d="M99.12 58.42l2.54 7.84 8.24 -0.01 -6.68 4.83 2.56 7.84 -6.66 -4.86 -6.66 4.86 2.56 -7.84 -6.68 -4.83 8.25 0.01 2.53 -7.84zm0.95 8.35l-0.95 -2.95 -0.95 2.95 -0.37 1.16 -1.21 -0.01 -3.1 0 2.51 1.81 0.98 0.71 -0.37 1.16 -0.97 2.95 2.51 -1.83 0.97 -0.71 0.98 0.71 2.5 1.83 -0.96 -2.95 -0.38 -1.16 0.98 -0.71 2.51 -1.81 -3.09 0 -1.21 0.01 -0.38 -1.16z"/>
   </g>
   <path class="fil2" d="M121.18 61.69l91.74 0c2.2,0 4,1.8 4,4l0 5.96c0,2.2 -1.8,4 -4,4l-91.74 0c-2.21,0 -4,-1.8 -4,-4l0 -5.96c0,-2.2 1.79,-4 4,-4z"/>
   <path class="fil3 str0" d="M91.14 18.74l127.78 0c8.81,0 16,7.18 16,16l0 40.52c0,8.81 -7.19,16 -16,16l-127.78 0c-8.81,0 -16,-7.19 -16,-16l0 -40.52c0,-8.82 7.19,-16 16,-16z"/>
  </g>
 </g>
</svg>
