<svg xmlns="http://www.w3.org/2000/svg" xml:space="preserve" width="24px" height="24px" style="shape-rendering:geometricPrecision;text-rendering:geometricPrecision;image-rendering:optimizeQuality;fill-rule:evenodd;clip-rule:evenodd" viewBox="0 0 474.89 474.54">
	<defs>
		<style>.str0{stroke:#3d4ec5;stroke-width:.69;stroke-miterlimit:22.9256}.fil2{fill:#3342ad}.fil0{fill:#3d4ec5}.fil16{fill:#a0ffbc}.fil12{fill:#b2705b}.fil9{fill:#ffcdbe}.fil8{fill:#ffddce}.fil18{fill:#ffece4}</style>
	</defs>
	<g id="Camada_x0020_1">
		<g id="_1431303242848">
			<path class="fil0 str0" d="m257.97 183.42-19.58-.1-21.28 35.29c-2.25 3.56-4.56 8.44-7.1 11.23l-4.1-.1c-2.6-2.72-5.01-7.87-7.46-11.69l-20.92-34.73c-15.11-.3-30.44-.05-45.57-.05-18.43 0-27.23 3.15-35.02-9.15l-1.14.98c-3.64 3.93 2.61-3.53-.9 1.07-7.31 9.62-14.8 28.99-17.84 33.38 3.53 2.5 5.73 2.02 8.31 5.76 2.26 3.28 2.62 7.44 1.14 11.51 6.24 1.14 15.01 5.54 21 8.01 9.63 3.98 12.73 4.9 12.42 17.23 3.51 2.41 15.83 7.01 20.39 8.35 17.8 5.21 37.02-1.13 54.73.79 9.63 1.04 14.41 4.35 22.31 6.55 9.4-13.53-2.49-8.85 30.62-22.01 12.34-4.91 24.14-10.41 36.61-15.25 18.09-7.02 21.96 5.27 26.72 8.16 15.65 9.51 37.36-4.93 49.63-8.93-8.63-19.82-5.61-21.46 12.85-28.66 12.02-4.68 24.25-9.86 36.21-14.97-2.29-6.3-13-20.67-17.06-25.34-10.4-11.93-10.44-10.93-20.46-21.28-8.07-8.33-36.41-27.8-51.44-32.29-.03 12.88 2.38 59.76-2.23 67.62-5.04 8.58-14.37 8.63-26.51 8.63-11.44 0-22.89-.03-34.33-.01z"/>
			<path d="m95.4 309.7-5.3 12.46c10.82 2.14 29.6 11.99 37.58 20.41 5.63 5.95 14.08 16.64 20.44 22.22 3.05 2.67 6.01 3.4 8.67 6.01l4.87-1.06c6.83-3.41 14.27-1.51 13.92 7.07 2.42 2.79 1.9 3.27 3.38 6.47 1.08-1.4-1.42-2.24 3.07-.67 2.86 1.01 2.38 1.28 3.22 3.16 2.95-2.1 4.36-2.15 8.6-2.87 5.49-4.08 12.54-1.57 12.75 5.01 1.28 1.4 2.53 4.69 3.22 6.9.86 2.76.76 5.79 1 8.69 5-2 4.15-6.05 13.25-7.08 5.86-3.25 13.88-3.37 14.09 4.28 1.64 1.9.41.21 1.6 3.14.64 1.59 1.19 2.4 1.71 3.86 1.07 3.01.89 5.87.78 9.05 6.58-4.15 4.13-5.89 13.84-7.44 8.26-3.68 15.12-1.97 14.43 8.05 2.63 1.88 1.49 1.41 3.05 4.11 10.82 3.21 13.18 7.66 25.23 1.94l-.03-2.43c-.67-4.75-1.92-5.99-4.89-8.44-6.98-4.72 2.82-.26-11.85-6.55l-40.58-16.84c-8.97-3.56-17.83-7.56-26.89-11.12-4.23-1.65-9.38-3.02-10.15-8.34-.86-5.95 3.34-10.34 9.05-9.97 4.45.29 67.33 27.75 80.97 33.01 8.03 3.1 20.04 10.68 28.08 2.62.06-4.91-2.3-8.9-5.67-11.37l-78.77-33.19c-18.91-7.86-8.09-19.74.41-18.11l52.71 21.6c9.04 3.67 17.36 7.4 26.18 10.88 13.59 5.36 13.76 8.68 28.89 3.74l-.23-2.6c-.57-3.86-1.84-5.82-4.08-8.28-4.95-1.07-.98-1.53-6.15-3.91-2.15-.99-4.12-1.75-6.53-2.74l-40.73-16.76c-9-3.56-17.9-7.39-26.85-11.14-18.97-7.94-7.3-18.68-1.01-18.32 4.02.24 67.51 27.75 80.86 33.05 6.46 2.56 22.65 10.97 28.26 2.49 0-6.72-2.64-8.08-5.72-11.14-1.09-1.08-.75-.83-1.46-1.68-4.86-.75-22.24-8.81-28.2-11.28l-56.41-23.32c-6.7-2.63-22.59-10.43-28.37-11.24-8.02 8.76-6.4 36.99-34.38 34.13-5.39-.8-9.16-3.32-10.89-7.68-2.06-5.22.43-9.85 2.25-14.16 3.1-7.33 8.94-19.42 10.74-26.57-7.9-2.2-12.68-5.51-22.31-6.55-17.71-1.92-36.93 4.42-54.73-.79-4.56-1.34-16.88-5.94-20.39-8.35L95.4 309.7z" style="fill:#d27e6b;stroke:#d27e6b;stroke-width:.69;stroke-miterlimit:22.9256"/>
			<path class="fil2" d="M126.4 27.81h127.81c12.35.13 24.8-.01 37.16-.01 13.55 0 21.48-1.26 27.53 8.62 4.46 7.3 2.12 58.12 2.14 70.76 15.03 4.49 43.37 23.96 51.44 32.29 10.02 10.35 10.06 9.35 20.46 21.28 4.06 4.67 14.77 19.04 17.06 25.34l53.77-21.89c-6.18-14.05-7.9-23.28-17.29-40.32-9.44-17.12-21.41-32.77-33.92-47.64l-30.73-27.67c-13.57-10.03-16.44-11.78-30.22-19.83-24.35-14.22-60.32-24.68-88.1-27.76-4.18-.46-8.6-.79-13.16-.98H229.2c-19.67.78-39.91 3.67-55.41 8.46-7.93 2.45-40.5 13.31-47.39 19.35z"/>
			<path d="M241.1 119.46c5.38-3.09 36.79-3.09 41.86.02l.28 5.72c-5.38 3.12-36.73 3.12-41.85.02l-.29-5.76zm0-21.31c5.79-3.34 20.76-1.77 28.96-1.77 8.19 0 23.18-1.58 28.66 1.78l.28 5.72c-5.78 3.37-20.74 1.79-28.94 1.79-8.22 0-23.14 1.57-28.67-1.77l-.29-5.75zm31.14-14.55c-7.2 1.1-25.36 2.3-30.85-1.02l-.29-5.75c6.02-3.25 23.52-1.95 31.17-1.13 2.82 6.42.16 4.41-.03 7.9zm-74.28-18.67c1.84 1.48 3.17 2.56 3.83 5.09 4.79-2.87 14.35-17.14 20.36-14.29 6.02 6.53 1.9 9.26-2.39 13.54-3.98 3.96-8.27 7.35-11.41 11.77 2.72-.03 5.21 12.89 5.63 15.97.88 6.53.43 13.74-1.19 19.92-3.66 13.91-9.99 20.34-16.64 27.75 3.75 12.34 25.37 29.05 40.49 34.27 7.41 2.56 15.13 2.49 21.33 4.47 11.44-.02 22.89.01 34.33.01 12.14 0 21.47-.05 26.51-8.63 4.61-7.86 2.2-54.74 2.23-67.62-.02-12.64 2.32-63.46-2.14-70.76-6.05-9.88-13.98-8.62-27.53-8.62-12.36 0-24.81.14-37.16.01-7.84 3.31-17.09 1.54-33.81 12.44-5.55 3.61-14.55 11.6-18.35 16.86-3.64 5.05-4.02 3.83-4.09 7.82z" style="fill:#1ed588"/>
			<path class="fil0 str0" d="M362.62 327.87c.71.85.37.6 1.46 1.68 3.08 3.06 5.72 4.42 5.72 11.14 2.27 2.06.35 7.65-.96 10.2-1.2 2.33-3.72 5.22-6.24 6.73-9.11 5.48-12.64.35-20.65.4 2.24 2.46 3.51 4.42 4.07 8.28 4.74 7.17-3.56 16.75-7.65 18.97-9.99 5.4-13.93.13-21.53-1.29 3.37 2.47 5.73 6.46 5.67 11.37 2.22 2.05.28 7.61-1.04 10.1-8.35 15.7-25.5 6.58-25.88 6.53-2-.23-.63-.41-1.71.56 2.97 2.45 4.22 3.69 4.89 8.44 4.47 6.97-3.18 15.97-7.29 18.48-9.03 5.52-12.99 1.01-21.15-.46-3.1 8.85-5.66 18.51-16.96 16.7-3.88-1.06-10.26-3.39-13.64-5.47-1.5-.93-3.7-2.5-4.76-4.52-1.64-3.11-.2-7.61-2.39-7.61-.85 1.95.56.69-1.87 2.66-.79.64-2.08 1.29-3.06 1.6-2.42.76-5.15.49-6.62.08-2.76-.75-11.66-4.16-13.54-5.44-4.26-2.9-5.05-5.82-5.47-12.16-3.26 3.16-6.72 6.31-12.37 4.48-3.04-.71-11.28-3.84-13.61-5.35-4.79-3.1-4.49-6.14-5.88-12.24-1.69 2.94-6.7 6.23-11.91 4.5-6.67-1.09-16.16-5.65-18.46-10.74-3.05-6.75 2.67-14.31 4.42-20.84-6.21-3.28-9.64-8.04-13.73-13.36l-12.34-14.54c-9.24-9.91-18.36-14.33-33.58-19.91-4.17 5.23 0 2.34-7.2 6.33l-1.33.91c.87 1.07 15.45 36.56 35.85 57.89 1.74 1.82 3.06 2.55 4.78 4.44 8.34 9.16 15.84 15.02 25.79 22.42 28.4 21.09 71.65 36.48 117.41 33.88 33.07-1.89 59.61-11.01 86.31-26.96 8.44-5.04 26.2-17.77 31.86-24.69 3-3.67 6.48-5.5 9.69-9.76l8.38-10.17c12.29-15.11 27.77-43.82 31.75-64.09-5.92 2.27-14.93 7.64-21.44 4.69-5.83-2.63-7.4-10.23-10.54-17.5l-33.25 13.64z"/>
			<path class="fil2" d="M427.85 327.04c-3.98 20.27-19.46 48.98-31.75 64.09l-8.38 10.17c-3.21 4.26-6.69 6.09-9.69 9.76-5.66 6.92-23.42 19.65-31.86 24.69-26.7 15.95-53.24 25.07-86.31 26.96-45.76 2.6-89.01-12.79-117.41-33.88-9.95-7.4-17.45-13.26-25.79-22.42-1.72-1.89-3.04-2.62-4.78-4.44-20.4-21.33-34.98-56.82-35.85-57.89-3.96-1.1-5.2-.79-9.4-2.54-2.64-1.09-5.23-2.14-7.88-3.25-5.28-2.21-10.71-3.96-15.63-6.95-5 10.39-11.53 7.33-21.46 4.15 1.31 5.7 7.17 14.75 9.59 19.17l16.11 24.67c1.74 2.27 2.99 4.25 4.71 6.42l34.72 34.79c13.09 11.96 34.23 23.95 49.8 31.76 5.05 2.54 10.57 4.57 16.31 6.86 21.54 8.62 34.67 10.49 55.79 13.72 5.21.8 11.17 1.35 17.45 1.66h24.72c4.38-.21 8.65-.54 12.65-.98 22.84-2.53 44.28-8.7 64.82-16.75 5.28-2.06 10.83-4.77 15.87-7.29l29.12-17.23 22.07-17.78c1.86-1.79 1.93-1.45 3.68-2.81 7.62-5.94 12.92-13.83 16.73-17.56l15.69-19.53c3.23-4.28 6.42-9.45 9.13-14.05 2.89-4.9 5.68-9.57 8.32-14.85 4.57-9.16 11.17-23.17 13.9-33.06l-34.99 14.39z"/>
			<path d="M94.89 48.2v63.95c0 12.83-1.92 53.2 2.05 61.97 7.79 12.3 16.59 9.15 35.02 9.15 15.13 0 30.46-.25 45.57.05l20.92 34.73c2.45 3.82 4.87 8.97 7.46 11.69l4.1.1c2.54-2.79 4.85-7.67 7.1-11.23l21.28-35.29 19.58.1c-6.2-1.98-13.92-1.91-21.33-4.47-15.12-5.22-36.74-21.93-40.49-34.27-2.8 1.37-3.54 2.42-6.22 4.12-37.23 23.55-84.18-3.74-82.88-46.89 1.28-42.42 50.58-67.29 85.56-41.16.99.73 1.66 1.11 2.69 1.92l2.07 1.79c.09-.18.39.32.59.47.07-3.99.45-2.77 4.09-7.82 3.8-5.26 12.8-13.25 18.35-16.86 16.72-10.9 25.98-9.13 33.81-12.44H126.4c-13.59-.05-23.77-2.27-29.68 9.24-2.38 4.63-1.84 4.43-1.83 11.15z" style="fill:#19b874"/>
			<path d="M417.64 215.03c2.09 10.19-1.23 18.33-9.54 21.29-4.26 1.52-9.26 1.03-12.94-.87-3.99-2.05-4.89-4.7-7.57-7.41-1.5 2.99-9.26 5.01-12.64 6.56-7.85 3.61-3.78 5.45-7.51 10.44l1.94 6.13 26.49 63.06c3.14 7.27 4.71 14.87 10.54 17.5 6.51 2.95 15.52-2.42 21.44-4.69l34.99-14.39c2.98-7.39 5.54-18.17 7.2-26.47 3.17-15.88 2.36-18.02 4.11-29.26.37-2.37.62-6.5.74-11.54v-15.29c-.31-15.08-1.49-31.2-3.71-35.26-7.38 1.96-19.17 7.82-26.86 10.92-3.33 1.34-23.66 11.38-26.68 9.28z" style="fill:#ffb42c"/>
			<path class="fil2" d="m6.83 181.14 70.23 28.41c3.04-4.39 10.53-23.76 17.84-33.38 3.51-4.6-2.74 2.86.9-1.07l1.14-.98c-3.97-8.77-2.05-49.15-2.05-61.97V48.2c-3.19.84-8.46 5.93-11.31 8.16l-7.41 6.49c-9.02 7.03-28.03 30.42-35.41 41.51-11.21 16.85-21.19 35.69-27.55 54.94-2.2 6.65-4.93 14.33-6.38 21.84z"/>
			<path d="M196.15 144.68c6.65-7.41 12.98-13.84 16.64-27.75 1.62-6.18 2.07-13.39 1.19-19.92-.42-3.09-2.91-16-5.63-15.98-5.84 4.29-15.34 14.94-21.03 20.67-7 7.04-13.37 13.37-20.39 20.4-11.3 11.3-10.36 9.26-23.03-3.36-6.91-6.88-13.31-12.89-20.13-20.25-.21-4.94.09-5.19 2.78-7.36 5.16-2.27 11.85 6.47 16.38 10.98 3.77 3.76 10.12 11.24 13.99 13.41l44.87-45.5c-.66-2.53-1.99-3.62-3.83-5.09-.2-.16-.5-.65-.59-.47l-2.07-1.79c-1.03-.81-1.7-1.19-2.69-1.92-34.98-26.13-84.28-1.26-85.56 41.16-1.3 43.14 45.65 70.44 82.88 46.89 2.68-1.7 3.42-2.75 6.22-4.12z" style="fill:#169b62"/>
			<path d="M6.83 294.59c7.55 3.11 15.1 6.1 22.45 9.22 9.98 4.25 12.8 7.56 23.13 3.03l.34-.32c2.5-1.96 2.16-2.61 3.19-5.62l30.57-74.08c1.48-4.07 1.12-8.23-1.14-11.51-2.58-3.74-4.78-3.26-8.31-5.76L6.83 181.14c-2.46 8.34-3.3 16.66-4.83 26.27-.89 5.57-1.42 11.52-1.65 17.65v16.79c.46 13.56 1.95 27.18 3.7 38.99.7 4.7 2.37 9.07 2.78 13.75z" style="fill:#e5554e;stroke:#e5554e;stroke-width:.69;stroke-miterlimit:22.9256"/>
			<path class="fil8" d="M215.26 316.16c27.98 2.86 26.36-25.37 34.38-34.13 5.78.81 21.67 8.61 28.37 11.24l56.41 23.32c5.96 2.47 23.34 10.53 28.2 11.28l33.25-13.64-26.49-63.06c-11.8 1.82-23.51 14.59-47.61 10.41-8.6-1.49-14.26-5.3-21.96-7.78-9.42-3.03-15.69 1.36-23.38 4.65-6.97 3-13.89 5.76-20.98 8.68-25.73 10.61-22.63 6.29-31.57 27.8-2.78 6.68-6.66 14.55-8.62 21.23z"/>
			<path class="fil9" d="M217.36 267.75c-1.8 7.15-7.64 19.24-10.74 26.57-1.82 4.31-4.31 8.94-2.25 14.16 1.73 4.36 5.5 6.88 10.89 7.68 1.96-6.68 5.84-14.55 8.62-21.23 8.94-21.51 5.84-17.19 31.57-27.8 7.09-2.92 14.01-5.68 20.98-8.68 7.69-3.29 13.96-7.68 23.38-4.65 7.7 2.48 13.36 6.29 21.96 7.78 24.1 4.18 35.81-8.59 47.61-10.41l-1.94-6.13-6.5-15.32c-12.27 4-33.98 18.44-49.63 8.93-4.76-2.89-8.63-15.18-26.72-8.16-12.47 4.84-24.27 10.34-36.61 15.25-33.11 13.16-21.22 8.48-30.62 22.01z"/>
			<path d="M410 186.09c-11.96 5.11-24.2 10.29-36.21 14.97-18.46 7.2-21.48 8.84-12.85 28.66l6.5 15.32c3.73-4.99-.34-6.83 7.51-10.44 3.38-1.55 11.14-3.57 12.64-6.56-.87-11.25-.58-17.13 8.58-21.29 4.07-1.85 9.48-1.75 13.51.26 5.46 2.72 4.5 4.17 7.96 8.02 3.02 2.1 23.35-7.94 26.68-9.28 7.69-3.1 19.48-8.96 26.86-10.92-.34-4.44-2.02-11.06-3.15-15.58-1.38-5.55-2.99-10.02-4.26-15.05L410 186.09z" style="fill:#ff9f22"/>
			<path d="M94.16 241.69c11.57-3.64 16.01 13.51 5.49 17.07-5.6 1.89-10.26-1.29-11.55-5.41-2.08-6.63 1.38-10.19 6.06-11.66zM55.94 300.9c5.63 2.79 12.68 5.64 18.97 8.28 11.33 4.75 10.21 5.37 20.49.52l24.53-57.64c.31-12.33-2.79-13.25-12.42-17.23-5.99-2.47-14.76-6.87-21-8.01L55.94 300.9z" style="fill:#fef4f4"/>
			<path class="fil12" d="M316.84 383.98c7.6 1.42 11.54 6.69 21.53 1.29 4.09-2.22 12.39-11.8 7.66-18.97l.23 2.6c-15.13 4.94-15.3 1.62-28.89-3.74-8.82-3.48-17.14-7.21-26.18-10.88l-52.71-21.6c-8.5-1.63-19.32 10.25-.42 18.11l78.78 33.19zM293.88 412.54c1.08-.98-.29-.79 1.71-.56.38.05 17.53 9.17 25.88-6.53 1.33-2.49 3.26-8.05 1.04-10.1-8.04 8.06-20.05.48-28.08-2.62-13.64-5.26-76.52-32.72-80.97-33.01-5.71-.37-9.91 4.02-9.05 9.97.77 5.32 5.91 6.69 10.15 8.34 9.06 3.56 17.92 7.55 26.89 11.12l40.58 16.84c14.67 6.29 4.87 1.83 11.85 6.55zM341.95 358.02c8.01-.05 11.54 5.08 20.65-.4 2.52-1.51 5.04-4.4 6.24-6.73 1.31-2.55 3.23-8.14.96-10.2-5.61 8.48-21.8.07-28.26-2.49-13.35-5.3-76.84-32.82-80.86-33.05-6.29-.36-17.96 10.38 1.01 18.32 8.95 3.75 17.85 7.58 26.85 11.14l40.73 16.76c2.41.99 4.38 1.75 6.53 2.74 5.17 2.38 1.2 2.83 6.15 3.91z"/>
			<path d="m201.79 70.02-44.87 45.5c-3.87-2.17-10.22-9.65-13.99-13.41-4.53-4.51-11.22-13.25-16.38-10.98-2.69 2.17-2.99 2.42-2.78 7.36 6.82 7.36 13.22 13.37 20.13 20.25 12.67 12.62 11.73 14.66 23.03 3.36 7.02-7.03 13.39-13.36 20.39-20.4 5.69-5.73 15.19-16.38 21.03-20.66 3.14-4.42 7.43-7.81 11.41-11.77 4.29-4.28 8.41-7.01 2.39-13.54-6.01-2.85-15.57 11.42-20.36 14.29z" style="fill:#fff"/>
			<path class="fil12" d="M84.56 336.84c15.22 5.58 24.34 10 33.58 19.91l12.34 14.54c4.09 5.32 7.52 10.08 13.73 13.36 4.73-7.31 3.65-10.15 12.58-13.85-2.66-2.61-5.62-3.34-8.67-6.01-6.36-5.58-14.81-16.27-20.44-22.22-7.98-8.42-26.76-18.27-37.58-20.41l-5.54 14.68z" style="stroke:#b2705b;stroke-width:.69;stroke-miterlimit:22.9256"/>
			<path d="M52.75 306.52c-.15 3.24-7.64 21.5-9.63 24.82 4.92 2.99 10.35 4.74 15.63 6.95 2.65 1.11 5.24 2.16 7.88 3.25 4.2 1.75 5.44 1.44 9.4 2.54l1.33-.91c7.2-3.99 3.03-1.1 7.2-6.33l5.54-14.68 5.3-12.46c-10.28 4.85-9.16 4.23-20.49-.52-6.29-2.64-13.34-5.49-18.97-8.28-1.03 3.01-.69 3.66-3.19 5.62z" style="fill:#d2d2d8"/>
			<path d="M21.66 335.49c9.93 3.18 16.46 6.24 21.46-4.15 1.99-3.32 9.48-21.58 9.63-24.82l-.34.32c-10.33 4.53-13.15 1.22-23.13-3.03-7.35-3.12-14.9-6.11-22.45-9.22l14.83 40.9z" style="fill:#d63030;stroke:#d63030;stroke-width:.69;stroke-miterlimit:22.9256"/>
			<path class="fil9" d="M156.79 370.8c-8.93 3.7-7.85 6.54-12.58 13.85-1.75 6.53-7.47 14.09-4.42 20.84 2.3 5.09 11.79 9.65 18.46 10.74-2.48-4.17-4.58-8.24-2.36-14.17 1.65-4.43 4.18-8.22 4.81-13.14-7.92-5.46-2.38-14.38.96-19.18l-4.87 1.06zM185.25 385.77l-5.56 3.84c-.07-.16-.4.15-.6.23l-.96 1.41c-.72 1.93.39 1.04-3.32 10.26-1.5 3.72-3.28 7.8-4.65 10.22 1.39 6.1 1.09 9.14 5.88 12.24 2.33 1.51 10.57 4.64 13.61 5.35-1.75-3.74-2.38-3.18-2.97-5.85-.75-3.36-.26-5.38.86-8.26 1.66-4.3 4.39-8.42 4.67-13.31-6.61-4.42-3.61-12.51.05-17.09l1.59-1.91c-4.24.72-5.65.77-8.6 2.87zM242.25 416.75l-4.36 11.7c-.78 1.87-1.31 3.41-2.2 5.2-.42.83-.8 1.44-1.34 2.17-.15.21-.74.89-.86 1.04l-.91 1.24c2.19 0 .75 4.5 2.39 7.61 1.06 2.02 3.26 3.59 4.76 4.52 3.38 2.08 9.76 4.41 13.64 5.47-7.62-10.14-1.25-16.39 2.55-26.75-7.11-6.29-4.37-12.51.17-19.64-9.71 1.54-7.26 3.29-13.84 7.44zM210.82 403.5c-2.38 1.82-.53-.13-1.46 3.1-1.5 5.2-4.63 14.14-7.34 18.24.42 6.34 1.21 9.26 5.47 12.16 1.88 1.28 10.78 4.69 13.54 5.44-2.95-8.16-6.35-6.54 3.33-26.57-7.36-6.52-4.37-10.93-.29-19.45-9.1 1.03-8.25 5.08-13.25 7.08z"/>
			<path class="fil16" d="M270.06 105.67c8.2 0 23.16 1.58 28.94-1.79l-.28-5.72c-5.48-3.36-20.47-1.78-28.66-1.78-8.2 0-23.17-1.57-28.96 1.77l.29 5.75c5.53 3.34 20.45 1.77 28.67 1.77z"/>
			<path d="M399.73 212.82c11.57-4 16.17 13.56 6.43 16.93-12.14 4.2-17.75-13.01-6.43-16.93zm-12.14 15.22c2.68 2.71 3.58 5.36 7.57 7.41 3.68 1.9 8.68 2.39 12.94.87 8.31-2.96 11.63-11.1 9.54-21.29-3.46-3.85-2.5-5.3-7.96-8.02-4.03-2.01-9.44-2.11-13.51-.26-9.16 4.16-9.45 10.04-8.58 21.29z" style="fill:#fede90"/>
			<path class="fil8" d="M192.21 401.9c-.28 4.89-3.01 9.01-4.67 13.31-1.12 2.88-1.61 4.9-.86 8.26.59 2.67 1.22 2.11 2.97 5.85 5.65 1.83 9.11-1.32 12.37-4.48 2.71-4.1 5.84-13.04 7.34-18.24.93-3.23-.92-1.28 1.46-3.1-.24-2.9-.14-5.93-1-8.69-.7-2.21-1.94-5.5-3.22-6.9-.31 4.11 1.25 2.16-.4 6.94-.41 1.19-1.58 4.17-2.29 5.21-2.42 3.53-7.6 3.73-11.7 1.84zM224.36 415.87c-9.68 20.03-6.28 18.41-3.33 26.57 1.47.41 4.2.68 6.62-.08.98-.31 2.27-.96 3.06-1.6 2.43-1.97 1.02-.72 1.87-2.66l.91-1.24c.12-.15.71-.83.86-1.04.54-.73.92-1.34 1.34-2.17.89-1.79 1.42-3.33 2.2-5.2l4.36-11.7c.1-3.18.29-6.04-.78-9.05-.52-1.46-1.07-2.27-1.71-3.86-1.19-2.94.04-1.24-1.6-3.14.08 5.5 1.15 6.23-2.47 11.61-2.37 3.51-5.69 4.67-11.33 3.56zM255.92 428.95c-3.8 10.36-10.17 16.61-2.55 26.75 11.3 1.81 13.86-7.85 16.96-16.7 3.05-4.75 4.17-10.89 3.24-17.53-1.56-2.7-.42-2.23-3.05-4.11-1.99 8.02-4.03 13.65-14.6 11.59zM160.7 388.92c-.63 4.92-3.16 8.71-4.81 13.14-2.22 5.93-.12 10 2.36 14.17 5.21 1.73 10.22-1.56 11.91-4.5 1.37-2.42 3.15-6.5 4.65-10.22 3.71-9.22 2.6-8.33 3.32-10.26l.96-1.41-.13-6.56c-1.48-3.2-.96-3.68-3.38-6.47-.61 7.87-5.81 17.18-14.88 12.11z"/>
			<path class="fil12" d="M273.57 421.47c.93 6.64-.19 12.78-3.24 17.53 8.16 1.47 12.12 5.98 21.15.46 4.11-2.51 11.76-11.51 7.29-18.48l.03 2.43c-12.05 5.72-14.41 1.27-25.23-1.94z"/>
			<path class="fil16" d="M241.39 125.22c5.12 3.1 36.47 3.1 41.85-.02l-.28-5.72c-5.07-3.11-36.48-3.11-41.86-.02l.29 5.76z"/>
			<path class="fil18" d="M256.09 409.31c-4.54 7.13-7.28 13.35-.17 19.64 10.57 2.06 12.61-3.57 14.6-11.59.69-10.02-6.17-11.73-14.43-8.05zM161.66 369.74c-3.34 4.8-8.88 13.72-.96 19.18 9.07 5.07 14.27-4.24 14.88-12.11.35-8.58-7.09-10.48-13.92-7.07zM224.07 396.42c-4.08 8.52-7.07 12.93.29 19.45 5.64 1.11 8.96-.05 11.33-3.56 3.62-5.38 2.55-6.11 2.47-11.61-.21-7.65-8.23-7.53-14.09-4.28zM193.85 382.9l-1.59 1.91c-3.66 4.58-6.66 12.67-.05 17.09 4.1 1.89 9.28 1.69 11.7-1.84.71-1.04 1.88-4.02 2.29-5.21 1.65-4.78.09-2.83.4-6.94-.21-6.58-7.26-9.09-12.75-5.01z"/>
			<path class="fil16" d="M272.24 83.6c.19-3.49 2.85-1.48.03-7.9-7.65-.82-25.15-2.12-31.17 1.13l.29 5.75c5.49 3.32 23.65 2.12 30.85 1.02z"/>
			<path d="M94.16 241.69c-4.68 1.47-8.14 5.03-6.06 11.66 1.29 4.12 5.95 7.3 11.55 5.41 10.52-3.56 6.08-20.71-5.49-17.07z" style="fill:#a6aee5"/>
			<path d="M399.73 212.82c-11.32 3.92-5.71 21.13 6.43 16.93 9.74-3.37 5.14-20.93-6.43-16.93z" style="fill:#ffc14f"/>
			<path class="fil12" d="M179.09 389.84c.2-.08.53-.39.6-.23l5.56-3.84c-.84-1.88-.36-2.15-3.22-3.16-4.49-1.57-1.99-.73-3.07.67l.13 6.56z"/>
		</g>
	</g>
</svg>