<svg version="1.1" id="Capa_1" xmlns="http://www.w3.org/2000/svg" xmlns:xlink="http://www.w3.org/1999/xlink" x="0px" y="0px" viewBox="0 0 512 512" width="24px" height="24px" style="enable-background:new 0 0 512 512;" xml:space="preserve">
	<path style="fill:#5A6482;" d="M512,256c0,141.385-114.615,256-256,256S0,397.385,0,256S114.615,0,256,0S512,114.615,512,256z"/>
	<path style="fill:#323750;" d="M511.949,260C509.809,399.538,396.048,512,256,512S2.191,399.538,0.051,260H511.949z"/>
	<path style="fill:#E6FAFF;" d="M440,85v320c0,2.761-2.239,5-5,5H55c-2.761,0-5-2.239-5-5V85c0-2.761,2.239-5,5-5h380
	C437.761,80,440,82.239,440,85z"/>
	<g>
		<path style="fill:#AFEBD2;" d="M210,280v-10h-5v-60H100v-20h105v-50H100c-5.523,0-10-4.477-10-10c0-5.523,4.477-10,10-10h105h20
		h105c5.523,0,10,4.477,10,10c0,5.523-4.477,10-10,10H225v50h105v20H225v50h105v20H210z M345,360H235c-2.761,0-5,2.239-5,5v10
		c0,2.761,2.239,5,5,5h110c2.761,0,5-2.239,5-5v-10C350,362.239,347.761,360,345,360z M345,320H235c-2.761,0-5,2.239-5,5v10
		c0,2.761,2.239,5,5,5h110c2.761,0,5-2.239,5-5v-10C350,322.239,347.761,320,345,320z"/>
		<path style="fill:#AFEBD2;" d="M480,75v57.004V205v174.996c-12.339,22.242-27.89,42.452-46.033,60.004H405
		c-13.807,0-25-11.193-25-25V205V75l0,0c0-3.452,0.699-6.74,1.965-9.731c0.474-1.122,1.028-2.201,1.655-3.232
		c0.417-0.687,0.867-1.353,1.347-1.995c0.72-0.963,1.508-1.871,2.356-2.72c0.565-0.565,1.158-1.104,1.775-1.614
		C393.419,52.142,398.959,50,405,50h2.992H455C468.807,50,480,61.193,480,75z"/>
	</g>
	<path style="fill:#5AB9C3;" d="M150,115v30c0,2.761-2.239,5-5,5H85c-2.761,0-5-2.239-5-5v-30c0-2.761,2.239-5,5-5h60
	C147.761,110,150,112.239,150,115z M345,180h-60c-2.761,0-5,2.239-5,5v30c0,2.761,2.239,5,5,5h60c2.761,0,5-2.239,5-5v-30
	C350,182.239,347.761,180,345,180z"/>
	<path style="fill:#FF876E;" d="M345,150h-60c-2.761,0-5-2.239-5-5v-30c0-2.761,2.239-5,5-5h60c2.761,0,5,2.239,5,5v30
	C350,147.761,347.761,150,345,150z"/>
	<path style="fill:#82D2AF;" d="M250,115v30c0,2.761-2.239,5-5,5h-60c-2.761,0-5-2.239-5-5v-30c0-2.761,2.239-5,5-5h60
	C247.761,110,250,112.239,250,115z M145,180H85c-2.761,0-5,2.239-5,5v30c0,2.761,2.239,5,5,5h60c2.761,0,5-2.239,5-5v-30
	C150,182.239,147.761,180,145,180z M345,250h-60c-2.761,0-5,2.239-5,5v30c0,2.761,2.239,5,5,5h60c2.761,0,5-2.239,5-5v-30
	C350,252.239,347.761,250,345,250z"/>
	<path style="fill:#3CAF96;" d="M190.251,196.464l21.213-21.213c1.953-1.953,5.118-1.953,7.071,0l21.213,21.213
	c1.953,1.953,1.953,5.118,0,7.071l-21.213,21.213c-1.953,1.953-5.118,1.953-7.071,0l-21.213-21.213
	C188.299,201.583,188.299,198.417,190.251,196.464z"/>
	<path style="fill:#96E1BE;" d="M471.423,394.313c-10.711,16.649-23.289,31.981-37.456,45.687H433h-28c-13.807,0-25-11.193-25-25V250
	V75c0-13.807,11.193-25,25-25h2.992c2.812,2.079,5.578,4.217,8.3,6.406C411.203,60.983,408,67.616,408,75v179.889
	c0,52.213,21.731,102.36,60.732,137.075C469.621,392.755,470.518,393.538,471.423,394.313z"/>
	<path style="fill:#E6FAFF;" d="M455,100h-50c-13.807,0-25-11.193-25-25l0,0c0-13.807,11.193-25,25-25h50c13.807,0,25,11.193,25,25
	l0,0C480,88.807,468.807,100,455,100z"/>
	<path style="fill:#96E1BE;" d="M450,85h-40c-5.523,0-10-4.477-10-10l0,0c0-5.523,4.477-10,10-10h40c5.523,0,10,4.477,10,10l0,0
	C460,80.523,455.523,85,450,85z"/>
	<path style="fill:#EBB410;" d="M313.871,409.775v11.691H9.511v-11.691c0-82.843,67.157-150,150-150h4.36
	C246.714,259.775,313.871,326.932,313.871,409.775z"/>
	<path style="fill:#FFE13C;" d="M323.382,412.444V440c0,5.523-4.477,10-10,10H10c-5.523,0-10-4.477-10-10v-27.556
	c0-5.523,4.477-10,10-10h303.382C318.905,402.444,323.382,406.921,323.382,412.444z M147.424,373.91h28.534
	c5.253,0,9.511-4.258,9.511-9.511v-99.397c0-5.142-4.086-9.332-9.224-9.512c-1.674-0.059-3.355-0.088-5.043-0.088H152.18
	c-1.688,0-3.369,0.03-5.042,0.088c-5.138,0.18-9.224,4.371-9.224,9.512v99.397C137.913,369.652,142.171,373.91,147.424,373.91z
	 M61.823,373.91h28.534c5.253,0,9.511-4.258,9.511-9.511V271.01c0-2.733-2.808-4.6-5.308-3.495
	c-14.485,6.404-27.7,15.152-39.175,25.756c-1.956,1.808-3.074,4.349-3.074,7.013v64.115C52.312,369.652,56.57,373.91,61.823,373.91z
	 M233.025,373.91h28.534c5.253,0,9.511-4.258,9.511-9.511v-64.115c0-2.664-1.118-5.205-3.074-7.013
	c-11.474-10.605-24.69-19.352-39.175-25.756c-2.5-1.105-5.308,0.762-5.308,3.495v93.389
	C223.514,369.652,227.772,373.91,233.025,373.91z"/>
</svg>
