<svg xmlns="http://www.w3.org/2000/svg" xml:space="preserve" width="24px" height="24px" style="shape-rendering:geometricPrecision;text-rendering:geometricPrecision;image-rendering:optimizeQuality;fill-rule:evenodd;clip-rule:evenodd" viewBox="0 0 23902.5 24987.44">
	<defs>
		<style>.str0,.str1,.str3{stroke:#4f66d0;stroke-width:36.83;stroke-miterlimit:22.9256}.str0,.str1{stroke:#6c7fd8}.str1{stroke:#a0ade4}.fil5{fill:#4f66d0}.fil0{fill:#6b7ed7}.fil2{fill:#6c7fd8}.fil1{fill:#a0ade4}.fil3{fill:#b2d9fe}.fil13{fill:#f4f6f9}.fil10{fill:#fefefe}</style>
	</defs>
	<g id="Camada_x0020_1">
		<path class="fil0 str0" d="m20920.54 20925.32-17933.27 1.33c154.25 223.14 572.56 593.87 791.88 813.92 268.83 269.72 568.33 517.13 864.47 743.68 2019.1 1544.58 4439.4 2484.78 7310.29 2484.78 1575.98 0 2675.71-211.5 4112.32-712.12 429.09-149.54 760.66-315.83 1165.49-491.37 997.43-432.51 3145.15-2039.47 3688.82-2840.22z"/>
		<path class="fil1 str1" d="M19397.28 5868.06c-332.79.7-1004.14 44.57-1246.65-58.38-94.53-221.03-94.33-933.09-.61-1154.56 236.2-99.96 915.13-58.12 1243.41-57.95 354.43 1.34 1433.68-65.52 1673.29 53.44 170.27 199.85 159.79 886.5 45.73 1118.15-243.92 207.49-1332.75 98.21-1715.17 99.3zm0-1949.27c-332.79.7-1004.14 44.57-1246.65-58.38-94.53-221.03-94.33-933.09-.61-1154.56 236.2-99.96 915.13-58.12 1243.41-57.95 354.43 1.34 1433.68-65.52 1673.29 53.44 170.27 199.85 159.79 886.5 45.73 1118.15-243.92 207.49-1332.75 98.21-1715.17 99.3zm-2080.35-1561.25v4922.37h-639.1c.5-294.14 59.92-786.94-52.6-1023.84-276.07-226.27-1477.2-74.77-1907.92-104.86-195.37 140.01-356.6 354.1-579.95 533.37-222.04 178.21-431.52 354.85-562.18 607.79l4567.63 41.75c335.83 35.3 1227.83 42.87 1556.72 5.17-112.1-67.05-10.53-32.95-189.96-47.14-70.11-5.54-183.73 1.09-258.5.79l-1158.92-.57c0-236.53-17.84-509.05 57.86-687.99 236.2-99.96 915.13-58.12 1243.41-57.95 354.43 1.34 1433.68-65.52 1673.29 53.44 170.27 199.83 159.79 886.5 45.73 1118.13-223.27 189.94-902.06 139.31-1203.85 70.83l-1.14 660.15c56.81 53.06 13.65 11.75 93.64 58.14 120.7 70.02 17.92-21.8 114.21 63.83 199.76 12.36 221.6 37.92 222.76 461.96 1.22 443.87 1.05 490.96-222.19 512.62-77.59 68.34 34.44-21.47-84.38 46.79-128.12 73.57-20.96-21.31-123.94 74.95l5.8 822.89c230.82 8.36 226.35 12.03 378.65 89.39 40.39 168.39 65.97 491.96 39.67 694.92-34 262.44-154.58 275.3-424.11 286.88v896.24c248.04 10.31 281.1-15.56 402 168.74 41.1 168.14 49.32 449.2 20.11 644.09-36.81 245.74-144.93 245.87-411.39 254.78l-12.1 820.31c10.39 9.01 27.9 5.99 32.74 21.79 38.73 126.53 22.32-36.09 168.61 101.88 97.6 7.44 143.77-40.35 208.5 137.75 25.08 69.02 21.8 241.69 22.12 322.39 1.14 300.73 48.8 457.96-213.7 516.71-136.81 108.74-72.1-7.61-216.9 117.81v825.69c216.24 8.71 243 20.81 382.53 90.09 43.46 169.63 67.33 485.22 42.04 691.69-32.87 268.37-150.81 277.71-424.57 290.43v1717.71l2033.13-11.6-.87-12668.12c41.29-1275.91 4.05-2900.11 4.07-4239.65 0-559.47 99.52-984.61-296.82-1165.13-288.92-131.58-2261.34-53.17-2773.28-53.17-1525.32 0-1587.14-178.23-1556.87 1315.77z"/>
		<path class="fil2 str0" d="M5356.65 16439.9c541.09 1.34 594.55-28.14 621.97 289.59 7.38 85.73-2.49 250.14-2.78 344.94-2.19 734.75 96.77 668.97-633.56 695.91-101.45.15-209.57 5.03-309.29 3.98-293.31-3.06-266.53-17.09-328.28-83.2-123.22-141.58-128.27-1046.33 6.39-1180.3 128.25-130.48 287.12-70.73 645.54-70.92zm1803.06 0c631.64 1.58 668.36-131.01 630.11 979.09-13.94 404.46-79.87 330.65-632.67 351.15-215.45.59-481.39 42.67-663.13-62.13-106.72-211.03-65.17-1008.59-16.17-1242.23l681.86-25.87zm520.19-1789.23c168.91 34.49 107.12 400.17 106.26 571.9-1.14 224.3 6.43 425.53-18.77 649.39-68.14 53.79-45.1 6.21-128.41 10.07-105.87 84.03-429.86 52.01-607.68 55.98-75.41 1.68-272.39 9.13-337.04-.2-86.76-12.54-35.01 2.47-110.27-31.47-266.09-119.94-126.13-1180.37-97.51-1278.64 145.71-44.16 1020.58-82.67 1193.43 22.96zm-1808.42 1.68c171.62 61.1 104.1 431.77 104.31 619.1.11 101.38 13.22 310.3 4.68 396.93-25.6 259.04 14.22 193.6-147.93 211.82-90.51 77.97-841.62 70.64-941.67 58.03-87.94-11.09-31.66 3.7-112.7-28.01-267.67-104.75-128.28-1189.8-102.85-1288.12 127.69-32.15 1025.88-81.51 1196.17 30.26zm1783.27-1847.67c206.55 53.26 131.43 381.61 131.38 614.96-.04 185.26 76.22 581.7-125.17 616.43-109.46 72.63-435.84 55.1-580.35 58.3-202.65 4.48-431.02 8.42-587.65-39.5-77.75-225.33-78.1-1044.61 1.27-1268.92 147.88-42.98 1002.07-89.72 1160.52 18.73zm-1806.67 1.68c163.77 9.45 124.73 1.44 132.83 265.5l-.55 745.67c-20.17 259.4 26.54 208.71-127.03 216.86l-140.42 47.72c-31.18 4.92-104.36 6.32-138.73 7.4-243.88 7.7-699.52 21.38-891.51-29.94-71.64-215.54-72.34-1065.24 2.06-1277.83 173.49-44.68 998.94-96.74 1163.34 24.62zm1291.66-1899.14c219.09 13.94 427.61-20.42 587.07 62.37 137.29 237.53 59.69 769.43 58.54 1085.55-55.17 243.25-8.47 76.79-90.05 117.03-65.06 75.76 103.02 46.39-127.25 75.27-343.05 0-794.01 53.24-1083.05-33.07-51.27-186.35-95.47-1068.44 19.35-1211.96 125.36-148.34 368.19-98.71 635.38-95.19zm-1806.93-.11c222.48 14.59 432.35-26.11 584.04 70.62 73.64 118.25 146.2 1206.43-39.61 1210.41-220.57 142.1-160.71 55.52-161.62 55.67-27.03 4.57-112.26 7.22-142.78 7.92l-899.39-31.69c-58.56-241.65-153.35-1190.56 127.11-1290.94 13.79-4.95 25.78-9.21 40.96-13.17l491.29-8.82zm16.67-1832.33c553.52 12.15 616.26-38.73 630.22 344.89 40.63 1116.31 19.12 972.09-630.22 986.33-161.86-.11-398.35 24.81-545.38-19.04-324.6-96.81-174.29-1156.03-96.42-1237.13 129.54-134.9 465.88-74.92 641.81-75.04zm1807.69.18c457.15 9.34 617.53-71.86 632.69 345.15l-23.57 822.74c-60.94 217.05-271.91 156.09-609.12 162.98-211.85.15-479.32 43.59-660.66-56.3-88.05-168.61-88.38-1049.79-.18-1218.29 181.63-99.81 448.85-56.44 660.85-56.28zm-4164.14 8.1 546.89-6.81c666.94 8.34 623.81-46.44 625.62 688.58 1.69 684.03 24.86 631.57-625.62 639.71l-546.89-6.83 215.34 98.03v341.11c-32.95.15-104.34-2.27-132.17 5.17-267.12 71.4-67.25-5.84-186.13 87.92l632.51-23c113.59 7.51 243.68-.33 345.55 8.05 197.4 16.22 112.1-27.81 238.13 72.74 88.25 94.05 84.82 1026.75 30.86 1139.97-55.28 116.02 62.41 46.92-69.06 58.41-148.39 103.94-582.62 63.07-859.7 65.8v492.51c154.99 1.8 310.16 6.1 464.54 8.6 61.38.99 180.77-.5 235.89 7.85 109.06 16.52 76.28 2.67 132.06 47.35 152.22 20.39 41.01-48.86 105.98 88.06l18.62 523.34c-.11 592.18 59.8 586.08-119.89 612.67-97.86 76.87 23.5 32.87-179.41 54.22-39.43 4.14-146.88 2.5-193.44 3.15-154.34 2.15-309.46 6.15-464.35 7.9v490.74l702.89 10.79c14.86 2.43 29 6.06 41.86 8.91l109.48 46.37c48.19 4.11 99.5-71.36 107.14 269.39 2.45 109.24-4.46 235.28-4.27 347.74.96 594.05 54.82 574.72-138.82 606.76-124.62 115.74-607.9 58.84-818.28 61.6v498.72l336.77 1.03c647.98 2.73 622.38-35.06 620.41 634.81-2.21 761.43 35.67 673.83-634.51 694.75l-579.91-8.45 257.25 93.5v1311.79l260.51 1.55 5189.48 19.01V8887.6c0-860 120.66-1130.06-385-1141.37-86-288.17 112.67-928.21-82.78-1193.03l-8.82 1188.97c-877.47 0-4359.15-99.87-4911.49 63.66-101.53 272.87-61.9 832.54-56.79 1197.37l-220.44 79.87z"/>
		<path class="fil0 str0" d="m14270.45 19166.75 5637.11 12.69v-1717.71c-1436.46-53.11-3405.69-5.08-4935.12-2.95-325.48.46-457.61-4.51-481.68-333.44-21.49-293.57-11.75-486.08 85.47-685.91 474.06-118.43 4428.39-18.18 5331.33-49.93v-825.69c144.8-125.41 80.09-9.06 216.9-117.81-181.74-12.03-606.69 41.31-860.81 40.92l-4240.94 2.08c-297.52 2.17-507.28-2.91-532.38-312.57-19.83-244.54-47.22-543.69 128.87-703.48 235.98-147.22 5448.03 4.18 5488.33-3.79-146.29-137.97-129.89 24.66-168.61-101.88-4.84-15.8-22.36-12.78-32.74-21.79l12.1-820.31c-882.19-27.27-4893.72 64.88-5348.63-47.9-90.92-194.41-115.04-593.81-54.34-849.19 187.93-285.55 867.16-164.14 1239.67-164.14 1248.31 0 3020.68 46.81 4152.58-6.39v-896.24c-1183.19-49.81-2918.85-5.71-4201.33-5.71-366.4 0-1009.92 116.66-1192.71-167.95-57.6-263.09-37.35-650.39 59.7-848.03 443.52-115.08 4464.98-19.63 5340.14-49.5l-5.8-822.89c102.98-96.26-4.18-1.38 123.94-74.95 118.82-68.27 6.8 21.55 84.38-46.79-122.23-14.49-496.76 43.53-706.02 42.32-793.92-4.59-4643.21 54.71-4797.07-43.61-168.21-166.22-154.03-507.56-118.06-752.23 41.9-285.09 300.27-267.16 577.3-264.52l4240.37 1.31c206.22-.63 695.16 55.08 802.93 42.15-96.3-85.63 6.48 6.19-114.21-63.83-80-46.39-36.83-5.08-93.64-58.14l1.14-660.15c2.63-267.36 22.74-407.36-209.06-449.53-328.89 37.7-1220.89 30.13-1556.72-5.17l-4567.63-41.75-59.3 81.97c295.37-89.43 663.02-43.96 974.91-37.83-130.18 209.77-219.24 229.75-223.46 573.91-44.66 3641.21 3.11 7602.88 3.11 11256.31z"/>
		<path class="fil1 str1" d="M7278.87 6354.29c363.97 1.03 793.46-99.59 911.69 198.89 195.45 264.82-3.22 904.86 82.78 1193.03 505.66 11.31 385 281.37 385 1141.37v10298.97l3243.63-18.71V17414.5c-370.87-1.75-1497.49 69.26-1751.13-53.76-150.88-183.48-143.68-662.91-43.06-871.03 251.98-208.54 1402.56-94.47 1794.19-96.33v-684.49c-393.97-1.86-1539.35 112.39-1793.88-96.33-100.22-208.67-109.04-688.08 42.74-871.51 253.46-122.58 1381.11-51.53 1751.13-53.28v-684.49c-393.97-1.86-1539.35 112.39-1793.88-96.33-100.22-208.67-109.04-688.08 42.74-871.51 253.46-122.58 1381.11-51.53 1751.13-53.28v-684.49c-393.97-1.86-1539.35 112.39-1793.88-96.33-100.22-208.67-109.04-688.08 42.74-871.51 253.46-122.58 1381.11-51.53 1751.13-53.28v-684.48c-393.97-1.88-1539.35 112.37-1793.88-96.35-100.22-208.67-109.04-688.08 42.74-871.51 242.9-117.47 1050.52-58.38 1373.57-48.64-94.73-387.36-532.88-1333.91-714.16-1640.27-324.23-547.9-679.63-909.29-1072.61-1267.61-775.15-706.81-1508.28-1530.75-1472.26-3137.41-287.97 0-720.75-79.37-933.93 94.27-127.71 265.08-52.58 2265.76-52.58 2729.73z"/>
		<path class="fil3" d="m1720.25 19176.51 244.08-6.02V8838.85c-.02-847.82-120.22-1093.73 412.18-1103.75 0-285.37-95.58-929.44 47.29-1118.63l7.53-185.58c263.73-116.41 502.05-76.74 848.87-77.2 0-434.04-125.34-1163.54 389.22-1162.9 513.87.64 389.42 728.36 389.42 1162.93h488.38c0-389.9 1.64-780.15-.39-1169.99-1.9-365.68-19.19-773.17 389.6-772.65 407.52.52 391.74 406.62 389.82 772.63-2.04 389.86-.41 780.11-.41 1170.01l1953.01.55c0-463.97-75.14-2464.65 52.58-2729.73 213.18-173.64 645.97-94.27 933.93-94.27 33.48-423.29 102.37-788.87 246.83-1155.42 166.42-422.29 351.85-620.3 521.04-943.23-485.11 109.54-1497.05 455.26-1953.06 681.69l-616.19 309.7c-2264.8 1158.79-4167.09 3082.11-5270.8 5401.44-1256.19 2639.8-1624.41 5851.39-599.98 8915.12 216.38 647.18 732.8 1939.14 1127.04 2436.92z"/>
		<path d="M12523.61 5160.05c-73.63 80.42 77.77 13.15-155.41 97.71-45.8 16.61-149.57 33.77-200.49 40.81-1485.78 205.41-2560.12-1677.84-1210.19-2864.23 320.88-282 1051.92-479.86 1532.5-241.58 560.94 180.97 1056.8 737.2 1065.79 1481.99 4.6 381.89-127.77 707.7-298.08 961.19-139.11 207.05-448.63 497-734.12 524.11zm-836.9-5141.63h335.07c1184.13 45.21 2050.85 458.64 2854.16 1413.22 84.18 171.69 198.34 304.15 300.19 480.39 317.97 550.22 485.99 1291.29 455.42 1956.65-21.68 471.3-133.66 901.3-293.31 1289.19-79.59 193.4-167.47 343.38-272.44 505.97-112.11 173.68-246.57 322.57-348.5 487.37-195.37 140.01-356.6 354.1-579.95 533.37-222.04 178.21-431.52 354.85-562.18 607.79l-59.3 81.97c-83.33 28.49-93.94 59.57-171.4 171.87-51.69 74.95-75.14 120.9-132.57 216.05l-78.49 150.42c-164.47 122.61-238.63 413.49-344.13 592.97-24.55-25.75-31.21-31.12-67.05-90.75-5.8-9.65-12.98-22.32-18.56-32.61l-72.43-173c-862.13-2141.07-1978.22-2041.01-2624.31-3563.96-372.84-878.84-410.93-1871.64-54.75-2778.95 482.53-1229.16 1198.24-1509.54 1455.95-1799.25l278.57-48.73z" style="fill:#fd646f;stroke:#fd646f;stroke-width:36.83;stroke-miterlimit:22.9256"/>
		<path class="fil5 str3" d="M2423.8 6616.47c-142.87 189.18-47.29 833.26-47.29 1118.63-532.4 10.02-412.2 255.92-412.18 1103.75v10331.64l1244.02-4.49v-1311.79l-257.25-93.5-97.07-64.12c-28.62-268.3-14.64-545.18-18.07-819.08-5.05-402.94-32.8-432.24 372.38-438.94v-498.72c-502.03-13.63-370.71-156.46-370.4-668.42.31-509.62-141.21-673.9 370.4-683.15v-490.74c-510.19-10.57-370.28-142.69-370.36-677.94-.07-531.31-138.28-664.4 370.36-675.19v-492.51c-461.22-8.18-375.4-65.12-370.98-537.3 2.39-257.76-31.93-590.98 52.69-784.68 118.87-93.75-80.99-16.52 186.13-87.92 27.83-7.44 99.22-5.03 132.17-5.17v-341.11l-215.34-98.03-152.67-58.08 11.8-1199.36 140.86-57.2 220.44-79.87c-5.1-364.83-44.73-924.51 56.79-1197.37 552.34-163.53 4034.02-63.66 4911.49-63.66l8.82-1188.97c-118.23-298.48-547.72-197.86-911.69-198.89l-1953.01-.55H4058.82l-254.43.13c-223.79 223.71-187.71 190.69-184.88 583.32 1.95 269.05 1.25 538.14 1.38 787.82l-1168.24-5.3-28.88-1103.23z"/>
		<path class="str1" d="M13133.43 7912.7c114.49 80.11 57.62 462.75 57.4 633.72l-.02 10623.48-1288.84-2.06-3243.63 18.71-5189.48-19.01c103.53 215.21 351.92 490.17 495.27 682.89 201.82 271.34 432.6 297.45 874.47 295.92 1662.92-5.78 16174.77-53.66 16715.43 17.11 133.61-249.57 567.92-750.37 633.52-991.82l-246.86-3.81-2033.13 11.6-5637.11-12.69-1059.29 2.96.76-11407.43-78.49 150.42z" style="fill:#bdc6ed"/>
		<path class="fil3" d="m21940.69 19167.84 246.86 3.81c433.49-511.33 1048.7-2100.87 1247-2799.41 667.81-2352.52 621.84-4826.71-144.56-7125.15-183.99-551.79-891.78-2254.32-1350.17-2747.37l.87 12668.12z"/>
		<path d="m2987.27 20926.65 17933.27-1.33c63.5-47.42 251.6-275.35 320.56-362.72 108.62-137.58 211.39-285.55 312.94-399.14-540.67-70.77-15052.51-22.89-16715.43-17.11-441.87 1.53-672.65-24.58-874.47-295.92-143.35-192.72-391.74-467.69-495.27-682.89l-260.51-1.55-1244.02 4.49-244.08 6.02c72.59 253.88 1067.78 1597.69 1267.02 1750.14z" style="fill:#a2aee6"/>
		<path d="M9033.24 1431.64c-169.19 322.94-354.61 520.94-521.04 943.23-144.45 366.55-213.35 732.14-246.83 1155.42-36.02 1606.66 697.11 2430.6 1472.26 3137.41 392.97 358.31 748.38 719.7 1072.61 1267.61 181.28 306.36 619.43 1252.91 714.16 1640.27 108.03 169.35 119.19 383.91 295.28 474.81 232.65 120.11 369.49-81.03 469.67-232.92l499.93-1311.81c-24.55-25.75-31.21-31.12-67.05-90.75-5.8-9.65-12.98-22.32-18.56-32.61l-72.43-173c-862.13-2141.07-1978.22-2041.01-2624.31-3563.96-372.84-878.84-410.93-1871.64-54.75-2778.95 482.53-1229.16 1198.24-1509.54 1455.95-1799.25-498.38 0-1024.56 280.51-1370.83 471.26-377.84 208.13-746.74 579.8-1004.06 893.24z" style="fill:#fd4755"/>
		<path class="fil5" d="m13211.92 7762.28-.76 11407.43 1059.29-2.96c0-3653.44-47.77-7615.1-3.11-11256.31 4.22-344.15 93.28-364.13 223.46-573.91-311.89-6.13-679.54-51.6-974.91 37.83-83.33 28.49-93.94 59.57-171.4 171.87-51.69 74.95-75.14 120.9-132.57 216.05z"/>
		<path class="fil3" d="m12789.29 8505.67-499.93 1311.81c18.95 465.2 126.57 768.75-387.39 774.6v684.48c429.62 4.88 397.5 133.92 396.2 535.82-1.25 383.34 6.43 480.71-396.2 485.29v684.49c429.62 4.88 397.5 133.92 396.2 535.82-1.25 383.34 6.43 480.71-396.2 485.29v684.49c429.62 4.88 397.5 133.92 396.2 535.82-1.25 383.34 6.43 480.71-396.2 485.29v684.49c402.83 4.59 394.93 101.32 396.18 485.29 1.33 401.33 33.24 530.94-396.18 535.82v1753.34l1288.84 2.06.02-10623.48c.22-170.97 57.09-553.61-57.4-633.72-164.47 122.61-238.63 413.49-344.13 592.97z"/>
		<path d="M14717.31 6151.22c430.73 30.09 1631.85-121.41 1907.92 104.86 112.52 236.9 53.09 729.7 52.6 1023.84h639.1V2357.55c-688.69-353.45-1600.46-733.59-2440.99-925.91 84.18 171.69 198.34 304.15 300.19 480.39 317.97 550.22 485.99 1291.29 455.42 1956.65-21.68 471.3-133.66 901.3-293.31 1289.19-79.59 193.4-167.47 343.38-272.44 505.97-112.11 173.68-246.57 322.57-348.5 487.37z" style="fill:#b3dafd"/>
		<path class="fil5 str3" d="M19907.56 11561.35c269.53-11.58 390.12-24.44 424.11-286.88 26.3-202.96.72-526.52-39.67-694.92-152.3-77.36-147.82-81.03-378.65-89.39-875.15 29.87-4896.61-65.58-5340.14 49.5-97.05 197.64-117.31 584.94-59.7 848.03 182.79 284.61 826.31 167.95 1192.71 167.95 1282.47 0 3018.13-44.11 4201.33 5.71zM20115.88 9545.53c223.24-21.66 223.4-68.75 222.19-512.62-1.16-424.04-23-449.6-222.76-461.96-107.77 12.93-596.71-42.78-802.93-42.15l-4240.37-1.31c-277.03-2.63-535.4-20.57-577.3 264.52-35.97 244.67-50.15 586.01 118.06 752.23 153.86 98.32 4003.15 39.02 4797.07 43.61 209.26 1.22 583.8-56.81 706.02-42.32zM19907.56 17461.73c273.77-12.73 391.7-22.06 424.57-290.43 25.28-206.48 1.42-522.07-42.04-691.69-139.54-69.28-166.29-81.38-382.53-90.09-902.94 31.75-4857.28-68.51-5331.33 49.93-97.22 199.83-106.96 392.35-85.47 685.91 24.07 328.92 156.2 333.9 481.68 333.44 1529.43-2.14 3498.66-50.16 4935.12 2.95zM19918.28 13525.21c266.46-8.91 374.58-9.04 411.39-254.78 29.21-194.89 20.99-475.95-20.11-644.09-120.9-184.3-153.96-158.43-402-168.74-1131.9 53.2-2904.27 6.39-4152.58 6.39-372.51 0-1051.74-121.41-1239.67 164.14-60.7 255.37-36.57 654.77 54.34 849.19 454.91 112.78 4466.44 20.63 5348.63 47.9zM20124.46 15446.02c262.5-58.75 214.84-215.98 213.7-516.71-.31-80.7 2.96-253.36-22.12-322.39-64.73-178.1-110.9-130.31-208.5-137.75-40.29 7.97-5252.35-143.42-5488.33 3.79-176.09 159.79-148.71 458.94-128.87 703.48 25.1 309.66 234.86 314.74 532.38 312.57l4240.94-2.08c254.12.39 679.06-52.95 860.81-40.92z"/>
		<path class="fil10" d="M12523.61 5160.05c285.5-27.11 595.01-317.06 734.12-524.11 170.31-253.49 302.68-579.3 298.08-961.19-8.99-744.79-504.85-1301.02-1065.79-1481.99-332.39 286.53-425.13 207.82-667.7 569.52-172.76 257.58-304.14 568.82-298.28 959.27 10.57 703.74 487.45 1338.86 999.57 1438.49z" style="stroke:#fefefe;stroke-width:36.83;stroke-miterlimit:22.9256"/>
		<path d="M12523.61 5160.05c-512.12-99.63-989-734.75-999.57-1438.49-5.86-390.45 125.52-701.69 298.28-959.27 242.57-361.7 335.31-282.99 667.7-569.52-480.58-238.28-1211.63-40.42-1532.5 241.58-1349.93 1186.4-275.59 3069.64 1210.19 2864.23 50.92-7.03 154.69-24.2 200.49-40.81 233.18-84.56 81.78-17.29 155.41-97.71z" style="fill:#e8edf2"/>
		<path class="fil10" d="M19397.28 5868.06c382.42-1.09 1471.25 108.19 1715.17-99.3 114.07-231.65 124.55-918.3-45.73-1118.15-239.61-118.97-1318.86-52.1-1673.29-53.44-207.82 238.26-143.27 284.89-143.29 635.56-.02 340.18-63.83 407.78 147.14 635.32zM19397.28 3918.79c382.42-1.09 1471.25 108.19 1715.17-99.3 114.07-231.65 124.55-918.3-45.73-1118.15-239.61-118.97-1318.86-52.1-1673.29-53.44-207.82 238.26-143.27 284.89-143.29 635.56-.02 340.18-63.83 407.78 147.14 635.32z"/>
		<path class="fil2" d="M11901.97 12297.67c402.62-4.59 394.94-101.95 396.2-485.29 1.31-401.9 33.42-530.94-396.2-535.82-370.03 1.75-1497.68-69.3-1751.13 53.28-151.78 183.42-142.96 662.84-42.74 871.51 254.52 208.72 1399.91 94.47 1793.88 96.33zM11901.97 14003.28c402.62-4.59 394.94-101.95 396.2-485.29 1.31-401.9 33.42-530.94-396.2-535.82-370.03 1.75-1497.68-69.3-1751.13 53.28-151.78 183.42-142.96 662.84-42.74 871.51 254.52 208.72 1399.91 94.47 1793.88 96.33zM11901.97 15708.89c402.62-4.59 394.94-101.95 396.2-485.29 1.31-401.9 33.42-530.94-396.2-535.82-370.03 1.75-1497.68-69.3-1751.13 53.28-151.78 183.42-142.96 662.84-42.74 871.51 254.52 208.72 1399.91 94.47 1793.88 96.33zM11901.97 17414.49c429.42-4.88 397.5-134.49 396.18-535.82-1.25-383.97 6.65-480.71-396.18-485.29-391.63 1.86-1542.21-112.21-1794.19 96.33-100.62 208.12-107.82 687.55 43.06 871.03 253.64 123.02 1380.26 52.01 1751.13 53.76z"/>
		<path class="fil10" d="M19251.08 7292.96c74.77.29 188.39-6.34 258.5-.79 179.42 14.2 77.86-19.91 189.96 47.14 231.8 42.17 211.69 182.17 209.06 449.53 301.8 68.49 980.58 119.11 1203.85-70.83 114.07-231.63 124.55-918.3-45.73-1118.13-239.61-118.97-1318.86-52.1-1673.29-53.44-216.5 248.23-142.35 382.84-142.35 746.52z"/>
		<path class="fil2" d="M11901.97 10592.08c513.96-5.86 406.34-309.4 387.39-774.6-100.18 151.89-237.03 353.03-469.67 232.92-176.09-90.9-187.25-305.46-295.28-474.81-323.05-9.74-1130.67-68.84-1373.57 48.64-151.78 183.42-142.96 662.84-42.74 871.51 254.52 208.72 1399.91 94.47 1793.88 96.35z"/>
		<path d="m2423.8 6616.47 28.88 1103.23 1168.24 5.3c-.13-249.68.57-518.77-1.38-787.82-2.84-392.62-38.91-359.6 184.88-583.32l-524.2-.17c-346.82.46-585.14-39.21-848.87 77.2l-7.53 185.58z" style="fill:#314dc9"/>
		<path class="fil13" d="M19397.28 3918.79c-210.97-227.54-147.16-295.15-147.14-635.32.02-350.67-64.53-397.3 143.29-635.56-328.28-.17-1007.21-42.01-1243.41 57.95-93.72 221.47-93.92 933.53.61 1154.56 242.52 102.94 913.86 59.08 1246.65 58.38zM19397.28 5868.06c-210.97-227.54-147.16-295.15-147.14-635.32.02-350.67-64.53-397.3 143.29-635.56-328.28-.17-1007.21-42.01-1243.41 57.95-93.72 221.47-93.92 933.53.61 1154.56 242.52 102.94 913.86 59.08 1246.65 58.38z"/>
		<path class="fil2" d="M4547.23 6353.74h778.64c0-389.9-1.64-780.15.41-1170.01 1.92-366.01 17.7-772.12-389.82-772.63-408.79-.52-391.5 406.97-389.6 772.65 2.03 389.84.39 780.09.39 1169.99z"/>
		<path class="fil13" d="m7660.96 14036.06-565.1-40.77-12.19-1130.17 571.09-60.44c-158.45-108.45-1012.64-61.71-1160.52-18.73-79.37 224.3-79.02 1043.58-1.27 1268.92 156.63 47.92 385 43.98 587.65 39.5 144.51-3.2 470.89 14.33 580.35-58.3zM5853.33 14034.38l-569.21-32.84-11.07-1161.57 575.03-33.63c-164.4-121.36-989.84-69.3-1163.34-24.62-74.4 212.59-73.7 1062.29-2.06 1277.83 191.98 51.32 647.63 37.64 891.51 29.94 34.36-1.09 107.55-2.49 138.73-7.4l140.42-47.72z"/>
		<path class="fil10" d="M5349.47 10405.99c649.34-14.24 670.85 129.98 630.22-986.33-13.96-383.62-76.7-332.74-630.22-344.89-145.58 194.47-145.58 1136.75 0 1331.22zM7157.16 17770.14c552.8-20.5 618.73 53.31 632.67-351.15 38.25-1110.1 1.53-977.51-630.11-979.09-152.21 201.3-133.96 1120.8-2.56 1330.24z"/>
		<path class="fil13" d="m5832.54 15880.19-541.55-47.83c-46.63-246.9-68.47-926.83 14.38-1149.82 188.25-10.87 332.09 29.02 566.12-30.2-170.29-111.77-1068.48-62.41-1196.17-30.26-25.43 98.32-164.82 1183.38 102.85 1288.12 81.05 31.71 24.77 16.92 112.7 28.01 100.05 12.61 851.16 19.94 941.67-58.03zM7638.99 15882.03l-519.14-25.82c-73.87-187.88-78.29-995.41-1.68-1163.93 150.97-28.12 330.64 17.4 561.73-41.62-172.85-105.63-1047.73-67.13-1193.43-22.96-28.62 98.27-168.58 1158.7 97.51 1278.64 75.27 33.94 23.52 18.93 110.27 31.47 64.66 9.34 261.63 1.88 337.04.2 177.82-3.98 501.81 28.05 607.68-55.98zM3208.35 14097.55c154.89-1.75 310.01-5.75 464.35-7.9 46.55-.64 154.01.99 193.44-3.15 202.9-21.34 81.54 22.65 179.41-54.22l-581.96-21.21 12.85-1176.78 564.39-26.08c-55.78-44.68-23-30.83-132.06-47.35-55.12-8.34-174.51-6.85-235.89-7.85-154.38-2.5-309.55-6.8-464.54-8.6-508.64 10.79-370.43 143.88-370.36 675.19.07 535.25-139.83 667.37 370.36 677.94z"/>
		<path class="fil10" d="M5342.29 17770.34c730.33-26.94 631.36 38.84 633.56-695.91.29-94.8 10.17-259.22 2.78-344.94-27.42-317.73-80.88-288.24-621.97-289.59-160.05 175.89-146.17 1127.36-14.36 1330.44z"/>
		<path class="fil13" d="M3208.35 15939.86c210.38-2.76 693.66 54.14 818.28-61.6l-545.62-24.57c-40.5-307.91-72.06-929.48 15.38-1185.51 208.41 21.1 353.91 39 566.19-13.81L3953.1 14608c-12.85-2.85-27-6.48-41.86-8.91l-702.89-10.79c-511.61 9.24-370.08 173.53-370.4 683.15-.31 511.96-131.64 654.79 370.4 668.42z"/>
		<path class="fil10" d="M3531.01 17769.16c670.18-20.92 632.3 66.68 634.51-694.75 1.97-669.87 27.57-632.08-620.41-634.81-180.31 172.59-117.73 1094.02-14.11 1329.56zM7157.16 10405.82c337.21-6.89 548.18 54.07 609.12-162.98l23.57-822.74c-15.16-417.01-175.54-335.81-632.69-345.15-139.72 213.77-139.72 1117.08 0 1330.87z"/>
		<path class="fil13" d="m7695.3 12172.17-579.69-23.92c-93.59-226.64-59.59-995.44 24.12-1241.04-267.19-3.52-510.02-53.15-635.38 95.19-114.82 143.51-70.62 1025.61-19.35 1211.96 289.03 86.31 740 33.07 1083.05 33.07 230.27-28.88 62.19.5 127.25-75.27z"/>
		<path class="fil10" d="M3539.91 10404.53c650.48-8.14 627.31 44.33 625.62-639.71-1.8-735.03 41.32-680.24-625.62-688.58-125.78 205.06-125.78 1123.21 0 1328.29zM5877.23 12188.13c185.81-3.98 113.26-1092.16 39.61-1210.41-151.69-96.74-361.56-56.04-584.04-70.62-97.88 238.48-114.01 1019.73-27.44 1252.18l571.86 28.86zM7695.3 12172.17c81.58-40.24 34.88 126.22 90.05-117.03 1.14-316.12 78.75-848.03-58.54-1085.55-159.46-82.8-367.98-48.43-587.07-62.37-83.72 245.59-117.71 1014.39-24.12 1241.04l579.69 23.92zM4068.05 12186.11c131.47-11.49 13.77 57.6 69.06-58.41 53.96-113.22 57.38-1045.92-30.86-1139.97-126.04-100.55-40.74-56.52-238.13-72.74-101.88-8.38-231.96-.53-345.55-8.05-85.87 245.52-117.14 997.75-26.17 1264.15l571.66 15.03z"/>
		<path class="fil13" d="m5877.23 12188.13-571.86-28.86c-86.57-232.44-70.44-1013.69 27.44-1252.18l-491.29 8.82c-15.17 3.96-27.16 8.21-40.96 13.17-280.45 100.38-185.67 1049.29-127.11 1290.94l899.39 31.69c30.51-.7 115.74-3.35 142.78-7.92.9-.15-58.95 86.42 161.62-55.67zM19251.08 7292.96c0-363.67-74.14-498.29 142.35-746.52-328.28-.17-1007.21-42.01-1243.41 57.95-75.71 178.95-57.86 451.46-57.86 687.99l1158.92.57zM3208.35 12251.91c277.08-2.73 711.31 38.14 859.7-65.8l-571.66-15.03c-90.97-266.4-59.7-1018.63 26.17-1264.15l-632.51 23c-84.62 193.7-50.29 526.91-52.69 784.68-4.42 472.18-90.24 529.12 370.98 537.3z"/>
		<path class="fil10" d="M4026.63 15878.26c193.64-32.04 139.78-12.71 138.82-606.76-.18-112.46 6.72-238.5 4.27-347.74-7.64-340.75-58.95-265.28-107.14-269.39-212.28 52.82-357.78 34.92-566.19 13.81-87.44 256.03-55.87 877.6-15.38 1185.51l545.62 24.57z"/>
		<path class="fil2" d="m3280.21 6353.7 524.2.17 254.43-.13c0-434.57 124.45-1162.29-389.42-1162.93-514.55-.64-389.22 728.86-389.22 1162.9z"/>
		<path class="fil10" d="M7638.99 15882.03c83.31-3.87 60.27 43.72 128.41-10.07 25.19-223.86 17.62-425.09 18.77-649.39.87-171.73 62.65-537.41-106.26-571.9-231.1 59.02-410.76 13.5-561.73 41.62-76.61 168.52-72.19 976.05 1.68 1163.93l519.14 25.82zM5832.54 15880.19c162.15-18.21 122.34 47.22 147.93-211.82 8.54-86.63-4.57-295.55-4.68-396.93-.2-187.32 67.31-558-104.31-619.1-234.03 59.22-377.87 19.34-566.12 30.2-82.85 223-61.01 902.92-14.38 1149.82l541.55 47.83zM5853.33 14034.38c153.57-8.16 106.87 42.54 127.03-216.86l.55-745.67c-8.1-264.06 30.94-256.05-132.83-265.5l-575.03 33.63 11.07 1161.57 569.21 32.84z"/>
		<path class="fil13" d="M7157.16 10405.82c-139.72-213.79-139.72-1117.1 0-1330.87-212-.17-479.21-43.53-660.85 56.28-88.19 168.5-87.86 1049.68.18 1218.29 181.34 99.89 448.81 56.44 660.66 56.3zM7157.16 17770.14c-131.4-209.44-149.65-1128.94 2.56-1330.24l-681.86 25.87c-49 233.64-90.55 1031.21 16.17 1242.23 181.74 104.8 447.69 62.72 663.13 62.13z"/>
		<path class="fil10" d="M4045.55 14032.28c179.68-26.59 119.78-20.5 119.89-612.67l-18.62-523.34c-64.97-136.92 46.24-67.68-105.98-88.06l-564.39 26.08-12.85 1176.78 581.96 21.21z"/>
		<path class="fil13" d="M5349.47 10405.99c-145.58-194.47-145.58-1136.75 0-1331.22-175.93.13-512.27-59.85-641.81 75.04-77.86 81.1-228.17 1140.32 96.42 1237.13 147.03 43.85 383.53 18.93 545.38 19.04zM5342.29 17770.34c-131.8-203.09-145.69-1154.56 14.36-1330.44-358.43.18-517.3-59.56-645.54 70.92-134.66 133.97-129.61 1038.72-6.39 1180.3 61.75 66.11 34.97 80.15 328.28 83.2 99.72 1.05 207.84-3.83 309.29-3.98z"/>
		<path class="fil10" d="M7660.96 14036.06c201.39-34.73 125.13-431.17 125.17-616.43.06-233.35 75.17-561.7-131.38-614.96l-571.09 60.44 12.19 1130.17 565.1 40.77z"/>
		<path d="m2993.02 10397.7 546.89 6.83c-125.78-205.08-125.78-1123.23 0-1328.29l-546.89 6.81-140.86 57.2-11.8 1199.36 152.67 58.08z" style="fill:#f5f7f9"/>
		<path class="fil13" d="m2951.1 17760.71 579.91 8.45c-103.63-235.54-166.2-1156.97 14.11-1329.56l-336.77-1.03c-405.18 6.7-377.43 36-372.38 438.94 3.43 273.9-10.55 550.78 18.07 819.08l97.07 64.12z"/>
	</g>
</svg>