<?xml version="1.0" encoding="iso-8859-1"?>
<svg xmlns="http://www.w3.org/2000/svg" xmlns:xlink="http://www.w3.org/1999/xlink" version="1.1" id="Capa_1" x="0px" y="0px" viewBox="0 0 512 512" style="enable-background:new 0 0 512 512;" xml:space="preserve" width="24px" height="24px">
<g>
	<path style="fill:#33877C;" d="M506.5,256c0,135.31-109.69,245-245,245s-245-109.69-245-245s109.69-245,245-245   S506.5,120.69,506.5,256z"/>
	<path style="fill:#A4DFC7;" d="M325.5,110.303v144.848c0,5.523-4.477,10-10,10h-300c-5.523,0-10-4.477-10-10V110.303   c0-5.523,4.477-10,10-10h300C321.023,100.303,325.5,104.78,325.5,110.303z"/>
	<path style="fill:#C5F0DF;" d="M325.5,110.303v144.848c0,5.523-4.477,10-10,10H44.591c-5.523,0-10-4.477-10-10V110.303   c0-5.523,4.477-10,10-10H315.5C321.023,100.303,325.5,104.78,325.5,110.303z"/>
	<path style="fill:#8AD3BD;" d="M34.591,177.879L34.591,177.879c-5.356,0-9.697-4.341-9.697-9.697v-38.788   c0-5.355,4.341-9.697,9.697-9.697h38.788c5.355,0,9.697,4.341,9.697,9.697v0C83.076,156.171,61.368,177.879,34.591,177.879z    M296.409,177.879L296.409,177.879c5.356,0,9.697-4.341,9.697-9.697v-38.788c0-5.355-4.341-9.697-9.697-9.697h-38.788   c-5.355,0-9.697,4.341-9.697,9.697v0C247.924,156.171,269.632,177.879,296.409,177.879z M34.591,187.576L34.591,187.576   c-5.356,0-9.697,4.341-9.697,9.697v38.788c0,5.355,4.341,9.697,9.697,9.697h38.788c5.355,0,9.697-4.341,9.697-9.697v0   C83.076,209.283,61.368,187.576,34.591,187.576z M247.924,236.061L247.924,236.061c0,5.356,4.341,9.697,9.697,9.697h38.788   c5.355,0,9.697-4.341,9.697-9.697v-38.788c0-5.355-4.341-9.697-9.697-9.697h0C269.632,187.576,247.924,209.283,247.924,236.061z    M165.5,119.697c-33.873,0-61.333,27.46-61.333,61.333s27.46,61.333,61.333,61.333s61.333-27.46,61.333-61.333   S199.373,119.697,165.5,119.697z"/>
	<path style="fill:#FFD69E;" d="M411.683,3.609l7.678,7.678c4.812,4.812,12.614,4.812,17.426,0l7.678-7.678   C446.776,1.298,449.91,0,453.178,0l0,0c6.805,0,12.322,5.517,12.322,12.322V260c0,6.805-5.517,12.322-12.322,12.322l0,0   c-3.268,0-6.402-1.298-8.713-3.609l-7.678-7.678c-4.812-4.812-12.614-4.812-17.426,0l-7.678,7.678   c-2.311,2.311-5.445,3.609-8.713,3.609h-7.366c-3.268,0-6.402-1.298-8.713-3.609l-7.678-7.678c-4.812-4.812-12.614-4.812-17.426,0   l-7.678,7.678c-2.311,2.311-5.445,3.609-8.713,3.609h-7.366c-3.268,0-6.402-1.298-8.713-3.609l-7.678-7.678   c-4.812-4.812-12.614-4.812-17.426,0l-7.678,7.678c-2.311,2.311-5.445,3.609-8.713,3.609h0c-6.805,0-12.322-5.517-12.322-12.322   V12.322C275.5,5.517,281.017,0,287.822,0h0c3.268,0,6.402,1.298,8.713,3.609l7.678,7.678c4.812,4.812,12.614,4.812,17.426,0   l7.678-7.678C331.628,1.298,334.762,0,338.03,0h7.366c3.268,0,6.402,1.298,8.713,3.609l7.678,7.678   c4.812,4.812,12.614,4.812,17.426,0l7.678-7.678C389.202,1.298,392.336,0,395.604,0h7.366C406.238,0,409.372,1.298,411.683,3.609z"/>
	<path style="fill:#FFC981;" d="M305.5,259.932c-0.446,0.338-0.88,0.697-1.287,1.104l-7.678,7.678   c-2.311,2.311-5.445,3.609-8.713,3.609h0c-6.805,0-12.322-5.517-12.322-12.322V12.322C275.5,5.517,281.017,0,287.822,0h0   c3.268,0,6.402,1.298,8.713,3.609l7.678,7.678c0.407,0.407,0.841,0.766,1.287,1.104V259.932z"/>
	<path style="fill:#FFB23C;" d="M440.5,232.322h-140c-2.761,0-5-2.239-5-5v-60c0-2.761,2.239-5,5-5h140c2.761,0,5,2.239,5,5v60   C445.5,230.084,443.261,232.322,440.5,232.322z M435.5,52.322h-130c-2.761,0-5,2.239-5,5v10c0,2.761,2.239,5,5,5h130   c2.761,0,5-2.239,5-5v-10C440.5,54.561,438.261,52.322,435.5,52.322z M300.5,107.322v-10c0-2.761,2.239-5,5-5h40   c2.761,0,5,2.239,5,5v10c0,2.761-2.239,5-5,5h-40C302.739,112.322,300.5,110.084,300.5,107.322z M440.5,97.322v10   c0,2.761-2.239,5-5,5h-40c-2.761,0-5-2.239-5-5v-10c0-2.761,2.239-5,5-5h40C438.261,92.322,440.5,94.561,440.5,97.322z    M370.5,127.322v10c0,2.761-2.239,5-5,5h-60c-2.761,0-5-2.239-5-5v-10c0-2.761,2.239-5,5-5h60   C368.261,122.322,370.5,124.561,370.5,127.322z M440.5,127.322v10c0,2.761-2.239,5-5,5h-30c-2.761,0-5-2.239-5-5v-10   c0-2.761,2.239-5,5-5h30C438.261,122.322,440.5,124.561,440.5,127.322z"/>
	<path style="fill:#EE9500;" d="M341.214,177.322v40c0,2.761-2.239,5-5,5h-4.286c-2.761,0-5-2.239-5-5v-40c0-2.761,2.239-5,5-5   h4.286C338.976,172.322,341.214,174.561,341.214,177.322z M316.214,172.322h-4.286c-2.761,0-5,2.239-5,5v40c0,2.761,2.239,5,5,5   h4.286c2.761,0,5-2.239,5-5v-40C321.214,174.561,318.976,172.322,316.214,172.322z M386.214,172.322h-4.286c-2.761,0-5,2.239-5,5   v40c0,2.761,2.239,5,5,5h4.286c2.761,0,5-2.239,5-5v-40C391.214,174.561,388.976,172.322,386.214,172.322z M429.071,172.322H410.5   c-2.761,0-5,2.239-5,5v40c0,2.761,2.239,5,5,5h18.571c2.761,0,5-2.239,5-5v-40C434.071,174.561,431.833,172.322,429.071,172.322z    M364.786,172.322h-11.428c-2.761,0-5,2.239-5,5v40c0,2.761,2.239,5,5,5h11.428c2.761,0,5-2.239,5-5v-40   C369.786,174.561,367.547,172.322,364.786,172.322z"/>
	<path style="fill:#EAFAFF;" d="M416.5,410h-310c-8.284,0-15-6.716-15-15V215c0-8.284,6.716-15,15-15h310c8.284,0,15,6.716,15,15   v180C431.5,403.284,424.784,410,416.5,410z"/>
	<path style="fill:#FFF5F5;" d="M416.5,410h-272c-8.284,0-15-6.716-15-15V215c0-8.284,6.716-15,15-15h272c8.284,0,15,6.716,15,15   v180C431.5,403.284,424.784,410,416.5,410z"/>
	<path style="fill:#014C7E;" d="M431.5,301h-340v-62h340V301z"/>
	<path style="fill:#015D96;" d="M431.5,301h-302v-62h302V301z"/>
	<path style="fill:#C9D8E4;" d="M205.5,339v-10c0-2.761,2.239-5,5-5h30c2.761,0,5,2.239,5,5v10c0,2.761-2.239,5-5,5h-30   C207.739,344,205.5,341.761,205.5,339z M150.5,344h30c2.761,0,5-2.239,5-5v-10c0-2.761-2.239-5-5-5h-30c-2.761,0-5,2.239-5,5v10   C145.5,341.761,147.739,344,150.5,344z M300.5,324h-30c-2.761,0-5,2.239-5,5v10c0,2.761,2.239,5,5,5h30c2.761,0,5-2.239,5-5v-10   C305.5,326.239,303.261,324,300.5,324z M280.5,364h-130c-2.761,0-5,2.239-5,5v10c0,2.761,2.239,5,5,5h130c2.761,0,5-2.239,5-5v-10   C285.5,366.239,283.261,364,280.5,364z"/>
	<path style="fill:#81B6E8;" d="M409.5,329v50c0,5.523-4.477,10-10,10s-10-4.477-10-10v-50c0-5.523,4.477-10,10-10   S409.5,323.477,409.5,329z M369.5,329c-5.523,0-10,4.477-10,10v30c0,5.523,4.477,10,10,10s10-4.477,10-10v-30   C379.5,333.477,375.023,329,369.5,329z M339.5,344c-5.523,0-10,4.477-10,10s4.477,10,10,10s10-4.477,10-10S345.023,344,339.5,344z"/>
	<path style="fill:#FFB23C;" d="M245.5,397c0,63.513-51.487,115-115,115s-115-51.487-115-115s51.487-115,115-115   S245.5,333.487,245.5,397z"/>
	<path style="fill:#FFC981;" d="M205.5,397c0,41.421-33.579,75-75,75s-75-33.579-75-75s33.579-75,75-75S205.5,355.579,205.5,397z"/>
	<path style="fill:#FFD69E;" d="M205.5,397c0,37.057-26.883,67.816-62.206,73.891c-35.323-6.075-62.206-36.834-62.206-73.891   s26.883-67.816,62.206-73.891C178.617,329.184,205.5,359.943,205.5,397z"/>
	<path style="fill:#EE9500;" d="M145.5,352v90c0,5.523-4.477,10-10,10h-10c-5.523,0-10-4.477-10-10v-90c0-5.523,4.477-10,10-10h10   C141.023,342,145.5,346.477,145.5,352z M56.254,322.754c-3.905,3.905-3.905,10.237,0,14.142c3.905,3.905,10.237,3.905,14.142,0   c3.905-3.905,3.905-10.237,0-14.142C66.491,318.849,60.159,318.849,56.254,322.754z M56.254,457.104   c-3.905,3.905-3.905,10.237,0,14.142c3.905,3.905,10.237,3.905,14.142,0c3.905-3.905,3.905-10.237,0-14.142   C66.491,453.199,60.159,453.199,56.254,457.104z M38.905,424.116c-5.102,2.113-7.525,7.963-5.412,13.065   c2.114,5.103,7.963,7.526,13.066,5.412c5.102-2.114,7.525-7.963,5.412-13.066S44.007,422.003,38.905,424.116z M130.5,312   c5.523,0,10-4.477,10-10s-4.477-10-10-10s-10,4.477-10,10S124.977,312,130.5,312z M222.095,369.884   c5.102-2.114,7.525-7.963,5.412-13.065c-2.114-5.103-7.963-7.526-13.066-5.412c-5.102,2.114-7.525,7.963-5.412,13.066   C211.143,369.574,216.993,371.997,222.095,369.884z M45.5,397c0-5.523-4.477-10-10-10s-10,4.477-10,10s4.477,10,10,10   S45.5,402.523,45.5,397z M97.972,475.53c-5.103-2.114-10.952,0.31-13.066,5.412c-2.114,5.103,0.31,10.952,5.412,13.066   s10.952-0.31,13.066-5.412C105.497,483.493,103.074,477.643,97.972,475.53z M46.558,351.406c-5.103-2.114-10.952,0.31-13.066,5.412   c-2.114,5.102,0.31,10.952,5.412,13.065c5.103,2.114,10.952-0.31,13.066-5.412C54.084,359.369,51.661,353.52,46.558,351.406z    M190.604,322.754c-3.905,3.905-3.905,10.237,0,14.142c3.905,3.905,10.237,3.905,14.142,0c3.905-3.905,3.905-10.237,0-14.142   C200.841,318.849,194.509,318.849,190.604,322.754z M90.318,299.993c-5.102,2.114-7.526,7.963-5.412,13.066   c2.114,5.102,7.963,7.525,13.066,5.412c5.102-2.114,7.525-7.963,5.412-13.066C101.27,300.302,95.421,297.879,90.318,299.993z    M222.095,424.116c-5.103-2.114-10.952,0.31-13.066,5.412s0.31,10.952,5.412,13.066c5.103,2.114,10.952-0.31,13.066-5.412   C229.621,432.079,227.198,426.229,222.095,424.116z M225.5,387c-5.523,0-10,4.477-10,10s4.477,10,10,10s10-4.477,10-10   S231.023,387,225.5,387z M190.604,457.104c-3.905,3.905-3.905,10.237,0,14.142c3.905,3.905,10.237,3.905,14.142,0   c3.905-3.905,3.905-10.237,0-14.142C200.841,453.199,194.509,453.199,190.604,457.104z M170.682,299.993   c-5.102-2.114-10.952,0.31-13.066,5.412c-2.114,5.103,0.309,10.952,5.412,13.066c5.103,2.114,10.952-0.31,13.066-5.412   C178.207,307.956,175.784,302.106,170.682,299.993z M130.5,482c-5.523,0-10,4.477-10,10s4.477,10,10,10s10-4.477,10-10   S136.023,482,130.5,482z M163.028,475.53c-5.102,2.114-7.525,7.963-5.412,13.066c2.113,5.102,7.963,7.525,13.066,5.412   s7.526-7.963,5.412-13.066C173.98,475.839,168.131,473.416,163.028,475.53z"/>
</g>















</svg>
