<svg viewBox="0 0 512 512" width="24px" height="24px" xmlns="http://www.w3.org/2000/svg">
	<path d="m512 256c0 141.386719-114.613281 256-256 256s-256-114.613281-256-256 114.613281-256 256-256 256 114.613281 256 256zm0 0" fill="#017296"/>
	<path d="m368.175781 332.101562c0-4.875 3.953125-8.824218 8.824219-8.824218s8.824219 3.949218 8.824219 8.824218c0 4.871094-3.953125 8.820313-8.824219 8.820313s-8.824219-3.949219-8.824219-8.820313zm8.824219-14.707031c4.871094 0 8.824219-3.949219 8.824219-8.824219 0-4.871093-3.953125-8.820312-8.824219-8.820312s-8.824219 3.949219-8.824219 8.820312c0 4.875 3.953125 8.824219 8.824219 8.824219zm0 59.355469c-11.046875 0-20 8.953125-20 20 0 8.578125 5.410156 15.875 13 18.714844v69.792968c5.097656-2.539062 10.101562-5.242187 15-8.105468v-62.078125c7.0625-3.085938 12-10.125 12-18.324219 0-11.046875-8.953125-20-20-20zm0-10.296875c4.871094 0 8.824219-3.949219 8.824219-8.820313 0-4.875-3.953125-8.824218-8.824219-8.824218s-8.824219 3.949218-8.824219 8.824218c0 4.871094 3.953125 8.820313 8.824219 8.820313zm-242 0c4.871094 0 8.824219-3.949219 8.824219-8.820313 0-4.875-3.953125-8.824218-8.824219-8.824218s-8.824219 3.949218-8.824219 8.824218c0 4.871094 3.953125 8.820313 8.824219 8.820313zm0 10.296875c-11.046875 0-20 8.953125-20 20 0 8.578125 5.410156 15.875 13 18.714844v62.277344c4.898438 2.835937 9.902344 5.5 15 8.015624v-70.683593c7.0625-3.085938 12-10.125 12-18.324219 0-11.046875-8.953125-20-20-20zm0-59.355469c4.871094 0 8.824219-3.949219 8.824219-8.824219 0-4.871093-3.953125-8.820312-8.824219-8.820312s-8.824219 3.949219-8.824219 8.820312c0 4.875 3.953125 8.824219 8.824219 8.824219zm0 23.527344c4.871094 0 8.824219-3.949219 8.824219-8.824219 0-4.871094-3.953125-8.820312-8.824219-8.820312s-8.824219 3.949218-8.824219 8.820312c0 4.875 3.953125 8.824219 8.824219 8.824219zm305-193.921875c-11.046875 0-20 8.953125-20 20 0 8.578125 5.410156 15.875 13 18.714844v167.285156c0 4.140625 3.359375 7.5 7.5 7.5s7.5-3.359375 7.5-7.5v-167.675781c7.0625-3.085938 12-10.125 12-18.324219 0-11.046875-8.953125-20-20-20zm0-10.296875c4.871094 0 8.824219-3.949219 8.824219-8.820313 0-4.875-3.953125-8.824218-8.824219-8.824218s-8.824219 3.949218-8.824219 8.824218c0 4.871094 3.953125 8.820313 8.824219 8.820313zm0-25.53125c4.871094 0 8.824219-3.949219 8.824219-8.824219 0-4.871094-3.953125-8.820312-8.824219-8.820312s-8.824219 3.949218-8.824219 8.820312c0 4.875 3.953125 8.824219 8.824219 8.824219zm0-23.527344c4.871094 0 8.824219-3.949219 8.824219-8.824219 0-4.871093-3.953125-8.820312-8.824219-8.820312s-8.824219 3.949219-8.824219 8.824219c0 4.871093 3.953125 8.820312 8.824219 8.820312zm0 331.414063c-4.871094 0-8.824219 3.953125-8.824219 8.824218 0 4.054688 2.742188 7.464844 6.46875 8.496094 3.671875-3.699218 7.226563-7.511718 10.667969-11.425781-1.207031-3.429687-4.46875-5.894531-8.3125-5.894531zm0-25.53125c-4.871094 0-8.824219 3.949218-8.824219 8.824218 0 4.871094 3.953125 8.820313 8.824219 8.820313s8.824219-3.949219 8.824219-8.820313c0-4.875-3.953125-8.824218-8.824219-8.824218zm0-23.527344c-4.871094 0-8.824219 3.949219-8.824219 8.824219 0 4.871093 3.953125 8.820312 8.824219 8.820312s8.824219-3.949219 8.824219-8.820312c0-4.875-3.953125-8.824219-8.824219-8.824219zm-370-160c-11.046875 0-20 8.953125-20 20 0 8.199219 4.9375 15.238281 12 18.324219v174.703125c4.769531 5.535156 9.78125 10.855468 15 15.964844v-190.277344c7.589844-2.839844 13-10.136719 13-18.714844 0-11.046875-8.953125-20-20-20zm0-10.296875c4.871094 0 8.824219-3.949219 8.824219-8.820313 0-4.875-3.953125-8.824218-8.824219-8.824218s-8.824219 3.949218-8.824219 8.824218c0 4.871094 3.953125 8.820313 8.824219 8.820313zm0-25.53125c4.871094 0 8.824219-3.949219 8.824219-8.824219 0-4.871094-3.953125-8.820312-8.824219-8.820312s-8.824219 3.949218-8.824219 8.820312c0 4.875 3.953125 8.824219 8.824219 8.824219zm0-23.527344c4.871094 0 8.824219-3.949219 8.824219-8.824219 0-4.871093-3.953125-8.820312-8.824219-8.820312s-8.824219 3.949219-8.824219 8.824219c0 4.871093 3.953125 8.820312 8.824219 8.820312zm296-87.144531c0-11.046875-8.953125-20-20-20s-20 8.953125-20 20c0 8.390625 5.171875 15.5625 12.5 18.53125v227.96875c0 3.148438 3.359375 5.699219 7.5 5.699219 4.144531 0 7.5-2.550781 7.5-5.699219v-227.96875c7.328125-2.96875 12.5-10.140625 12.5-18.53125zm-200-20c-11.046875 0-20 8.953125-20 20 0 8.390625 5.171875 15.5625 12.5 18.53125v227.96875c0 3.148438 3.359375 5.699219 7.5 5.699219 4.144531 0 7.5-2.550781 7.5-5.699219v-227.96875c7.328125-2.96875 12.5-10.140625 12.5-18.53125 0-11.046875-8.953125-20-20-20zm90-33.5c-11.046875 0-20 8.953125-20 20 0 8.390625 5.171875 15.5625 12.5 18.53125v262.269531c0 3.148438 3.359375 5.699219 7.5 5.699219 4.144531 0 7.5-2.550781 7.5-5.699219v-262.269531c7.328125-2.96875 12.5-10.140625 12.5-18.53125 0-11.046875-8.953125-20-20-20zm0 0" fill="#3691bb"/>
	<path d="m402 226c0 43.421875-18.960938 82.414062-49.050781 109.15625-26.320313 23.390625-40.949219 57.234375-40.949219 92.445312v2.398438h-112v-2.828125c0-35.511719-15.507812-69.019531-41.855469-92.824219-29.703125-26.84375-48.320312-65.722656-48.144531-108.953125.328125-80.5 65.5-145.394531 146-145.394531 80.636719 0 146 65.367188 146 146zm0 0" fill="#fded32"/>
	<path d="m402 226c0 43.421875-18.960938 82.414062-49.050781 109.15625-26.320313 23.390625-40.949219 57.234375-40.949219 92.445312v2.398438h-74v-2.828125c0-35.511719-15.507812-69.019531-41.855469-92.824219-29.703125-26.84375-48.320312-65.722656-48.144531-108.953125.300781-74.054687 55.480469-134.898437 126.984375-144.167969 71.664063 9.308594 127.015625 70.574219 127.015625 144.773438zm0 0" fill="#fdf385"/>
	<path d="m371 198.332031c-8.410156 5.988281-40.054688-25.984375-46.667969-32.667969-3.980469-4.019531-41.398437-41.824218-34.667969-50.664062 5.425782-7.125 39.964844 3.988281 61.335938 28 18.308594 20.570312 26.832031 50.46875 20 55.332031zm0 0" fill="#fdf7bd"/>
	<path d="m327.5 247.53125v80.46875c0 3.355469-2.226562 6.300781-5.453125 7.214844l-58.546875 16.699218v58.886719c0 3.148438-3.355469 5.699219-7.5 5.699219-4.140625 0-7.5-2.550781-7.5-5.699219v-108.316406l-60.546875-17.269531c-3.226563-.914063-5.453125-3.859375-5.453125-7.214844v-60.46875c-7.328125-2.96875-12.5-10.140625-12.5-18.53125 0-11.046875 8.953125-20 20-20s20 8.953125 20 20c0 8.390625-5.171875 15.5625-12.5 18.53125v54.800781l51 14.550781v-138.351562c-7.328125-2.96875-12.5-10.140625-12.5-18.53125 0-11.046875 8.953125-20 20-20s20 8.953125 20 20c0 8.390625-5.171875 15.5625-12.5 18.53125v187.78125l49-13.980469v-74.800781c-7.328125-2.96875-12.5-10.140625-12.5-18.53125 0-11.046875 8.953125-20 20-20s20 8.953125 20 20c0 8.390625-5.171875 15.5625-12.5 18.53125zm0 0" fill="#e8ce00"/>
	<path d="m331 420c0 8.953125-5.886719 16.53125-14 19.082031v.917969c0 27.613281-22.386719 50-50 50h-22c-27.613281 0-50-22.386719-50-50v-.917969c-8.113281-2.550781-14-10.128906-14-19.082031 0-11.046875 8.953125-20 20-20h110c11.046875 0 20 8.953125 20 20zm0 0" fill="#88b9d3"/>
	<path d="m331 420c0 8.953125-5.886719 16.53125-14 19.082031v.917969c0 24.011719-16.929688 44.0625-39.5 48.886719-15.039062-3.214844-27.574219-13.191407-34.261719-26.59375-1.671875-3.347657.703125-7.292969 4.445313-7.292969h44.816406c4.21875 0 7.625-3.484375 7.496094-7.730469-.121094-4.105469-3.703125-7.269531-7.808594-7.269531h-62.1875c-11.046875 0-20-8.953125-20-20s8.953125-20 20-20h81c11.046875 0 20 8.953125 20 20zm0 0" fill="#b3d1e1"/>
</svg>