<svg id="Layer_1" enable-background="new 0 0 511.764 511.764" viewBox="0 0 511.764 511.764" width="24px" height="24px" xmlns="http://www.w3.org/2000/svg">
	<g>
		<g>
			<path d="m249.601 6.281c-45.712 0-88.553 12.288-125.402 33.741l75.666 233.437 293.627-70.909c-24.427-112.226-124.345-196.269-243.891-196.269z" fill="#ecd833"/>
		</g>
		<g>
			<path d="m498.503 274.628c0-.003 0-.007.001-.01 1.792-24.141.11-48.456-5.031-72.064-3.815-16.286-27.037-16.398-31.258-.064-.144.555-.289 1.11-.436 1.665-.383 1.442-1.7 2.442-3.192 2.442-1.331 0-2.531-.801-3.042-2.029l-8.692-20.89c-5.155-12.388-3.188-26.392 4.527-37.369 1.753-2.495 3.111-5.287 3.98-8.288 1.138-3.924-1.909-7.826-5.995-7.826h-41.83c-7.875 0-14.913-4.717-18.122-11.909-.017-.039-.035-.078-.052-.117h-.03c-16.407-36.667-48.761-64.458-88.455-74.304v-.005c-.833-.208-4.435-1.022-4.54-1.044v.011c-4.564-.962-9.216-1.693-13.946-2.174-7.215-.735-13.497 4.905-13.497 12.157v71.819c0 3.074-2.492 5.565-5.565 5.565-3.074 0-5.565 2.492-5.565 5.565l-183.319 297.923c45.428 44.753 107.469 71.801 175.157 71.801 131.536 0 239.316-101.763 248.902-230.855z" fill="#ecc32e"/>
		</g>
		<g>
			<path d="m233.691 40.033h-109.486c-48.758 28.387-87.026 72.816-107.564 126.058l-12.351 43.474c-2.817 15.008-4.29 30.49-4.29 46.317 0 32.252 6.119 63.074 17.256 91.371h240.506v-283.15c-.001-13.293-10.777-24.07-24.071-24.07z" fill="#9d66d5"/>
		</g>
		<g>
			<g>
				<path d="m391.406 147.219c-16.217-40.485-51.545-71.051-95.07-80.217v79.603c.63.15 1.258.357 1.882.614z" fill="#3342aa"/>
			</g>
			<g>
				<path d="m300.875 127.757v-59.711c-10.226-2.536-20.934-3.891-31.983-3.891v133.186h132.13c0-19.608-4.164-38.224-11.662-54.987h-73.887c-8.063 0-14.598-6.535-14.598-14.597z" fill="#2b3890"/>
			</g>
			<g>
				<path d="m436.211 371.439c.152.896.248 1.838.248 2.747v16.726h75.306v-13.068l-6.561-34.823c0-.855 6.524-21.412 6.453-22.248-1.28-14.908-13.734-26.615-28.947-26.727v-.01l-46.847-112.583c9.401-2.605 16.829-9.953 19.517-19.314 1.12-3.9-1.956-7.758-6.014-7.758h-164.278v205.601h137.635c7.437 0 12.327 4.812 13.488 11.457z" fill="#3342aa"/>
			</g>
			<g>
				<g>
					<path d="m468.028 295.754c-4.796 0-7.51-3.22-8.154-6.872-.354-1.415-.406-2.942-.14-4.457.596-3.39.792-6.778.804-10.163l-35.803-76.893c-1.707-4.135-5.738-6.832-10.211-6.832h-116.29c-6.101 0-11.047 4.946-11.047 11.047v-47.202h-29.425v279.308h29.438c.267-39.889 32.675-72.144 72.627-72.144s72.359 32.256 72.627 72.144h24.012v-43.15c0-18.616-15.091-33.707-33.707-33.707h-83.229c-20.004 0-37.376-11.225-46.184-27.717-2.547-4.769.877-10.539 6.284-10.539h36.002c3.716 0 7.035-2.717 7.388-6.417.405-4.244-2.922-7.815-7.082-7.815h-37.077c-.658 0-1.304-.054-1.932-.159-6.354-1.058-5.318-10.541 1.123-10.521h.183c81.743-.187 120.097.041 138.585.071 10.617.017 19.204 8.629 19.204 19.246h18.993c4.248 0 7.692-3.444 7.692-7.692v-9.536z" fill="#2b3890"/>
				</g>
			</g>
			<g>
				<path d="m416.379 388.617c9.958 12.343 15.96 28.006 16.074 45.073h50.256v-.011c16.066-.119 29.056-13.17 29.056-29.263v-15.988c-1.417.147 12.571.184-95.386.189z" fill="#2b3890"/>
			</g>
			<g>
				<g>
					<path d="m74.452 433.69h212.747c.114-17.069 6.116-32.732 16.076-45.076-65.591-.003-151.812-.007-265.082-.01 10.327 16.415 22.51 31.541 36.259 45.086z" fill="#2b3890"/>
				</g>
			</g>
			<g>
				<path d="m457.302 268.23-32.566-78.898c-1.707-4.135-5.738-6.832-10.211-6.832h-95.079l-21.946 85.73z" fill="#a0ebff"/>
			</g>
			<g>
				<g>
					<path d="m358.988 375.579c-4.655 0-9.182.547-13.52 1.581l4.878 114.003c2.82.421 5.705.638 8.642.638 32.094 0 58.111-26.017 58.111-58.111s-26.017-58.111-58.111-58.111z" fill="#2b3890"/>
				</g>
				<g>
					<path d="m385.28 439.433c-1.268-12.462-11.443-22.472-23.922-23.559-.2-.017-.4-.033-.599-.046-12.776-.833-18.608-16.575-9.125-25.177.195-.177.391-.352.588-.527 5.925-5.231.926-14.83-6.755-12.968-24.122 5.845-43.049 27.026-44.499 53.231-1.73 31.28 21.005 56.529 49.373 60.806 6.58.992 10.166-7.399 4.895-11.461-.121-.093-.242-.187-.362-.281-4.572-3.581-2.036-10.89 3.771-10.817 15.684.2 28.257-13.255 26.635-29.201z" fill="#242e7a"/>
				</g>
			</g>
			<g>
				<g>
					<path d="m356.75 405.488c-12.703 1.044-23.028 11.346-24.099 24.046-.296 3.512.095 6.895 1.053 10.031l11.232-.806c11.296-.81 20.284-9.79 21.105-21.085l.806-11.091c-3.153-.98-6.559-1.386-10.097-1.095z" fill="#fff"/>
				</g>
				<g>
					<path d="m385.254 434.838c-1.339 12.121-11.137 21.918-23.257 23.257-12.757 1.409-23.946-6.269-27.912-17.379-1.55-4.344 1.837-8.887 6.45-8.887h7.507c6.046 0 10.945-4.902 10.945-10.948v-7.242c0-4.893 4.915-8.248 9.482-6.492 10.788 4.147 18.169 15.163 16.785 27.691z" fill="#05cdff"/>
				</g>
			</g>
			<g>
				<path d="m484.114 362.521v7.286c0 4.438 3.598 8.037 8.036 8.037h19.613v-8.514z" fill="#2b3890"/>
			</g>
			<g>
				<path d="m511.764 369.33h-21.986c-3.128 0-5.664-2.536-5.664-5.664v-37.239c0-3.128 2.536-5.664 5.664-5.664h21.986z" fill="#f6e738"/>
			</g>
			<g>
				<g>
					<path d="m458.184 270.369-1.825-4.422h-49.577c-5.657 0-8.49-6.84-4.49-10.84l4.747-4.746c2.62-2.62 3.043-6.875.683-9.731-2.708-3.277-7.569-3.449-10.503-.516l-23.974 23.974c-1.167 1.167-2.746 1.831-4.397 1.849l-.13.001c-5.694.06-8.588-6.822-4.561-10.848l44.481-44.481c2.62-2.62 3.043-6.875.683-9.731-2.708-3.277-7.569-3.449-10.503-.516l-53.816 53.816c-2.412 2.412-6.279 2.465-8.807.176-.033-.03-.066-.059-.098-.089-2.885-2.628-7.305-2.57-10.064.189l-10.271 10.271c-1.386 1.385-3.202 2.078-5.017 2.078-1.737 0-3.474-.634-4.834-1.901-2.957-2.755-2.802-7.591.056-10.449l13.319-13.319c1.362-1.362 2.128-3.21 2.128-5.137v-53.497h-23.178c-6.101 0-11.047 4.946-11.047 11.047v81.036c0 6.101 4.946 11.047 11.047 11.047h149.74c7.864 0 13.21-7.99 10.208-15.261z" fill="#05cdff"/>
				</g>
			</g>
			<g>
				<path d="m477.287 302.484h-21.264v-71.702h21.264c2.994 0 5.421 2.427 5.421 5.421v60.86c0 2.994-2.427 5.421-5.421 5.421z" fill="#3342aa"/>
			</g>
		</g>
		<g>
			<g>
				<path d="m38.266 388.722h220.002v-45.877h-242.688c6.003 16.149 13.633 31.505 22.686 45.877z" fill="#8659b9"/>
			</g>
			<g>
				<path d="m3.445 214.438h155.7c13.349 0 24.171-10.822 24.171-24.171s-10.822-24.171-24.171-24.171h-142.492c-5.952 15.432-10.411 31.605-13.208 48.342z" fill="#8659b9"/>
			</g>
		</g>
	</g>
</svg>