<svg viewBox="0 1 511 511.99997" width="24px" height="24px" xmlns="http://www.w3.org/2000/svg">
	<path d="m511.875 256.3125c0 10.195312-.597656 20.246094-1.765625 30.128906-1.535156 13.121094-4.070313 25.933594-7.511719 38.363282-8.476562 30.570312-22.492187 58.828124-40.890625 83.636718-7.785156 10.507813-16.363281 20.390625-25.640625 29.578125-4.800781 4.757813-9.800781 9.328125-14.964844 13.691407-44.523437 37.621093-102.066406 60.289062-164.914062 60.289062-13.035156 0-25.839844-.96875-38.34375-2.859375-66.21875-9.957031-124.117188-45.304687-163.472656-95.816406-33.761719-43.328125-53.871094-97.828125-53.871094-157.011719 0-9.820312.554688-19.503906 1.636719-29.03125 6.503906-57.621094 32.167969-109.4375 70.457031-148.925781 46.472656-47.933594 111.550781-77.730469 183.59375-77.730469 28.136719 0 55.21875 4.539062 80.535156 12.941406 20.277344 6.722656 39.429688 15.914063 57.097656 27.230469 57.636719 36.878906 99.496094 96.242187 113.199219 165.726563 3.183594 16.101562 4.855469 32.746093 4.855469 49.789062zm0 0" fill="#31474c"/>
	<path d="m292.558594 388.152344c0-5.832032-.441406-11.574219-1.285156-17.167969l45.417968-35.042969-34.125-59.109375-53.070312 21.820313c-8.921875-7.128906-18.917969-12.972656-29.742188-17.199219l-7.617187-56.84375h-68.273438l-7.628906 56.84375c-10.8125 4.226563-20.8125 10.070313-29.734375 17.199219l-53.066406-21.820313-34.148438 59.109375 45.4375 35.042969c-.84375 5.59375-1.28125 11.335937-1.28125 17.167969 0 5.84375.4375 11.585937 1.28125 17.191406l-10.351562 7.980469c39.355468 50.511719 97.253906 85.859375 163.472656 95.816406l1.910156-14.277344c10.824219-4.226562 20.820313-10.070312 29.742188-17.199219l53.070312 21.832032 34.125-59.121094-45.417968-35.03125c.84375-5.605469 1.285156-11.347656 1.285156-17.191406zm-114.570313 56.535156c-31.214843 0-56.511719-25.308594-56.511719-56.535156 0-31.203125 25.296876-56.519532 56.511719-56.519532 31.226563 0 56.53125 25.316407 56.53125 56.519532 0 31.226562-25.304687 56.535156-56.53125 56.535156zm0 0" fill="#b3b3b3"/>
	<path d="m402.105469 182.050781c2.128906-4.574219 3.871093-9.21875 5.25-13.902343l48.289062-10.855469-5.15625-58.660157-49.457031-2.253906c-4.375-8.828125-10.070312-17.042968-16.980469-24.285156l9.769531-31.296875 4.96875-15.925781-53.382812-24.871094-8.683594 13.566406-17.980468 28.105469c-10-.636719-19.945313.292969-29.523438 2.621094l-33.542969-36.402344-48.226562 33.792969 22.761719 43.945312c-2.703126 4.070313-5.132813 8.402344-7.261719 12.960938-2.128907 4.570312-3.875 9.214844-5.25 13.914062l-48.289063 10.839844 5.15625 58.664062 49.457032 2.253907c4.382812 8.828125 10.070312 17.042969 16.988281 24.285156l-14.746094 47.222656 53.382813 24.871094 26.675781-41.671875c9.984375.625 19.929687-.292969 29.511719-2.621094l33.542968 36.402344 48.226563-33.804688-22.761719-43.933593c2.703125-4.070313 5.132812-8.402344 7.261719-12.960938zm-64.746094-30.164062c-6.386719 13.714843-22.6875 19.652343-36.402344 13.265625-13.710937-6.386719-19.648437-22.6875-13.261719-36.402344 6.386719-13.710938 22.6875-19.648438 36.398438-13.261719 13.714844 6.386719 19.652344 22.6875 13.265625 36.398438zm0 0" fill="#e6e6e6"/>
	<path d="m125.179688 140.398438c-.605469-7.003907-2.253907-13.933594-4.964844-20.539063l14.621094-18.242187 7.429687-9.289063-28.980469-30.378906-9.289062 6.753906-19.246094 13.992187c-3.933594-1.835937-8.003906-3.277343-12.15625-4.339843-38.289062 39.488281-63.953125 91.304687-70.457031 148.925781l23.117187-16.8125c6.472656 3.015625 13.316406 4.988281 20.277344 5.925781l12.816406 32.882813 40.804688-9.914063-3.703125-35.085937c2.859375-2.003906 5.59375-4.246094 8.191406-6.71875 2.597656-2.484375 4.96875-5.113282 7.097656-7.871094l34.886719 5.34375 11.816406-40.292969zm-56.6875 20.320312c-7.804688 7.441406-20.171876 7.148438-27.625-.648438-7.441407-7.804687-7.148438-20.171874.648437-27.625 7.804687-7.441406 20.171875-7.148437 27.625.648438 7.4375 7.804688 7.148437 20.171875-.648437 27.625zm0 0" fill="#e6e6e6"/>
	<path d="m507.019531 206.523438-2.835937-4.4375-75.339844 35.148437 20.871094 66.6875c-4.746094 5-9.203125 10.417969-13.273438 16.238281-4.082031 5.824219-7.648437 11.867188-10.71875 18.046875l-69.796875 3.234375-7.222656 82.832032 68.210937 15.269531c1.210938 4.109375 2.597657 8.171875 4.1875 12.167969 5.164063-4.363282 10.164063-8.933594 14.964844-13.691407 9.277344-9.1875 17.855469-19.070312 25.640625-29.578125 18.398438-24.808594 32.414063-53.066406 40.890625-83.636718 3.441406-12.429688 5.976563-25.242188 7.511719-38.363282 1.167969-9.882812 1.765625-19.933594 1.765625-30.128906 0-17.042969-1.671875-33.6875-4.855469-49.789062zm0 0" fill="#b3b3b3"/>
	<path d="m510.109375 286.441406c-1.535156 13.121094-4.070313 25.933594-7.511719 38.363282-8.476562 30.570312-22.492187 58.828124-40.890625 83.636718-7.785156 10.507813-16.363281 20.390625-25.640625 29.578125-11.5-34.921875-6.960937-74.640625 15.746094-107.097656 14.925781-21.332031 35.503906-36.359375 58.296875-44.480469zm0 0" fill="#e6e6e6"/>
	<path d="m502.597656 324.804688c-8.476562 30.570312-22.492187 58.828124-40.890625 83.636718-1.898437-20.359375 3.140625-41.472656 15.78125-59.546875 6.929688-9.90625 15.507813-17.972656 25.109375-24.089843zm0 0" fill="#999"/>
	<path d="m339.507812 82.371094c-31.984374-14.902344-70.015624-1.03125-84.917968 30.964844-14.902344 32-1.054688 70.019531 30.945312 84.921874 32.007813 14.902344 70.015625 1.054688 84.929688-30.957031 14.902344-31.984375 1.050781-70.015625-30.957032-84.929687zm-2.148437 69.515625c-6.386719 13.714843-22.6875 19.652343-36.402344 13.265625-13.710937-6.386719-19.648437-22.6875-13.261719-36.402344 6.386719-13.710938 22.6875-19.648438 36.398438-13.261719 13.714844 6.386719 19.652344 22.6875 13.265625 36.398438zm0 0" fill="#b3b3b3"/>
</svg>