<svg xmlns="http://www.w3.org/2000/svg" width="24px" height="24px" style="shape-rendering:geometricPrecision;text-rendering:geometricPrecision;image-rendering:optimizeQuality;fill-rule:evenodd;clip-rule:evenodd">
	<path style="opacity:.993" fill="#49b5fc" d="M232.5-.5h46c55.198 5.77 103.865 26.604 146 62.5a95.343 95.343 0 0 1 8 8.5h-354c30.762-30.063 67.096-50.896 109-62.5 14.938-3.931 29.938-6.764 45-8.5z"/>
	<path style="opacity:1" fill="#00429c" d="M78.5 70.5h23c-2.307 1.477-4.14 3.477-5.5 6-.5 14.663-.667 29.33-.5 44h-24v-43c1-3.667 3.333-6 7-7z"/>
	<path style="opacity:.998" fill="#0055c9" d="M101.5 70.5h331c16.047 14.788 29.714 31.455 41 50h-248c.166-7.674 0-15.341-.5-23a17.843 17.843 0 0 0-4.5-5.5 657.357 657.357 0 0 0-50.5-1.5 623.817 623.817 0 0 0-49.5 1.5 17.843 17.843 0 0 0-4.5 5.5c-.5 7.659-.666 15.326-.5 23h-20c-.167-14.67 0-29.337.5-44 1.36-2.523 3.193-4.523 5.5-6z"/>
	<path style="opacity:.994" fill="#0093fa" d="M71.5 77.5v108h-33v-66c8.719-15.727 19.719-29.727 33-42z"/>
	<path style="opacity:1" fill="#0065ec" d="M344.5 85.5c9.348-.483 13.848 3.85 13.5 13-2.818 5.608-7.318 7.775-13.5 6.5-7.959-6.498-7.959-12.998 0-19.5zM384.5 85.5c9.348-.483 13.848 3.85 13.5 13-2.818 5.608-7.318 7.775-13.5 6.5-7.959-6.498-7.959-12.998 0-19.5zM424.5 85.5c9.348-.483 13.848 3.85 13.5 13-2.818 5.608-7.318 7.775-13.5 6.5-7.959-6.498-7.959-12.998 0-19.5z"/>
	<path style="opacity:1" fill="#fe5757" d="M225.5 120.5h-110c-.166-7.674 0-15.341.5-23a17.843 17.843 0 0 1 4.5-5.5 623.817 623.817 0 0 1 49.5-1.5c16.897-.146 33.73.354 50.5 1.5a17.843 17.843 0 0 1 4.5 5.5c.5 7.659.666 15.326.5 23z"/>
	<path style="opacity:.977" fill="#49b6fc" d="M38.5 119.5v66h-30c6.743-23.596 16.743-45.596 30-66z"/>
	<path style="opacity:1" fill="#bce2fc" d="M71.5 120.5h24v65h-24v-65z"/>
	<path style="opacity:.995" fill="#e4f1fc" d="M95.5 120.5h378c21.246 34.404 33.913 71.737 38 112v46a304.8 304.8 0 0 1-6 34c-7.615-7.874-16.948-11.207-28-10a32.864 32.864 0 0 0 4.5-5 870.065 870.065 0 0 0 0-59c-1.26-2.928-3.427-4.761-6.5-5.5a128.507 128.507 0 0 0-16-.5c-2.207-8.423-6.874-15.09-14-20 10.006.166 20.006 0 30-.5a17.842 17.842 0 0 0 5.5-4.5 447.786 447.786 0 0 0 1-59c-1.587-3.256-4.087-5.423-7.5-6.5-38-.667-76-.667-114 0-3.228 1.563-5.395 4.063-6.5 7.5a647.854 647.854 0 0 0-.5 36h-18c.167-12.338 0-24.671-.5-37-1.563-3.228-4.063-5.395-7.5-6.5a10501.25 10501.25 0 0 0-205 0c-2.833 1.5-5 3.667-6.5 6.5a684.346 684.346 0 0 0-.5 37h-20v-65z"/>
	<path style="opacity:1" fill="#bde2fd" d="M335.5 185.5h-220c-.167-12.338 0-24.671.5-37 1.5-2.833 3.667-5 6.5-6.5a10501.25 10501.25 0 0 1 205 0c3.437 1.105 5.937 3.272 7.5 6.5.5 12.329.667 24.662.5 37z"/>
	<path style="opacity:1" fill="#bde2fc" d="M445.5 212.5c-7.627-3.303-15.293-3.637-23-1l-4 1h-47a87.062 87.062 0 0 0-1.5-22c-4.529-4.489-10.029-6.155-16.5-5-.167-12.005 0-24.005.5-36 1.105-3.437 3.272-5.937 6.5-7.5 38-.667 76-.667 114 0 3.413 1.077 5.913 3.244 7.5 6.5.963 19.732.63 39.398-1 59a17.842 17.842 0 0 1-5.5 4.5c-9.994.5-19.994.666-30 .5z"/>
	<path style="opacity:.999" fill="#fe4343" d="M8.5 185.5h30c-2.365 2.216-4.198 4.882-5.5 8-.5 5.991-.666 11.991-.5 18-5.333 5.333-5.333 10.667 0 16v183c-3.99 4.378-3.99 8.711 0 13-.166 10.339 0 20.672.5 31 1.694 2.858 3.86 5.191 6.5 7-11.671.167-23.338 0-35-.5a32.865 32.865 0 0 1-5-4.5v-266c2.28-2.942 5.28-4.609 9-5z"/>
	<path style="opacity:1" fill="#fe5757" d="M38.5 185.5h315c6.471-1.155 11.971.511 16.5 5a87.062 87.062 0 0 1 1.5 22v228a51.29 51.29 0 0 1-1.5 16c-1.637 2.31-3.804 3.81-6.5 4.5-86.666.5-173.333.667-260 .5h-64c-2.64-1.809-4.806-4.142-6.5-7a480.949 480.949 0 0 1-.5-31c27.26.991 54.593 1.324 82 1 5 4 10 4 15 0 69.334.167 138.667 0 208-.5 3.712-2.513 4.878-6.013 3.5-10.5a11.532 11.532 0 0 0-4.5-3.5c-69.333-.5-138.666-.667-208-.5-4.333-2.667-8.667-2.667-13 0a1744.52 1744.52 0 0 0-83 1v-183c8.892 3.95 14.225 1.117 16-8.5-.065-4.735-2.398-7.735-7-9-3.241-.793-6.241-.293-9 1.5-.166-6.009 0-12.009.5-18 1.302-3.118 3.135-5.784 5.5-8z"/>
	<path style="opacity:1" fill="#ff7878" d="M32.5 227.5c-5.333-5.333-5.333-10.667 0-16 2.759-1.793 5.759-2.293 9-1.5 4.602 1.265 6.935 4.265 7 9-1.775 9.617-7.108 12.45-16 8.5z"/>
	<path style="opacity:1" fill="#ff7979" d="M75.5 209.5c12.169.34 15.669 6.007 10.5 17-7.05 4.846-12.717 3.513-17-4-1.027-5.946 1.14-10.279 6.5-13zM333.5 209.5c10.003-.498 14.17 4.168 12.5 14-2.741 4.919-6.908 6.752-12.5 5.5-5.525-2.919-7.358-7.419-5.5-13.5 1.36-2.523 3.193-4.523 5.5-6z"/>
	<path style="opacity:1" fill="#fe5858" d="M445.5 212.5c7.126 4.91 11.793 11.577 14 20 .447 5.728-.553 11.062-3 16-10.842.774-20.342-2.56-28.5-10-6.355-8.004-8.188-17.004-5.5-27 7.707-2.637 15.373-2.303 23 1z"/>
	<path style="opacity:1" fill="#e5f1fc" d="M371.5 212.5h47c-7.314 4.673-11.981 11.34-14 20h-33v-20z"/>
	<path style="opacity:1" fill="#fe4444" d="M422.5 211.5c-2.688 9.996-.855 18.996 5.5 27 8.158 7.44 17.658 10.774 28.5 10-5.244 10.392-13.744 15.725-25.5 16-4.408-.082-8.575-1.082-12.5-3-4-3.333-7.667-7-11-11-2.275-5.772-3.275-11.772-3-18 2.019-8.66 6.686-15.327 14-20l4-1z"/>
	<path style="opacity:1" fill="#bce1fc" d="M371.5 232.5h33c-.275 6.228.725 12.228 3 18a917.504 917.504 0 0 1-36 36v-54z"/>
	<path style="opacity:1" fill="#bde1fc" d="M459.5 232.5c5.344-.166 10.677.001 16 .5 3.073.739 5.24 2.572 6.5 5.5a870.065 870.065 0 0 1 0 59 32.864 32.864 0 0 1-4.5 5h-100c13.333-14 27-27.667 41-41 3.925 1.918 8.092 2.918 12.5 3 11.756-.275 20.256-5.608 25.5-16 2.447-4.938 3.447-10.272 3-16z"/>
	<path style="opacity:1" fill="#ff7979" d="M174.5 241.5c39.192-2.284 64.026 15.383 74.5 53 2.531 40.117-15.636 64.951-54.5 74.5-27.939 2.446-49.439-8.054-64.5-31.5-16.262-34.784-9.096-63.617 21.5-86.5 7.324-4.339 14.99-7.506 23-9.5z"/>
	<path style="opacity:1" fill="#66bdfb" d="M407.5 250.5c3.333 4 7 7.667 11 11-14 13.333-27.667 27-41 41l-6 5v-21a917.504 917.504 0 0 0 36-36z"/>
	<path style="opacity:1" fill="#fbb" d="M177.5 269.5v72c-2.457 2.734-5.457 4.734-9 6-1.883-.376-3.383-1.376-4.5-3-.667-26-.667-52 0-78 1.117-1.624 2.617-2.624 4.5-3 3.561 1.24 6.561 3.24 9 6z"/>
	<path style="opacity:1" fill="#fff3f3" d="M177.5 269.5a28418.322 28418.322 0 0 0 45 31.5c3.079 4.678 2.079 8.345-3 11a1694.49 1694.49 0 0 1-42 29.5v-72z"/>
	<path style="opacity:.991" fill="#fec143" d="M477.5 302.5c11.052-1.207 20.385 2.126 28 10a38.236 38.236 0 0 1 6 10v15c-.838.342-1.172 1.008-1 2-21.419 3.738-33.752-5.096-37-26.5a80.554 80.554 0 0 1 1-8.5c1.21-.432 2.21-1.099 3-2z"/>
	<path style="opacity:1" fill="#e4f1fc" d="M377.5 302.5h100c-.79.901-1.79 1.568-3 2-7.978 3.311-13.645 8.978-17 17h-86v-14l6-5z"/>
	<path style="opacity:.997" fill="#feb50f" d="M474.5 304.5a80.554 80.554 0 0 0-1 8.5c3.248 21.404 15.581 30.238 37 26.5-3.824 9.158-10.491 15.158-20 18-17.327 1.683-28.66-5.651-34-22v-12c.838-.342 1.172-1.008 1-2 3.355-8.022 9.022-13.689 17-17z"/>
	<path style="opacity:1" fill="#a8d9fc" d="M371.5 322.5v-1h86c.172.992-.162 1.658-1 2a1807.264 1807.264 0 0 0-85-1z"/>
	<path style="opacity:1" fill="#67befc" d="M371.5 322.5c28.505-.331 56.838.002 85 1v12c-27.98 1.992-56.314 2.658-85 2v-15z"/>
	<path style="opacity:.999" fill="#bde2fc" d="M456.5 335.5c5.34 16.349 16.673 23.683 34 22-4.794 12.925-11.127 24.925-19 36h-57l-43-42v-14c28.686.658 57.02-.008 85-2z"/>
	<path style="opacity:1" fill="#65befb" d="m371.5 351.5 43 42a11.743 11.743 0 0 1 3 5c-4 2-7 5-9 9a157.337 157.337 0 0 1-16-14 312.323 312.323 0 0 0-21-21v-21z"/>
	<path style="opacity:1" fill="#bae0fd" d="M371.5 372.5a312.323 312.323 0 0 1 21 21h-21v-21z"/>
	<path style="opacity:1" fill="#e4f1fc" d="M371.5 393.5h21a157.337 157.337 0 0 0 16 14c-4.312 7.518-5.146 15.518-2.5 24l4.5 9h-39v-47z"/>
	<path style="opacity:.993" fill="#80ce02" d="M458.5 412.5a45.636 45.636 0 0 1 0 19c-25.823 3.344-37.989-7.989-36.5-34 .717-.544 1.217-1.211 1.5-2 16.039-3.147 27.705 2.52 35 17z"/>
	<path style="opacity:.967" fill="#e2f1fa" d="M414.5 393.5h57a185.252 185.252 0 0 1-13 19c-7.295-14.48-18.961-20.147-35-17a409.027 409.027 0 0 0-6 3 11.743 11.743 0 0 0-3-5z"/>
	<path style="opacity:.99" fill="#6db005" d="M423.5 395.5c-.283.789-.783 1.456-1.5 2-1.489 26.011 10.677 37.344 36.5 34-7.017 14.677-18.683 20.677-35 18a143.327 143.327 0 0 1-13-9 37730.68 37730.68 0 0 0-4.5-9c-2.646-8.482-1.812-16.482 2.5-24 2-4 5-7 9-9a409.027 409.027 0 0 1 6-3z"/>
	<path style="opacity:1" fill="#fff1f1" d="M128.5 409.5c4.925 4.646 5.258 9.646 1 15-5 4-10 4-15 0-2.962-5.315-2.628-10.315 1-15 4.333-2.667 8.667-2.667 13 0z"/>
	<path style="opacity:1" fill="#ffbaba" d="M115.5 409.5c-3.628 4.685-3.962 9.685-1 15-27.407.324-54.74-.009-82-1-3.99-4.289-3.99-8.622 0-13a1744.52 1744.52 0 0 1 83-1z"/>
	<path style="opacity:1" fill="#ff7979" d="M128.5 409.5c69.334-.167 138.667 0 208 .5a11.532 11.532 0 0 1 4.5 3.5c1.378 4.487.212 7.987-3.5 10.5-69.333.5-138.666.667-208 .5 4.258-5.354 3.925-10.354-1-15z"/>
	<path style="opacity:.995" fill="#0092f9" d="M371.5 440.5h39a143.327 143.327 0 0 0 13 9c-20.177 17.265-42.511 31.265-67 42a5102.275 5102.275 0 0 0-202 0c-18.485-7.733-35.485-17.733-51-30 86.667.167 173.334 0 260-.5 2.696-.69 4.863-2.19 6.5-4.5a51.29 51.29 0 0 0 1.5-16z"/>
	<path style="opacity:1" fill="#149dfa" d="M154.5 491.5a5102.275 5102.275 0 0 1 202 0l-2 1c-66-1.333-132-1.333-198 0l-2-1z"/>
	<path style="opacity:.981" fill="#49b6fc" d="M156.5 492.5c66-1.333 132-1.333 198 0-24.575 9.81-49.908 16.144-76 19h-46c-26.092-2.856-51.425-9.19-76-19z"/>
</svg>