<svg viewBox="-10 0 512 512" width="24px" height="24px"  xmlns="http://www.w3.org/2000/svg">
	<path d="m492.554688 246.277344c0 136.015625-110.261719 246.277344-246.277344 246.277344s-246.277344-110.261719-246.277344-246.277344 110.261719-246.277344 246.277344-246.277344 246.277344 110.261719 246.277344 246.277344zm0 0" fill="#5b5b6f"/>
	<path d="m246.277344 295.691406c-78.738282-64.527344-125.941406-36.230468-125.941406-36.230468v201.273437c16.039062 6.335937 34.53125 16.871094 55.199218 33.8125 8.632813 7.070313 17.085938 12.84375 25.320313 17.453125h159.027343c6.789063 0 12.339844-5.550781 12.339844-12.335938v-187.386718c-31.003906 21.867187-75.382812 24.847656-125.945312-16.585938zm0 0" fill="#ecebed"/>
	<path d="m158.335938 253.699219c-24.535157-2.304688-38 5.761719-38 5.761719v201.273437c11.445312 4.523437 24.152343 11.199219 38 20.804687zm0 0" fill="#d4d1da"/>
	<path d="m165.335938 13.628906 67.0625 131.335938h27.757812l-70.660156-138.375c-8.21875 1.941406-16.28125 4.296875-24.160156 7.039062zm0 0" fill="#ffb456"/>
	<path d="m237.546875 100.679688c0 .085937.011719.167968.011719.253906 0 11.078125-12.222656 17.785156-21.554688 11.921875l16.394532 32.109375h27.757812zm0 0" fill="#fc974d"/>
	<path d="m232.398438 144.964844h27.757812l67.066406-131.335938c-7.878906-2.742187-15.941406-5.097656-24.164062-7.039062zm0 0" fill="#ffdc67"/>
	<path d="m269.691406 71.929688-37.292968 73.035156h27.757812l32.117188-62.890625c-8.859376 6.78125-21.769532 1.019531-22.582032-10.144531zm0 0" fill="#ffb456"/>
	<g fill="#d4d1da">
		<path d="m299.988281 465.320312h-107.421875c-4.257812 0-7.710937-3.453124-7.710937-7.710937 0-4.261719 3.453125-7.710937 7.710937-7.710937h107.421875c4.261719 0 7.710938 3.449218 7.710938 7.710937 0 4.257813-3.453125 7.710937-7.710938 7.710937zm0 0"/>
		<path d="m299.988281 434.753906h-107.421875c-4.257812 0-7.710937-3.449218-7.710937-7.710937 0-4.257813 3.453125-7.710938 7.710937-7.710938h107.421875c4.261719 0 7.710938 3.453125 7.710938 7.710938 0 4.261719-3.453125 7.710937-7.710938 7.710937zm0 0"/>
		<path d="m279.675781 404.191406h-66.796875c-4.261718 0-7.710937-3.453125-7.710937-7.710937 0-4.257813 3.449219-7.710938 7.710937-7.710938h66.796875c4.261719 0 7.710938 3.453125 7.710938 7.710938 0 4.257812-3.449219 7.710937-7.710938 7.710937zm0 0"/>
	</g>
	<path d="m246.226562 457.609375c0-4.261719 3.453126-7.710937 7.710938-7.710937h-61.371094c-4.257812 0-7.710937 3.449218-7.710937 7.710937 0 4.257813 3.453125 7.710937 7.710937 7.710937h61.371094c-4.257812 0-7.710938-3.453124-7.710938-7.710937zm0 0" fill="#bcb7c6"/>
	<path d="m246.226562 427.042969c0-4.257813 3.453126-7.710938 7.710938-7.710938h-61.371094c-4.257812 0-7.710937 3.453125-7.710937 7.710938 0 4.261719 3.453125 7.710937 7.710937 7.710937h61.371094c-4.257812 0-7.710938-3.449218-7.710938-7.710937zm0 0" fill="#bcb7c6"/>
	<path d="m246.226562 396.480469c0-4.257813 3.453126-7.710938 7.710938-7.710938h-41.058594c-4.257812 0-7.710937 3.453125-7.710937 7.710938 0 4.257812 3.449219 7.710937 7.710937 7.710937h41.058594c-4.257812 0-7.710938-3.453125-7.710938-7.710937zm0 0" fill="#bcb7c6"/>
	<path d="m359.882812 178.890625h-70.425781v4.113281c0 6.785156-5.550781 12.335938-12.335937 12.335938v7.199218c0 6.785157-5.550782 12.335938-12.335938 12.335938h-37.011718c-6.789063 0-12.339844-5.550781-12.339844-12.335938v-7.199218c-6.785156 0-12.335938-5.550782-12.335938-12.335938v-4.113281h-70.425781c-6.785156 0-12.335937 5.554687-12.335937 12.339844v72.34375s47.203124-28.300781 125.941406 36.226562c50.566406 41.4375 94.941406 38.457031 125.945312 16.589844v-125.160156c0-6.789063-5.550781-12.339844-12.339844-12.339844zm0 0" fill="#5085fe"/>
	<path d="m175.539062 492.488281c-20.671874-16.9375-39.164062-27.472656-55.203124-33.808593v40.984374c0 6.785157 5.550781 12.335938 12.335937 12.335938h71.980469c-9.425782-4.910156-19.148438-11.34375-29.113282-19.511719zm0 0" fill="#88c116"/>
	<path d="m279.179688 143.9375h-65.800782c-6.785156 0-12.339844 5.550781-12.339844 12.335938v27.757812c0 6.785156 5.554688 12.335938 12.339844 12.335938h65.800782c6.785156 0 12.335937-5.550782 12.335937-12.335938v-27.757812c0-6.785157-5.550781-12.335938-12.335937-12.335938zm0 0" fill="#9dc2fc"/>
	<path d="m246.277344 184.03125v-27.757812c0-6.785157 5.550781-12.335938 12.335937-12.335938h-45.234375c-6.785156 0-12.339844 5.550781-12.339844 12.335938v27.757812c0 6.785156 5.554688 12.335938 12.339844 12.335938h45.234375c-6.785156 0-12.335937-5.550782-12.335937-12.335938zm0 0" fill="#7da8ff"/>
	<path d="m232.398438 196.367188v-7.195313c0-7.664063 6.214843-13.878906 13.878906-13.878906 7.667968 0 13.878906 6.214843 13.878906 13.878906v7.195313zm0 0" fill="#5085fe"/>
	<path d="m289.144531 364.800781h-85.734375c-6.78125 0-12.335937-5.550781-12.335937-12.335937v-96.015625c0-6.785157 5.554687-12.335938 12.335937-12.335938h85.734375c6.785157 0 12.335938 5.550781 12.335938 12.335938v96.015625c0 6.785156-5.550781 12.335937-12.335938 12.335937zm0 0" fill="#9dc2fc"/>
	<path d="m222.460938 352.464844v-96.015625c0-6.785157 5.550781-12.335938 12.335937-12.335938h-31.386719c-6.78125 0-12.335937 5.550781-12.335937 12.335938v96.015625c0 6.785156 5.554687 12.335937 12.335937 12.335937h31.386719c-6.785156 0-12.335937-5.550781-12.335937-12.335937zm0 0" fill="#7da8ff"/>
	<path d="m266.898438 287.886719c-6.578126-11.394531-21.144532-15.296875-32.535157-8.71875-11.394531 6.578125-15.296875 21.144531-8.71875 32.535156s21.144531 15.296875 32.535157 8.71875c11.390624-6.578125 15.296874-21.144531 8.71875-32.535156zm0 0" fill="#f9ae85"/>
	<path d="m246.277344 299.800781c-4.40625-7.632812-4.101563-16.6875.003906-23.8125-4.050781-.003906-8.152344 1.015625-11.914062 3.1875-11.390626 6.578125-15.292969 21.144531-8.714844 32.535157 6.574218 11.390624 21.144531 15.296874 32.535156 8.71875 3.757812-2.171876 6.695312-5.210938 8.714844-8.722657-8.222656-.007812-16.21875-4.269531-20.625-11.90625zm0 0" fill="#f59d6b"/>
	<path d="m289.679688 364.800781-5.601563-21.746093c-2.945313-11.4375-13.261719-19.433594-25.074219-19.433594h-25.46875c-11.8125 0-22.128906 7.996094-25.074218 19.433594l-5.601563 21.746093zm0 0" fill="#ff5252"/>
	<path d="m256.117188 323.621094h-22.582032c-11.8125 0-22.128906 7.996094-25.074218 19.433594l-5.601563 21.746093h34.917969l3.347656-21.746093c1.761719-11.4375 7.929688-19.433594 14.992188-19.433594zm0 0" fill="#e74242"/>
	<path d="m158.335938 502.3125v-22.832031c-13.847657-9.601563-26.554688-16.28125-38-20.800781v40.984374c0 6.785157 5.550781 12.335938 12.335937 12.335938h30.507813c-2.933594-2.230469-4.84375-5.742188-4.84375-9.6875zm0 0" fill="#61ab17"/>
	<path d="m158.335938 188.578125c0-3.945313 1.910156-7.457031 4.84375-9.6875h-30.507813c-6.785156 0-12.335937 5.550781-12.335937 12.335937v72.347657s13.464843-8.066407 38-5.761719zm0 0" fill="#3c78ef"/>
</svg>