<svg xmlns="http://www.w3.org/2000/svg" xmlns:xlink="http://www.w3.org/1999/xlink" version="1.1" id="Capa_1" x="0px" y="0px" viewBox="0 0 501 501" width="24px" height="24px" style="enable-background:new 0 0 501 501;" xml:space="preserve">
<g>
	<path style="fill:#015D96;" d="M490,256c0,135.31-109.69,245-245,245S0,391.31,0,256S109.69,11,245,11S490,120.69,490,256z"/>
	<path style="fill:#067FC8;" d="M379,265v-10c0-2.761,2.239-5,5-5h20c2.761,0,5,2.239,5,5v10c0,2.761-2.239,5-5,5h-20   C381.239,270,379,267.761,379,265z M454,290h-70c-2.761,0-5,2.239-5,5v10c0,2.761,2.239,5,5,5h70c2.761,0,5-2.239,5-5v-10   C459,292.239,456.761,290,454,290z M424,330h-40c-2.761,0-5,2.239-5,5v10c0,2.761,2.239,5,5,5h40c2.761,0,5-2.239,5-5v-10   C429,332.239,426.761,330,424,330z"/>
	<path style="fill:#53B1A2;" d="M388.074,221C328.386,221,280,172.614,280,112.926S328.386,4.852,388.074,4.852   s108.074,48.386,108.074,108.074S447.761,221,388.074,221z"/>
	<path style="fill:#409A8F;" d="M404.574,219.748c-5.38,0.824-10.89,1.252-16.5,1.252C328.386,221,280,172.614,280,112.926   S328.386,4.853,388.074,4.853c5.61,0,11.12,0.428,16.5,1.252C352.718,14.048,313,58.849,313,112.926   C313,167.003,352.718,211.804,404.574,219.748z"/>
	<path style="fill:#FFB23C;" d="M501,112.926c0,1.418-0.027,2.829-0.081,4.234c-0.135,3.549-3.063,6.353-6.615,6.353H383.222   c-3.654,0-6.617-2.962-6.617-6.617V6.729c0-3.546,2.795-6.456,6.338-6.614C384.643,0.039,386.354,0,388.074,0   C450.441,0,501,50.559,501,112.926z"/>
	<path style="fill:#FFA40C;" d="M407.722,123.513h-24.5c-3.655,0-6.617-2.962-6.617-6.617V6.729c0-3.546,2.795-6.456,6.338-6.615   C384.644,0.039,386.354,0,388.074,0c5.469,0,10.845,0.397,16.107,1.148c-1.851,1.177-3.076,3.237-3.076,5.581v110.167   C401.105,120.551,404.067,123.513,407.722,123.513z"/>
	<path style="fill:#EAFAFF;" d="M339,410H39c-5.523,0-10-4.477-10-10V120c0-5.523,4.477-10,10-10h300c5.523,0,10,4.477,10,10v280   C349,405.523,344.523,410,339,410z"/>
	<path style="fill:#C9D8E4;" d="M104,200v30c0,5.523-4.477,10-10,10H64c-5.523,0-10-4.477-10-10v-30c0-5.523,4.477-10,10-10h30   C99.523,190,104,194.477,104,200z M167.333,190h-30c-5.523,0-10,4.477-10,10v30c0,5.523,4.477,10,10,10h30c5.523,0,10-4.477,10-10   v-30C177.333,194.477,172.856,190,167.333,190z M240.667,190h-30c-5.523,0-10,4.477-10,10v30c0,5.523,4.477,10,10,10h30   c5.523,0,10-4.477,10-10v-30C250.667,194.477,246.189,190,240.667,190z M314,190h-30c-5.523,0-10,4.477-10,10v30   c0,5.523,4.477,10,10,10h30c5.523,0,10-4.477,10-10v-30C324,194.477,319.523,190,314,190z M94,260H64c-5.523,0-10,4.477-10,10v30   c0,5.523,4.477,10,10,10h30c5.523,0,10-4.477,10-10v-30C104,264.477,99.523,260,94,260z M167.333,260h-30c-5.523,0-10,4.477-10,10   v30c0,5.523,4.477,10,10,10h30c5.523,0,10-4.477,10-10v-30C177.333,264.477,172.856,260,167.333,260z M240.667,260h-30   c-5.523,0-10,4.477-10,10v30c0,5.523,4.477,10,10,10h30c5.523,0,10-4.477,10-10v-30C250.667,264.477,246.189,260,240.667,260z    M314,260h-30c-5.523,0-10,4.477-10,10v30c0,5.523,4.477,10,10,10h30c5.523,0,10-4.477,10-10v-30C324,264.477,319.523,260,314,260z    M94,330H64c-5.523,0-10,4.477-10,10v30c0,5.523,4.477,10,10,10h30c5.523,0,10-4.477,10-10v-30C104,334.477,99.523,330,94,330z    M167.333,330h-30c-5.523,0-10,4.477-10,10v30c0,5.523,4.477,10,10,10h30c5.523,0,10-4.477,10-10v-30   C177.333,334.477,172.856,330,167.333,330z M240.667,330h-30c-5.523,0-10,4.477-10,10v30c0,5.523,4.477,10,10,10h30   c5.523,0,10-4.477,10-10v-30C250.667,334.477,246.189,330,240.667,330z M314,330h-30c-5.523,0-10,4.477-10,10v30   c0,5.523,4.477,10,10,10h30c5.523,0,10-4.477,10-10v-30C324,334.477,319.523,330,314,330z"/>
	<path style="fill:#FF4927;" d="M349,160H29c-5.523,0-10-4.477-10-10V80c0-5.523,4.477-10,10-10h320c5.523,0,10,4.477,10,10v70   C359,155.523,354.523,160,349,160z"/>
	<path style="fill:#FF5526;" d="M349,130H59c-5.523,0-10-4.477-10-10V80c0-5.523,4.477-10,10-10h290c5.523,0,10,4.477,10,10v40   C359,125.523,354.523,130,349,130z"/>
	<path style="fill:#FFAD8A;" d="M257.667,263v44c0,5.523-4.477,10-10,10h-44c-5.523,0-10-4.477-10-10v-44c0-5.523,4.477-10,10-10h44   C253.189,253,257.667,257.477,257.667,263z"/>
	<path style="fill:#FFB23C;" d="M199,396.871c0,46.944-38.056,85-85,85s-85-38.056-85-85s38.056-85,85-85S199,349.927,199,396.871z"/>
	<path style="fill:#FFC981;" d="M169.435,396.871c0,30.616-24.819,55.435-55.435,55.435s-55.435-24.819-55.435-55.435   S83.384,341.436,114,341.436S169.435,366.255,169.435,396.871z"/>
	<path style="fill:#FFD69E;" d="M169.435,396.871c0,27.39-19.87,50.125-45.978,54.615c-26.108-4.49-45.978-27.225-45.978-54.615   s19.87-50.125,45.978-54.615C149.565,346.746,169.435,369.481,169.435,396.871z"/>
	<path style="fill:#EE9500;" d="M125.087,361.219v71.305c0,2.761-2.239,5-5,5h-12.174c-2.761,0-5-2.239-5-5v-71.305   c0-2.761,2.239-5,5-5h12.174C122.848,356.219,125.087,358.458,125.087,361.219z M89.958,454.915c-3.771-1.562-8.095,0.229-9.657,4   s0.229,8.095,4,9.657c3.771,1.562,8.095-0.229,9.657-4C95.52,460.801,93.729,456.477,89.958,454.915z M59.122,441.296   c-2.886,2.886-2.886,7.566,0,10.453c2.886,2.887,7.566,2.887,10.453,0c2.886-2.886,2.886-7.566,0-10.453   C66.689,438.409,62.009,438.409,59.122,441.296z M59.122,341.993c-2.886,2.887-2.886,7.566,0,10.453s7.566,2.887,10.453,0   s2.886-7.566,0-10.453C66.689,339.107,62.009,339.107,59.122,341.993z M51.956,363.171c-3.771-1.562-8.095,0.229-9.657,4   c-1.562,3.771,0.229,8.095,4,9.657s8.095-0.229,9.657-4S55.728,364.733,51.956,363.171z M46.299,416.914   c-3.771,1.562-5.562,5.886-4,9.657c1.562,3.771,5.886,5.563,9.657,4c3.771-1.562,5.563-5.886,4-9.657S50.07,415.351,46.299,416.914   z M181.701,376.829c3.771-1.562,5.562-5.886,4-9.657c-1.562-3.771-5.886-5.562-9.657-4c-3.771,1.562-5.563,5.886-4,9.657   S177.93,378.391,181.701,376.829z M114,334.045c4.082,0,7.391-3.309,7.391-7.391c0-4.083-3.309-7.392-7.391-7.392   s-7.391,3.309-7.391,7.392C106.609,330.736,109.918,334.045,114,334.045z M51.174,396.871c0-4.082-3.309-7.392-7.391-7.392   c-4.082,0-7.391,3.31-7.391,7.392s3.309,7.391,7.391,7.391C47.865,404.262,51.174,400.953,51.174,396.871z M143.7,325.17   c-3.771-1.562-8.095,0.229-9.657,4c-1.562,3.771,0.229,8.095,4,9.657c3.771,1.563,8.095-0.229,9.657-4   S147.471,326.732,143.7,325.17z M181.701,416.914c-3.771-1.563-8.095,0.229-9.657,4s0.229,8.095,4,9.657   c3.771,1.562,8.095-0.229,9.657-4C187.263,422.799,185.472,418.476,181.701,416.914z M158.425,341.993   c-2.886,2.887-2.886,7.566,0,10.453s7.566,2.887,10.453,0s2.886-7.566,0-10.453C165.991,339.107,161.311,339.107,158.425,341.993z    M184.217,389.479c-4.082,0-7.391,3.31-7.391,7.392s3.309,7.391,7.391,7.391c4.082,0,7.391-3.309,7.391-7.391   S188.3,389.479,184.217,389.479z M114,459.697c-4.082,0-7.391,3.309-7.391,7.391s3.309,7.391,7.391,7.391s7.391-3.309,7.391-7.391   S118.082,459.697,114,459.697z M84.3,325.17c-3.771,1.562-5.562,5.886-4,9.657s5.886,5.563,9.657,4   c3.771-1.562,5.562-5.886,4-9.657C92.396,325.398,88.072,323.608,84.3,325.17z M138.042,454.915c-3.771,1.563-5.562,5.886-4,9.657   c1.562,3.771,5.886,5.563,9.657,4c3.771-1.563,5.562-5.886,4-9.657S141.814,453.353,138.042,454.915z M158.425,441.296   c-2.886,2.886-2.886,7.566,0,10.453c2.886,2.887,7.566,2.887,10.453,0c2.886-2.886,2.886-7.566,0-10.453   C165.991,438.409,161.311,438.409,158.425,441.296z"/>
	<path style="fill:#FF4927;" d="M285.29,249.737l-58.889,58.889c-0.944,0.943-2.188,1.398-3.425,1.373   c-1.237,0.026-2.482-0.429-3.426-1.373l-29.173-29.173c-1.837-1.836-1.837-4.814,0-6.651l5.627-5.627   c1.837-1.836,4.814-1.836,6.651,0l20.32,20.32l50.036-50.036c1.837-1.836,4.815-1.836,6.651,0l5.627,5.627   C287.127,244.923,287.127,247.901,285.29,249.737z"/>
</g>
</svg>