<svg version="1.1" id="Capa_1" xmlns="http://www.w3.org/2000/svg" xmlns:xlink="http://www.w3.org/1999/xlink" x="0px" y="0px"
	 viewBox="0 0 512 512" width="24px" height="24px" style="enable-background:new 0 0 512 512;" xml:space="preserve">
<path style="fill:#82DCE6;" d="M512,256c0,141.385-114.615,256-256,256S0,397.385,0,256S114.615,0,256,0S512,114.615,512,256z"/>
<path style="fill:#4BCDD7;" d="M180,45c0-8.284-6.716-15-15-15H80.394c-7.7,0-14.455-5.641-15.3-13.294C64.096,7.658,71.154,0,80,0
	h175c8.284,0,15,6.716,15,15s6.716,15,15,15h50c8.846,0,15.904,7.658,14.906,16.706c-0.844,7.653-7.6,13.294-15.3,13.294H195
	C186.716,60,180,53.284,180,45L180,45z M114.576,220H75c8.525,0,15.389-7.111,14.983-15.726C89.603,196.207,82.653,190,74.576,190
	H8.607c-2.603,9.782-4.638,19.794-6.075,30H5c8.284,0,15,6.716,15,15s6.716,15,15,15h80c8.525,0,15.389-7.111,14.983-15.726
	C129.603,226.207,122.653,220,114.576,220z M270,95c0-8.284-6.716-15-15-15h-60c-8.284,0-15,6.716-15,15s6.716,15,15,15h60
	C263.284,110,270,103.284,270,95z M510.694,230h-65.27c-8.077,0-15.026,6.207-15.406,14.274C429.611,252.889,436.475,260,445,260
	h-49.576c-8.077,0-15.026,6.207-15.406,14.274C379.611,282.889,386.475,290,395,290h80c8.284,0,15-6.716,15-15s6.716-15,15-15h6.949
	c0.02-1.333,0.051-2.663,0.051-4C512,247.223,511.556,238.55,510.694,230z M440,165L440,165c0-8.284,6.716-15,15-15h34.084
	c-4.734-10.393-10.15-20.407-16.178-30H455c-8.284,0-15-6.716-15-15s-6.716-15-15-15H305.424c-8.077,0-15.026,6.207-15.406,14.275
	C289.611,112.889,296.475,120,305,120h49.576c8.077,0,15.026,6.207,15.406,14.275C370.389,142.889,363.525,150,355,150H250.424
	c-8.077,0-15.027,6.207-15.407,14.275C234.611,172.889,241.475,180,250,180h175C433.284,180,440,173.284,440,165z"/>
<path style="fill:#323750;" d="M471,340.141c0,44.858-19.969,87.601-54.961,115.669C372.207,490.967,316.562,512,256,512
	c-59.153,0-113.617-20.066-156.962-53.76C62.165,429.576,41,385.162,41,338.458L50,280h410L471,340.141z"/>
<path style="fill:#788CAA;" d="M374.368,359.464l-15.011-19.3c-1.749-2.248-5.072-2.455-7.086-0.441l-22.548,22.548
	c-2.014,2.014-1.807,5.337,0.441,7.086l19.3,15.011c3.77,2.932,9.133,2.598,12.51-0.779l11.614-11.614
	C376.966,368.598,377.3,363.234,374.368,359.464z M158.779,390.694c1.739,1.739,4.609,1.561,6.12-0.381l12.964-16.668
	c2.532-3.256,2.244-7.888-0.673-10.805l-10.031-10.03c-2.917-2.917-7.548-3.205-10.804-0.673l-16.669,12.965
	c-1.942,1.51-2.12,4.38-0.381,6.119L158.779,390.694z M120.208,337.164c-0.512-4.093-3.991-7.164-8.115-7.164H97.907
	c-4.125,0-7.604,3.071-8.115,7.164l-2.619,20.954c-0.305,2.441,1.598,4.597,4.058,4.597h27.539c2.46,0,4.363-2.156,4.058-4.597
	L120.208,337.164z M164.899,459.687c-1.51-1.941-4.38-2.12-6.12-0.381l-19.473,19.473c-1.295,1.295-1.523,3.216-0.755,4.737
	c9.459,4.893,19.258,9.222,29.36,12.924l9.28-9.28c2.917-2.917,3.205-7.549,0.673-10.805L164.899,459.687z M272.391,401.705
	c0.593,4.739,4.621,8.295,9.397,8.295h16.425c4.776,0,8.804-3.556,9.397-8.295l3.033-24.262c0.353-2.826-1.85-5.322-4.698-5.322
	h-31.887c-2.848,0-5.052,2.496-4.698,5.322L272.391,401.705z M188.295,317.609l24.262,3.033c2.826,0.353,5.322-1.85,5.322-4.698
	v-31.887c0-2.848-2.496-5.052-5.322-4.698l-24.262,3.033c-4.739,0.592-8.295,4.621-8.295,9.397v16.425
	C180,312.988,183.556,317.017,188.295,317.609z M362.12,284.056v31.887c0,2.848,2.496,5.052,5.322,4.698l24.262-3.033
	c4.739-0.592,8.295-4.621,8.295-9.397v-16.425c0-4.776-3.556-8.804-8.295-9.397l-24.262-3.033
	C364.616,279.005,362.12,281.208,362.12,284.056z M352.807,416.033c-0.431-3.447-3.361-6.033-6.834-6.033h-11.945
	c-3.473,0-6.403,2.586-6.834,6.033l-2.206,17.645c-0.257,2.055,1.346,3.871,3.417,3.871h23.191c2.071,0,3.674-1.815,3.417-3.871
	L352.807,416.033z M310.79,439.559l-14.037-10.917c-2.742-2.132-6.642-1.89-9.098,0.566l-8.447,8.447
	c-2.456,2.456-2.699,6.356-0.567,9.098l10.917,14.037c1.272,1.635,3.688,1.785,5.153,0.321l16.398-16.398
	C312.575,443.248,312.425,440.831,310.79,439.559z M192.836,409.792l-20.954-2.619c-2.441-0.305-4.597,1.598-4.597,4.058v27.539
	c0,2.459,2.156,4.363,4.597,4.058l20.954-2.619c4.093-0.512,7.164-3.991,7.164-8.115v-14.186
	C200,413.783,196.929,410.304,192.836,409.792z M400.792,437.655l-8.447-8.447c-2.456-2.456-6.357-2.699-9.098-0.566l-14.037,10.917
	c-1.635,1.271-1.786,3.688-0.321,5.153l16.398,16.398c1.465,1.464,3.881,1.314,5.153-0.321l10.917-14.037
	C403.491,444.011,403.248,440.111,400.792,437.655z M227.729,339.723c-2.014-2.014-5.337-1.807-7.086,0.441l-15.011,19.3
	c-2.932,3.77-2.598,9.133,0.779,12.51l11.614,11.614c3.377,3.377,8.74,3.711,12.51,0.779l19.3-15.011
	c2.248-1.749,2.455-5.072,0.441-7.086L227.729,339.723z M283.678,474.987l-17.645,2.206c-3.447,0.431-6.033,3.36-6.033,6.834v11.945
	c0,3.474,2.586,6.403,6.033,6.834l17.645,2.206c2.055,0.257,3.871-1.346,3.871-3.417v-23.19
	C287.549,476.333,285.734,474.73,283.678,474.987z"/>
<path style="fill:#B4C8E1;" d="M290,388c-48.601,0-88-39.399-88-88s39.399-88,88-88s88,39.399,88,88S338.601,388,290,388z M340,426
	c-35.346,0-64,28.654-64,64c0,7.327,1.248,14.358,3.514,20.915c44.411-4.045,85.544-19.422,120.479-43.232
	C390.935,443.342,367.495,426,340,426z M105,349c-21.646,0-41.163,9.061-55,23.585v35.396
	c25.234,34.144,58.747,61.791,97.583,79.975C167.748,474.29,181,451.193,181,425C181,383.026,146.974,349,105,349z"/>
<path style="fill:#788CAA;" d="M290,368.588c-37.88,0-68.588-30.708-68.588-68.588S252.12,231.412,290,231.412
	S358.588,262.12,358.588,300S327.88,368.588,290,368.588z M340,440.118c-27.549,0-49.882,22.333-49.882,49.882
	c0,6.803,1.367,13.286,3.833,19.195c33.887-5.036,65.605-16.712,93.793-33.665C381.541,455.039,362.516,440.118,340,440.118z
	 M105,365.765c-26.188,0-48.391,17.001-56.214,40.562c21.477,29.554,49.116,54.335,81.038,72.454
	c20.311-9.391,34.411-29.934,34.411-53.781C164.235,392.285,137.715,365.765,105,365.765z"/>
<path style="fill:#323750;" d="M319.765,300c0,16.439-13.326,29.765-29.765,29.765S260.235,316.439,260.235,300
	s13.326-29.765,29.765-29.765S319.765,283.561,319.765,300z M340,468.353c-11.955,0-21.647,9.691-21.647,21.647
	c0,4.957,1.67,9.521,4.472,13.17c13.4-3.614,26.37-8.273,38.803-13.913C361.236,477.646,351.706,468.353,340,468.353z M105,399.294
	c-14.197,0-25.706,11.509-25.706,25.706S90.803,450.706,105,450.706s25.706-11.509,25.706-25.706S119.197,399.294,105,399.294z"/>
<path style="fill:#E6B464;" d="M471,130v80v40v144.999c-15.9,24.542-35.889,46.183-59,63.973V300c0-5.523-4.477-10-10-10H110
	c-5.523,0-10,4.477-10,10v158.971c-23.111-17.79-43.1-39.43-59-63.973V250v-40l33.619-12.225V60h77.619v109.55L261,130v76.364
	L471,130z"/>
<path style="fill:#D29650;" d="M261.829,159.373L40.25,239.833c-1.956,0.71-4.024-0.739-4.024-2.82v-23.616
	c0-1.262,0.79-2.39,1.977-2.821l36.416-13.224v-126.3c-4.393-0.673-7.762-4.457-7.762-9.039v-2.857c0-5.057,4.099-9.156,9.156-9.156
	h74.831c5.057,0,9.156,4.099,9.156,9.156v2.857c0,5.057-4.099,9.156-9.156,9.156h-45.762c-5.523,0-10,4.477-10,10v108.753
	l164.699-59.806c1.956-0.71,4.024,0.739,4.024,2.82v23.617C263.805,157.815,263.015,158.942,261.829,159.373z M469.777,130.125
	L261,206.364v30l210.833-76.989c1.184-0.432,1.972-1.558,1.972-2.818v-23.613C473.805,130.86,471.734,129.411,469.777,130.125z
	 M425,220c2.761,0,5-2.239,5-5v-10c0-2.761-2.239-5-5-5h-20c-2.761,0-5,2.239-5,5v5h-15c-2.761,0-5,2.239-5,5v10
	c0,2.761,2.239,5,5,5h20c2.761,0,5-2.239,5-5v-5H425z M445,250h-20c-2.761,0-5,2.239-5,5v10c0,2.761,2.239,5,5,5h20
	c2.761,0,5-2.239,5-5v-10C450,252.239,447.761,250,445,250z M215,205h-20c-2.761,0-5,2.239-5,5v10c0,2.761,2.239,5,5,5h20
	c2.761,0,5-2.239,5-5v-10C220,207.239,217.761,205,215,205z M150,250h-10v-10c0-2.761-2.239-5-5-5h-20c-2.761,0-5,2.239-5,5v10
	c0,2.761,2.239,5,5,5h10v10c0,2.761,2.239,5,5,5h20c2.761,0,5-2.239,5-5v-10C155,252.239,152.761,250,150,250z"/>
<g>
</g>
<g>
</g>
<g>
</g>
<g>
</g>
<g>
</g>
<g>
</g>
<g>
</g>
<g>
</g>
<g>
</g>
<g>
</g>
<g>
</g>
<g>
</g>
<g>
</g>
<g>
</g>
<g>
</g>
</svg>
