<svg id="Layer_1" enable-background="new 0 0 512 512" viewBox="0 0 512 512" width="24px" height="24px" xmlns="http://www.w3.org/2000/svg">
	<g>
		<path d="m493.964 222.822c-12.681-124.865-118.133-222.304-246.343-222.304-136.757 0-247.621 110.864-247.621 247.621 0 41.752 10.333 81.09 28.582 115.597l286.957 33.587c0-8.547 179.27-166.177 178.425-174.501z" fill="#fec502"/>
		<path d="m409.115 435.848c60.919-52.458 91.236-129.224 85.419-206.545-1.845-24.002-35.41-27.626-42.567-4.618-.151.487-.305.974-.459 1.46-6.472 20.359-31.04 28.437-48.364 15.937-.154-.111-.309-.223-.464-.333-8.264-5.899-13.148-15.443-13.148-25.597v-64.923c0-14.403-11.676-26.079-26.079-26.079v-23.894h-194.46-2.563-52.9v219.61c0 26.255-30.291 41.244-50.933 25.02-.44-.345-.878-.692-1.315-1.041-16.923-13.486-39.97 6.21-29.316 25.045 76.902 135.941 258.919 167.77 377.149 65.958z" fill="#ffa50a"/>
		<path d="m158.899 101.304h204.713v317.565h-204.713z" fill="#b6fff6"/>
		<g>
			<path d="m113.689 101.304h51.449v317.565h-51.449z" fill="#97f4ec"/>
		</g>
		<g>
			<path d="m106.512 115c-.262 2.563-.491 5.127-.63 7.701-.313 5.772-.285 11.561-.036 17.335.159 3.693.409 7.381.726 11.063v-36.581c-.008.05-.018.099-.026.149-.011.108-.021.208-.034.333z" fill="#00b7f0"/>
		</g>
		<g>
			<path d="m140.511 77.41h197.022v317.565h-197.022z" fill="#00b7f0"/>
		</g>
		<path d="m275.27 206.805h-99.744c-17.923 0-32.452-14.529-32.452-32.452v-96.943h-55.464v317.565h55.463v-61.293c0-26.706 21.649-48.355 48.355-48.355h83.841v-78.522z" fill="#0091c8"/>
		<path d="m264.801 183.604h-81.94v78.523h81.94c5.782 0 10.469-4.687 10.469-10.469v-57.585c0-5.782-4.687-10.469-10.469-10.469z" fill="#fff"/>
		<path d="m186.619 251.657v-57.585c0-5.782 4.687-10.469 10.469-10.469h-43.545c-5.782 0-10.469 4.687-10.469 10.469v57.585c0 5.782 4.687 10.469 10.469 10.469h43.545c-5.782 0-10.469-4.687-10.469-10.469z" fill="#b6fff6"/>
		<g>
			<circle cx="310.841" cy="310.322" fill="#fff" r="95.365"/>
			<g>
				<g>
					<path d="m377.106 369.651h41.472v55.345h-41.472z" fill="#fff" transform="matrix(.707 -.707 .707 .707 -164.425 397.686)"/>
				</g>
				<circle cx="310.841" cy="310.322" fill="none" r="95.365" stroke="#8757f3" stroke-miterlimit="10" stroke-width="36.287"/>
				<g>
					<path d="m310.841 233.619c20.488 0 39.75 7.979 54.237 22.466 29.907 29.906 29.907 78.568 0 108.475-14.487 14.487-33.749 22.466-54.237 22.466s-39.75-7.979-54.237-22.466-22.466-33.749-22.466-54.237 7.979-39.75 22.466-54.237c14.487-14.488 33.748-22.467 54.237-22.467m0-18.662c-24.406 0-48.812 9.311-67.433 27.932-37.243 37.242-37.243 97.624 0 134.867 18.621 18.621 43.027 27.932 67.433 27.932s48.812-9.311 67.433-27.932c37.242-37.242 37.242-97.624 0-134.867-18.621-18.621-43.027-27.932-67.433-27.932z" fill="#5c2481"/>
				</g>
				<path d="m470.944 492.254c11.135 11.135 38.328 3.667 39.672-.49 3.189-9.864.867-21.121-6.967-28.955l-74.408-74.408-21.993 21.993z" fill="#fb3d80"/>
				<path d="m481.656 484.803-74.408-74.408-18.328 18.328 74.408 74.408c11.135 11.135 29.187 11.134 40.321 0 3.301-3.301 5.615-7.212 6.959-11.369-9.863 3.189-21.119.874-28.952-6.959z" fill="#e21e69"/>
			</g>
		</g>
		<g>
			<g>
				<path d="m102.677 117.333h-29.376c-4.58 0-8.294-3.713-8.294-8.294s3.714-8.294 8.294-8.294h29.376c4.58 0 8.294 3.713 8.294 8.294.001 4.581-3.713 8.294-8.294 8.294z" fill="#fb3d80"/>
			</g>
			<g>
				<path d="m102.677 117.333h-3.457c-4.58 0-8.294-3.713-8.294-8.294s3.714-8.294 8.294-8.294h3.457c4.58 0 8.294 3.713 8.294 8.294.001 4.581-3.713 8.294-8.294 8.294z" fill="#e21e69"/>
			</g>
		</g>
		<g>
			<g>
				<path d="m102.298 153.287h-29.376c-4.58 0-8.294-3.713-8.294-8.294s3.714-8.294 8.294-8.294h29.376c4.58 0 8.294 3.713 8.294 8.294.001 4.581-3.713 8.294-8.294 8.294z" fill="#fb3d80"/>
			</g>
			<g>
				<path d="m102.298 153.287h-3.457c-4.58 0-8.294-3.713-8.294-8.294s3.714-8.294 8.294-8.294h3.457c4.58 0 8.294 3.713 8.294 8.294.001 4.581-3.713 8.294-8.294 8.294z" fill="#e21e69"/>
			</g>
		</g>
		<g>
			<g>
				<path d="m101.919 189.241h-29.376c-4.58 0-8.294-3.713-8.294-8.294s3.714-8.294 8.294-8.294h29.376c4.58 0 8.294 3.713 8.294 8.294.001 4.581-3.713 8.294-8.294 8.294z" fill="#fb3d80"/>
			</g>
			<g>
				<path d="m101.919 189.241h-3.457c-4.58 0-8.294-3.713-8.294-8.294s3.714-8.294 8.294-8.294h3.457c4.58 0 8.294 3.713 8.294 8.294.001 4.581-3.713 8.294-8.294 8.294z" fill="#e21e69"/>
			</g>
		</g>
		<g>
			<g>
				<path d="m101.541 225.195h-29.377c-4.58 0-8.294-3.713-8.294-8.294s3.714-8.294 8.294-8.294h29.376c4.58 0 8.294 3.713 8.294 8.294.001 4.581-3.713 8.294-8.293 8.294z" fill="#fb3d80"/>
			</g>
			<g>
				<path d="m101.541 225.195h-3.457c-4.58 0-8.294-3.713-8.294-8.294s3.714-8.294 8.294-8.294h3.457c4.58 0 8.294 3.713 8.294 8.294s-3.714 8.294-8.294 8.294z" fill="#e21e69"/>
			</g>
		</g>
		<g>
			<g>
				<path d="m101.162 261.149h-29.376c-4.58 0-8.294-3.713-8.294-8.294s3.714-8.294 8.294-8.294h29.376c4.58 0 8.294 3.713 8.294 8.294s-3.714 8.294-8.294 8.294z" fill="#fb3d80"/>
			</g>
			<g>
				<path d="m101.162 261.149h-3.457c-4.58 0-8.294-3.713-8.294-8.294s3.714-8.294 8.294-8.294h3.457c4.58 0 8.294 3.713 8.294 8.294s-3.714 8.294-8.294 8.294z" fill="#e21e69"/>
			</g>
		</g>
		<g>
			<g>
				<path d="m100.783 297.103h-29.376c-4.58 0-8.294-3.713-8.294-8.294s3.714-8.294 8.294-8.294h29.376c4.58 0 8.294 3.713 8.294 8.294 0 4.58-3.714 8.294-8.294 8.294z" fill="#fb3d80"/>
			</g>
			<g>
				<path d="m100.783 297.103h-3.457c-4.58 0-8.294-3.713-8.294-8.294s3.714-8.294 8.294-8.294h3.457c4.58 0 8.294 3.713 8.294 8.294 0 4.58-3.714 8.294-8.294 8.294z" fill="#e21e69"/>
			</g>
		</g>
		<g>
			<g>
				<path d="m100.404 333.056h-29.376c-4.58 0-8.294-3.713-8.294-8.294s3.714-8.294 8.294-8.294h29.376c4.58 0 8.294 3.713 8.294 8.294s-3.714 8.294-8.294 8.294z" fill="#fb3d80"/>
			</g>
			<g>
				<path d="m100.404 333.056h-3.457c-4.58 0-8.294-3.713-8.294-8.294s3.714-8.294 8.294-8.294h3.457c4.58 0 8.294 3.713 8.294 8.294s-3.714 8.294-8.294 8.294z" fill="#e21e69"/>
			</g>
		</g>
		<g>
			<g>
				<path d="m100.025 369.01h-29.376c-4.58 0-8.294-3.713-8.294-8.294s3.714-8.294 8.294-8.294h29.376c4.58 0 8.294 3.713 8.294 8.294s-3.714 8.294-8.294 8.294z" fill="#fb3d80"/>
			</g>
			<g>
				<path d="m100.025 369.01h-3.457c-4.58 0-8.294-3.713-8.294-8.294s3.714-8.294 8.294-8.294h3.457c4.58 0 8.294 3.713 8.294 8.294s-3.714 8.294-8.294 8.294z" fill="#e21e69"/>
			</g>
		</g>
	</g>
</svg>