<svg id="Layer_1" enable-background="new 0 0 512 512" viewBox="0 0 512 512" width="24px" height="24px" xmlns="http://www.w3.org/2000/svg">
	<g>
		<path d="m65.545 421.104 152.875 88.028c12.251 1.886 24.801 2.868 37.58 2.868s25.329-.982 37.58-2.867l152.875-88.028c34.104-42.095 54.547-95.71 54.547-154.107 0-135.311-109.691-245.002-245.002-245.002s-245.002 109.691-245.002 245.002c0 58.397 20.443 112.011 54.547 154.106z" fill="#2a428c"/>
		<path d="m441.339 210.566-12.209-5.737c.588 5.598.923 10.086 1.107 13.082.163 2.652-.527 5.305-1.944 7.471-11.238 17.19-26.986 29.352-38.217 36.529-9.998 6.389-21.578 9.766-33.488 9.766h-100.588-100.589c-11.91 0-23.49-3.377-33.488-9.766-11.232-7.176-26.979-19.339-38.217-36.529-1.417-2.166-2.107-4.819-1.944-7.471.184-2.997.52-7.484 1.107-13.082l-12.209 5.737c-10.943 5.142-16.43 17.533-12.92 29.103 4.602 15.171 12.125 36.006 22.604 52.596 4.693 7.43 10.588 13.661 16.79 18.827 16.886 14.066 38.367 21.42 60.344 21.42h197.042c21.978 0 43.458-7.354 60.344-21.42 6.202-5.166 12.097-11.397 16.79-18.827 10.478-16.59 18.001-37.425 22.604-52.596 3.511-11.57-1.976-23.961-12.919-29.103z" fill="#ffe98d"/>
		<path d="m217.686 273.07-.583-1.393h-61.691c-11.91 0-23.49-3.377-33.488-9.766-11.232-7.176-26.979-19.339-38.217-36.529-1.417-2.166-2.107-4.819-1.944-7.471.184-2.997.52-7.484 1.107-13.082l-12.209 5.737c-10.943 5.142-16.43 17.533-12.92 29.103 4.602 15.171 12.125 36.006 22.604 52.596 4.693 7.43 10.588 13.661 16.79 18.827 16.886 14.066 38.367 21.42 60.344 21.42h60.207c-38.314-32.536 0-59.442 0-59.442z" fill="#ffdd40"/>
		<path d="m437.618 402.57c-14.51-13.455-44.621-37.52-74.369-37.52-41.29 0-107.249 0-107.249 0s-65.959 0-107.249 0c-29.748 0-59.859 24.065-74.369 37.52-5.22 4.84-8.352 11.479-8.837 18.534 8.594 10.608 18.061 20.479 28.283 29.516l100.399 47.37 34.584-28.745c15.76-13.099 38.619-13.099 54.379 0l40.159 33.379c49.064-13.997 91.83-42.913 123.107-81.519-.486-7.056-3.617-13.695-8.838-18.535z" fill="#e9efff"/>
		<path d="m194.226 497.99 33.403-27.764c-.128-2.2-1.406-4.222-3.407-5.327-31.351-17.312-18.744-54.908-13.45-67.388 1.017-2.397.49-5.157-1.315-7.033-9.101-9.464-4.487-17.715-.504-22.094.868-.955 1.367-2.122 1.54-3.334-20.148 0-43.384 0-61.744 0-29.748 0-59.859 24.065-74.369 37.52-5.22 4.84-8.352 11.479-8.837 18.534 8.594 10.608 18.061 20.479 28.283 29.516z" fill="#bec8f7"/>
		<path d="m415.084 420.395c-19.164-16.974-38.331-27.003-51.835-27.003h-63.113c-6.191 0-12.186 2.166-16.947 6.123-15.76 13.099-38.619 13.099-54.379 0-4.761-3.957-10.756-6.123-16.947-6.123h-63.113c-13.503 0-32.671 10.029-51.835 27.003-1.971 1.745-3.102 4.257-3.102 6.889v23.329c26.982 23.851 59.251 41.857 94.837 52.01l40.159-33.379c15.76-13.099 38.619-13.099 54.379 0l40.159 33.379c35.586-10.152 67.855-28.158 94.837-52.01v-23.329c.002-2.632-1.129-5.143-3.1-6.889z" fill="#73c3f9"/>
		<path d="m227.629 470.226c-.128-2.2-1.406-4.222-3.407-5.327-31.351-17.312-18.744-54.908-13.45-67.388.566-1.333.637-2.775.294-4.119h-62.316c-13.503 0-32.671 10.029-51.835 27.003-1.971 1.745-3.102 4.257-3.102 6.889v23.329c26.982 23.851 59.251 41.857 94.837 52.01z" fill="#4fabf7"/>
		<path d="m283.189 467.145c-15.76-13.099-38.619-13.099-54.379 0l-42.02 34.925c10.28 3.022 20.835 5.401 31.629 7.063l19.727-16.397c10.348-8.601 25.357-8.601 35.705 0l19.727 16.397c10.793-1.662 21.349-4.041 31.629-7.062z" fill="#9bd8f9"/>
		<path d="m234.796 491.291c-8.54-4.703-8.32-13.952-7.247-19.539.22-1.144.092-2.278-.29-3.318l-40.469 33.636c10.28 3.022 20.835 5.401 31.629 7.063l18.747-15.582c-.575-.927-1.38-1.715-2.37-2.26z" fill="#73c3f9"/>
		<path d="m250.906 18.317c-16.974.564-73.039 5.798-116.268 49.026-45.159 45.159-53.013 130.117-54.267 150.484-.18 2.933.561 5.86 2.169 8.319 11.153 17.06 26.618 29.262 38.633 36.939 10.224 6.533 22.105 9.985 34.238 9.985h95.495z" fill="#ffc839"/>
		<path d="m431.628 217.827c-1.253-20.366-9.107-105.324-54.266-150.483-45.007-45.007-103.934-48.829-118.165-49.075v254.801h97.392c12.132 0 24.014-3.452 34.238-9.985 12.015-7.678 27.479-19.879 38.633-36.939 1.607-2.459 2.349-5.387 2.168-8.319z" fill="#ffdd40"/>
		<path d="m193.243 210.922c18.249-17.274 40.002-43.932 40.002-72.836v-125.102c0-.171.017-.338.025-.507-8.648 1.219-19.21 3.323-30.71 6.948-6.592 2.078-11.093 8.177-11.093 15.089v178.179c.588-.595 1.168-1.195 1.776-1.771z" fill="#ff9100"/>
		<path d="m278.756 12.984v125.103c0 28.905 21.753 55.562 40.002 72.836.608.575 1.188 1.175 1.775 1.769v-178.179c0-6.912-4.5-13.011-11.093-15.089-11.5-3.625-22.061-5.729-30.709-6.948.008.17.025.337.025.508z" fill="#ffb332"/>
		<path d="m319.716 209.91c-18.041-17.075-39.568-43.404-39.568-71.824v-125.102c0-6.508-4.999-11.917-11.484-12.461-8.208-.688-16.888-.708-25.33 0-6.485.543-11.484 5.953-11.484 12.461v125.102c0 28.419-21.527 54.748-39.567 71.823-15.463 14.635-24.21 34.989-24.21 56.28v6.881h175.851v-6.881c.002-21.29-8.745-41.644-24.208-56.279z" fill="#ffc839"/>
		<path d="m245.759 223.899c-38.929-11.445-21.873-54.7-21.873-54.7-7.904 15.988-20.421 30.128-31.602 40.711-15.463 14.635-24.21 34.989-24.21 56.28v6.881h77.685z" fill="#ffb332"/>
		<path d="m294.314 273.07v-12.305c0-20.058-15.72-38.217-38.742-38.177-20.971.036-37.887 17.215-37.887 38.187v12.295z" fill="#ffdd40"/>
		<path d="m428.16 186.602c-5.393-34.674-18.547-86.658-50.383-118.832-11.993 5.356-27.777 16.618-27.777 38.81 0 35.79 3.684 109.938 33.684 109.938 19.342.001 35.458-14.85 44.476-29.916z" fill="#ffe98d"/>
		<g fill="#9bd8f9">
			<path d="m346.823 494.584c11.851-4.735 23.248-10.361 34.101-16.81l-84.143-84.143c-4.976.636-9.699 2.65-13.592 5.885-6.448 5.359-14.085 8.523-21.937 9.497z"/>
			<path d="m322 393.393 74.391 74.392c4.967-3.48 9.789-7.15 14.476-10.98l-63.412-63.412z"/>
		</g>
	</g>
</svg>