<svg viewBox="0 0 512 512" width="24px" height="24px" xmlns="http://www.w3.org/2000/svg">
	<path d="M512 256c0 4.273-.105 8.527-.313 12.758a241.276 241.276 0 0 1-.46 7.187 249.744 249.744 0 0 1-1.305 12.864c-.324 2.5-.68 4.996-1.078 7.472-.43 2.707-.887 5.403-1.399 8.078a244.3 244.3 0 0 1-2.53 11.704 247.067 247.067 0 0 1-5.653 19.882c-16.121 49.133-46.739 91.711-86.778 122.672a246.22 246.22 0 0 1-6.992 5.223c-.125.094-.25.18-.375.273a242.645 242.645 0 0 1-9.445 6.457 253.39 253.39 0 0 1-20.754 12.196 176.806 176.806 0 0 1-3.207 1.648 257.362 257.362 0 0 1-8.223 3.992 158.76 158.76 0 0 1-3.426 1.559c-2.132.95-4.285 1.867-6.449 2.758C323.531 505.145 290.566 512 256 512c-85.996 0-162.086-42.402-208.508-107.438a235.19 235.19 0 0 1-4.66-6.75 252.834 252.834 0 0 1-8.059-12.902 5.046 5.046 0 0 0-.199-.336 262.799 262.799 0 0 1-4.367-7.836 249.164 249.164 0 0 1-10.742-22.675 202.838 202.838 0 0 1-1.766-4.356 57.92 57.92 0 0 1-.719-1.84 251.472 251.472 0 0 1-7.285-21.86 215.9 215.9 0 0 1-1.547-5.714C3.04 300.574.23 279.918.02 258.653 0 257.765 0 256.886 0 256c0-10.73.66-21.316 1.945-31.703.48-3.899 1.043-7.762 1.703-11.598.008-.043.008-.082.02-.125a250.95 250.95 0 0 1 3.605-17.398c.868-3.551 1.809-7.082 2.82-10.586v-.008c.524-1.789 1.067-3.562 1.622-5.328a255.932 255.932 0 0 1 5.965-16.875 230.914 230.914 0 0 1 5.172-12.195c.261-.598.535-1.18.804-1.778.293-.656.598-1.316.91-1.965a252.835 252.835 0 0 1 10.657-20.093c28.422-48.317 72.246-86.465 124.73-107.72a252.785 252.785 0 0 1 21.555-7.616C205.082 3.844 230.086 0 256 0c141.387 0 256 114.613 256 256zm0 0" fill="#40649c"/>
	<path d="M290.156 141.645c0 73.375-59.472 132.84-132.836 132.84-71.754 0-130.226-56.883-132.754-128.044 30.637-64.625 87.551-114.363 156.942-135.43 61.816 11.372 108.648 65.54 108.648 130.634zm0 0" fill="#fcbc77"/>
	<path d="M280.379 141.645c0 67.96-55.098 123.058-123.059 123.058-67.96 0-123.047-55.098-123.047-123.058 0-5.18.325-10.282.95-15.297 28.422-48.317 72.246-86.465 124.73-107.72C226.7 20.032 280.38 74.563 280.38 141.646zm0 0" fill="#fee175"/>
	<path d="M260.02 141.652c0 56.72-45.98 102.696-102.7 102.696S54.625 198.37 54.625 141.652c0-56.722 45.977-102.699 102.695-102.699s102.7 45.977 102.7 102.7zm0 0" fill="#fcbc77"/>
	<path d="M245.836 141.652c0 4.395-.316 8.727-.941 12.957-5.649 38.512-36.106 68.97-74.618 74.618-4.23.625-8.55.945-12.957.945-13.492 0-26.28-3.024-37.73-8.442a87.676 87.676 0 0 1-21.02-13.875A88.276 88.276 0 0 1 85.88 193.91c-10.734-14.644-17.074-32.71-17.074-52.258 0-.152 0-.297.011-.449.23-48.543 39.536-87.836 88.067-88.066.14-.012.297-.012.437-.012 19.559 0 37.625 6.34 52.27 17.086a87.146 87.146 0 0 1 13.933 12.691 87.688 87.688 0 0 1 13.88 21.02c5.413 11.45 8.433 24.238 8.433 37.73zm0 0" fill="#fee175"/>
	<g fill="#ffeeb8">
		<path d="M209.59 70.21 85.879 193.91c-10.734-14.644-17.074-32.71-17.074-52.258 0-.152 0-.297.011-.449l88.067-88.066c.14-.012.293-.012.437-.012 19.559 0 37.621 6.34 52.27 17.086zM237.398 103.922 119.59 221.734a87.807 87.807 0 0 1-21.02-13.879L223.52 82.902a87.688 87.688 0 0 1 13.878 21.02zM244.895 154.61c-5.649 38.511-36.106 68.968-74.618 74.617zm0 0"/>
	</g>
	<path d="M152.762 200.988c-19.887-.664-36.133-10.937-36.133-21.547 0-5.636 4.973-13.921 11.273-13.921 6.961 0 12.594 9.777 24.86 11.933v-26.851c-15.246-5.801-33.149-12.93-33.149-34.145 0-21.05 15.582-31.16 33.149-33.648v-4.641c0-2.32 2.652-4.473 6.3-4.473 3.149 0 6.297 2.153 6.297 4.473v4.144c10.278.333 29.668 2.985 29.668 14.422 0 4.473-2.98 13.59-10.277 13.59-5.469 0-8.617-5.304-19.39-6.133v24.2c15.081 5.632 32.652 13.425 32.652 35.8 0 20.551-13.262 32.985-32.653 36.133v4.805c0 2.32-3.148 4.476-6.297 4.476-3.648 0-6.3-2.156-6.3-4.476zm1.66-76.574v-19.727c-7.461 1.493-10.61 5.305-10.61 9.286 0 4.804 4.31 7.789 10.61 10.441zm9.281 30.664v22.207c5.637-1.324 10.11-4.472 10.11-10.441 0-5.469-4.145-8.95-10.11-11.766zm0 0" fill="#f2a85f"/>
	<path d="M216.504 266.68v5.965c0 5.078-4.117 9.195-9.188 9.195h-36.902l35.64 9.55c4.9 1.305 7.817 6.344 6.5 11.255l-1.546 5.757c-1.309 4.899-6.356 7.817-11.254 6.5l-35.64-9.55 31.96 18.441c4.39 2.539 5.895 8.16 3.356 12.559l-2.977 5.164c-2.539 4.398-8.164 5.902-12.55 3.363l-31.954-18.453 26.09 26.09c3.586 3.597 3.586 9.418 0 13l-4.219 4.222a9.207 9.207 0 0 1-13 0l-26.09-26.093 18.454 31.953c2.539 4.39 1.03 10.011-3.368 12.55l-5.16 2.977c-4.398 2.54-10.02 1.035-12.558-3.352l-18.446-31.964 9.551 35.64c1.309 4.903-1.598 9.95-6.5 11.254l-5.766 1.547c-4.902 1.316-9.937-1.598-11.253-6.5l-9.54-35.64v36.906c0 5.066-4.117 9.183-9.195 9.183H74.98c-5.066 0-9.183-4.117-9.183-9.183v-36.907l-9.55 35.641a9.2 9.2 0 0 1-8.755 6.813 235.19 235.19 0 0 1-4.66-6.75 252.834 252.834 0 0 1-8.059-12.903 5.046 5.046 0 0 0-.199-.336l7.711-28.765-12.078 20.93a252.504 252.504 0 0 1-12.508-27.032l3.5-6.062-4.219 4.222C6.02 319.352 0 288.371 0 256c0-14.754 1.254-29.227 3.648-43.3l.344.198-.324-.324a255.496 255.496 0 0 1 6.426-27.984l11.105 11.098-9.484-16.434a255.932 255.932 0 0 1 5.965-16.875 230.914 230.914 0 0 1 5.172-12.195c.367.418.691.879.984 1.379l18.45 31.953-9.548-35.641a9.18 9.18 0 0 1 6.496-11.254l5.758-1.535a9.182 9.182 0 0 1 11.254 6.488l9.55 35.64V140.32c0-5.078 4.118-9.187 9.184-9.187h5.97c5.077 0 9.195 4.11 9.195 9.187v36.895l9.539-35.64a9.182 9.182 0 0 1 11.254-6.49l5.765 1.536a9.195 9.195 0 0 1 6.5 11.254l-9.55 35.64 18.445-31.952c2.539-4.399 8.16-5.903 12.558-3.364l5.16 2.989c4.399 2.527 5.907 8.148 3.368 12.546l-18.454 31.954 26.09-26.09a9.2 9.2 0 0 1 13 0l4.22 4.222c3.585 3.582 3.585 9.403 0 12.989l-26.09 26.09 31.952-18.442c4.387-2.539 10.012-1.035 12.551 3.363l2.977 5.16a9.186 9.186 0 0 1-3.356 12.551l-31.96 18.453 35.64-9.55c4.898-1.317 9.945 1.597 11.254 6.5l1.547 5.757c1.316 4.899-1.602 9.938-6.5 11.254l-35.64 9.551h36.901c5.07 0 9.188 4.113 9.188 9.184zm0 0" fill="#fcbc77"/>
	<path d="M210.809 269.668c0 73.363-59.477 132.836-132.84 132.836-12.16 0-23.95-1.64-35.137-4.691C15.777 357.219 0 308.445 0 256c0-38.422 8.465-74.879 23.656-107.594 16.582-7.437 34.961-11.578 54.313-11.578 73.363 0 132.84 59.477 132.84 132.84zm0 0" fill="#fcbc77"/>
	<path d="M201.016 269.668c0 67.96-55.086 123.047-123.047 123.047-15.203 0-29.758-2.758-43.196-7.805C12.676 347.05 0 303 0 256c0-33.04 6.258-64.625 17.68-93.621 17.816-10.043 38.39-15.77 60.289-15.77 67.96 0 123.047 55.098 123.047 123.059zm0 0" fill="#fee175"/>
	<path d="M180.664 269.668c0 56.715-45.976 102.691-102.695 102.691-21.742 0-41.899-6.761-58.504-18.296a202.838 202.838 0 0 1-1.766-4.356 57.92 57.92 0 0 1-.719-1.84C6.02 319.352 0 288.371 0 256c0-14.754 1.254-29.227 3.648-43.3.008-.044.008-.083.02-.126a250.95 250.95 0 0 1 3.605-17.398c18.41-17.48 43.301-28.211 70.696-28.211 56.719 0 102.695 45.984 102.695 102.703zm0 0" fill="#fcbc77"/>
	<path d="M166.484 269.668c0 4.398-.312 8.723-.941 12.957-5.652 38.516-36.113 68.973-74.625 74.613a87.868 87.868 0 0 1-12.95.953c-13.5 0-26.288-3.03-37.73-8.441a87.83 87.83 0 0 1-21.023-13.879 89.08 89.08 0 0 1-9.52-9.863 215.9 215.9 0 0 1-1.547-5.715C3.04 300.574.23 279.918.02 258.653 0 257.765 0 256.886 0 256c0-10.73.66-21.316 1.945-31.703 15.39-25.735 43.465-42.985 75.586-43.145.137-.007.293-.007.438-.007 19.55 0 37.617 6.332 52.265 17.082a86.58 86.58 0 0 1 13.93 12.687c5.582 6.277 10.281 13.344 13.875 21.023 5.426 11.45 8.445 24.239 8.445 37.731zm0 0" fill="#fee175"/>
	<path d="M130.234 198.227 8.148 320.293C3.04 300.574.23 279.918.02 258.653l77.511-77.5c.137-.008.293-.008.438-.008 19.55 0 37.617 6.332 52.265 17.082zM158.047 231.938 40.234 349.745a87.753 87.753 0 0 1-21.02-13.875l124.954-124.953a87.688 87.688 0 0 1 13.879 21.02zM165.54 282.621c-5.65 38.512-36.106 68.973-74.618 74.617zm0 0" fill="#ffeeb8"/>
	<path d="M73.41 329.004c-19.89-.664-36.133-10.942-36.133-21.547 0-5.637 4.973-13.922 11.27-13.922 6.96 0 12.598 9.777 24.863 11.934v-26.852c-15.25-5.8-33.148-12.93-33.148-34.144 0-21.051 15.578-31.16 33.148-33.649v-4.64c0-2.32 2.653-4.473 6.297-4.473 3.148 0 6.297 2.152 6.297 4.473v4.144c10.277.332 29.672 2.984 29.672 14.422 0 4.473-2.985 13.59-10.278 13.59-5.468 0-8.62-5.305-19.394-6.133v24.2c15.086 5.636 32.652 13.425 32.652 35.8 0 20.555-13.258 32.984-32.652 36.133v4.808c0 2.32-3.149 4.473-6.297 4.473-3.644 0-6.297-2.152-6.297-4.473zm1.656-76.578v-19.723c-7.457 1.492-10.609 5.305-10.609 9.281 0 4.809 4.313 7.793 10.61 10.442zm9.282 30.664v22.21c5.636-1.323 10.109-4.476 10.109-10.44 0-5.47-4.14-8.954-10.11-11.77zm0 0" fill="#f2a85f"/>
	<path d="M479.785 93.77a1886.974 1886.974 0 0 1-135.25 402.504 253.396 253.396 0 0 1-44.89 12.015A256.7 256.7 0 0 1 256 512c-26.957 0-52.945-4.168-77.344-11.89a32.754 32.754 0 0 1-11.64-4.005c-42.871-15.89-80.332-42.945-108.836-77.625a254.064 254.064 0 0 1-23.032-32.933A1559.738 1559.738 0 0 0 159.128 30.05a37.919 37.919 0 0 1 5.747-13.363c8.348-12.235 23.426-18.954 38.84-15.989l12.39 2.395c57.02 11.011 114.04 22.015 171.063 33.02 20.824 4.019 41.656 8.042 62.484 12.066 21.055 4.066 34.637 24.629 30.133 45.59zm0 0" fill="#36b990"/>
	<path d="M432.422 141.824c-17.953 72.715-40.356 144.469-66.918 214.297-19.613 51.566-41.629 102.41-65.86 152.168A256.7 256.7 0 0 1 256 512c-26.957 0-52.945-4.168-77.344-11.89a32.754 32.754 0 0 1-11.64-4.005c-42.871-15.89-80.332-42.945-108.836-77.625a1602.093 1602.093 0 0 0 67.836-153.464 1599.6 1599.6 0 0 0 54.449-171.832c28.828 6.843 58.965-8.579 69.789-37.02a62.34 62.34 0 0 0 2.84-9.957l133.914 25.871c-5.453 28.074 9.906 56.852 37.555 67.363a57.714 57.714 0 0 0 7.859 2.383zM188.695 59.488c1.918-8.191 3.762-16.41 5.54-24.629l24.78 4.778a24.262 24.262 0 0 1-1.183 4.199c-4.527 11.898-17.074 18.387-29.137 15.652zM436.89 107.027c-11.644-4.43-18.109-16.55-15.804-28.375l24.781 4.778a1735.18 1735.18 0 0 1-5.433 24.656 25.144 25.144 0 0 1-3.543-1.059zm0 0" fill="#77d9a5"/>
	<path d="M209.45 407.617c60.206 22.899 125.503-1.887 145.843-55.363 20.336-53.473-11.984-115.387-72.191-138.29-60.211-22.898-125.508 1.888-145.844 55.364-20.34 53.477 11.98 115.387 72.191 138.29zm0 0" fill="#36b990"/>
	<path d="m334 332.008-6.34-2.406c5.567-27.145-4.172-50.864-31.265-61.168-29.497-11.223-48.575 8.035-63.57 25.09l-31.903-12.133c6.5-13.793 15.07-15.278 17.816-22.485 3.657-9.625-6.863-18.129-12.77-20.367-15.077-5.734-28.292 18.496-33.882 31.879l-5.465-2.078c-3.062-1.16-7.484 1.914-9.062 6.062-1.829 4.805-.313 9.383 2.738 10.543l6.125 2.328c-5.54 24.41-.024 50.02 27.73 60.575 27.973 10.644 46.34-9.383 61.641-26.575l35.398 13.461c-8.996 15.086-24.71 17.618-28.199 26.79-3.156 8.308 5.274 19.019 12.703 21.84 13.98 5.327 35.676-10.942 46.52-36.825l5.465 2.082c3.062 1.16 7.23-1.254 9.058-6.062 1.578-4.157.317-9.383-2.738-10.551zm-130.988-17.305c-5.242-1.996-8.692-8.058-6.914-18.64l25.996 9.894c-6.645 6.969-12.75 11.16-19.082 8.746zm93.445 5.527-29.277-11.14c6.699-6.457 13.363-10.164 20.586-7.43 7.855 3 9.77 10.473 8.691 18.57zm0 0" fill="#77d9a5"/>
	<path d="M335.926 151.184c0 17.796-14.43 32.226-32.227 32.226-17.8 0-32.226-14.43-32.226-32.226 0-17.801 14.425-32.23 32.226-32.23 17.797 0 32.227 14.429 32.227 32.23zM213.242 479.64c-5.453 14.325-20.02 22.516-34.586 20.47a32.754 32.754 0 0 1-11.64-4.005c-13.489-7.75-19.739-24.375-14.024-39.378 6.332-16.637 24.946-24.997 41.578-18.665 16.645 6.32 24.993 24.942 18.672 41.579zm0 0" fill="#36b990"/>
	<path d="m508.844 296.281-17.2 17.2 15.801-9.122c-12.507 65.41-49.906 121.98-101.953 159.48v-1.148l-.375 1.422a256.108 256.108 0 0 1-30.199 18.653l7.066-26.375-18.453 31.953c-.011.02-.023.043-.043.062a232.067 232.067 0 0 1-9.875 4.317 8.828 8.828 0 0 1-2.633-1.016l-5.16-2.988c-4.398-2.528-5.906-8.149-3.367-12.547l18.445-31.953-26.093 26.09c-3.582 3.582-9.403 3.582-12.989 0l-4.218-4.223c-3.586-3.582-3.586-9.402 0-12.988l26.09-26.09-31.954 18.441a9.184 9.184 0 0 1-12.546-3.351l-2.993-5.172c-2.527-4.39-1.023-10.012 3.368-12.551l31.953-18.453-35.641 9.55c-4.902 1.317-9.938-1.59-11.254-6.5l-1.539-5.757c-1.316-4.899 1.59-9.938 6.492-11.254l35.64-9.55H288.32c-5.07 0-9.187-4.118-9.187-9.184v-5.965c0-5.078 4.117-9.196 9.187-9.196h36.895l-35.64-9.55c-4.903-1.305-7.81-6.344-6.493-11.243l1.54-5.77c1.315-4.898 6.35-7.804 11.253-6.5l35.64 9.552-31.952-18.442c-4.391-2.539-5.895-8.16-3.368-12.558l2.993-5.164a9.178 9.178 0 0 1 12.546-3.364l31.954 18.453-26.09-26.09a9.2 9.2 0 0 1 0-13l4.218-4.222c3.586-3.582 9.407-3.582 12.989 0l26.093 26.094-18.445-31.953c-2.539-4.391-1.031-10.012 3.367-12.551l5.16-2.977c4.399-2.539 10.012-1.035 12.551 3.352l18.453 31.965-9.55-35.641c-1.317-4.902 1.597-9.95 6.5-11.254l5.757-1.547c4.899-1.316 9.946 1.598 11.25 6.5l9.551 35.64v-36.905c0-5.067 4.117-9.184 9.196-9.184h5.957c5.078 0 9.195 4.117 9.195 9.184v36.906l9.55-35.64c1.305-4.903 6.352-7.817 11.255-6.5l5.757 1.546c4.899 1.305 7.817 6.352 6.496 11.254l-9.546 35.64 18.453-31.964c2.527-4.387 8.148-5.89 12.547-3.352l5.164 2.977c4.398 2.539 5.902 8.16 3.363 12.55l-18.453 31.954 26.09-26.094a9.2 9.2 0 0 1 11.172-1.41 256.309 256.309 0 0 1-2.844 27.523zm0 0" fill="#fcbc77"/>
	<path d="M511.227 275.945a250.778 250.778 0 0 1-2.383 20.336c-.43 2.707-.887 5.403-1.399 8.078-12.507 65.41-49.906 121.98-101.953 159.48-.125.095-.25.18-.375.274a256.108 256.108 0 0 1-30.199 18.653 250.113 250.113 0 0 1-11.43 5.64 158.76 158.76 0 0 1-3.426 1.559c-44.515-21.453-75.234-67-75.234-119.727 0-73.363 59.477-132.836 132.84-132.836 36.488 0 69.559 14.723 93.559 38.543zm0 0" fill="#fcbc77"/>
	<path d="M509.922 288.809c-.324 2.5-.68 4.996-1.078 7.472-.43 2.707-.887 5.403-1.399 8.078-12.507 65.41-49.906 121.98-101.953 159.48-.125.095-.25.18-.375.274a256.108 256.108 0 0 1-30.199 18.653 176.806 176.806 0 0 1-3.207 1.648c-45.203-18.203-77.102-62.465-77.102-114.176 0-67.96 55.098-123.047 123.059-123.047 36.727 0 69.703 16.09 92.254 41.618zm0 0" fill="#fee175"/>
	<path d="M504.914 316.063c-14.523 60.433-50.5 112.535-99.422 147.777-.125.094-.25.18-.375.273a242.645 242.645 0 0 1-9.445 6.457c-46.152-10.062-80.707-51.168-80.707-100.332 0-56.715 45.984-102.691 102.703-102.691 36.832 0 69.14 19.39 87.246 48.515zm0 0" fill="#fcbc77"/>
	<path d="M499.262 335.945c-16.121 49.133-46.739 91.711-86.778 122.672a87.733 87.733 0 0 1-32.55-8.297 88.088 88.088 0 0 1-21.024-13.875 87.859 87.859 0 0 1-12.683-13.941c-10.743-14.649-17.075-32.715-17.075-52.254 0-.156 0-.305.012-.46.23-48.536 39.527-87.833 88.063-88.063.148-.012.293-.012.441-.012 19.559 0 37.613 6.344 52.266 17.086a87.718 87.718 0 0 1 13.937 12.695 87.39 87.39 0 0 1 13.875 21.024 62.423 62.423 0 0 1 1.516 3.425zm0 0" fill="#fee175"/>
	<path d="M469.934 298.805 346.223 422.504c-10.735-14.649-17.075-32.711-17.075-52.258 0-.156 0-.297.012-.453l88.067-88.063c.144-.011.296-.011.441-.011 19.555 0 37.621 6.336 52.266 17.086zM497.746 332.512 379.934 450.324a87.807 87.807 0 0 1-21.02-13.879l124.953-124.953a87.688 87.688 0 0 1 13.88 21.02zm0 0" fill="#ffeeb8"/>
	<path d="M413.11 429.578c-19.891-.664-36.133-10.937-36.133-21.547 0-5.633 4.972-13.922 11.27-13.922 6.96 0 12.593 9.782 24.862 11.934v-26.848c-15.25-5.804-33.152-12.93-33.152-34.144 0-21.051 15.582-31.164 33.152-33.649v-4.64c0-2.32 2.649-4.477 6.297-4.477 3.149 0 6.297 2.156 6.297 4.477v4.144c10.277.332 29.668 2.985 29.668 14.418 0 4.477-2.98 13.594-10.273 13.594-5.473 0-8.621-5.305-19.395-6.133v24.2c15.082 5.632 32.652 13.425 32.652 35.8 0 20.55-13.257 32.985-32.652 36.133v4.805c0 2.32-3.148 4.476-6.297 4.476-3.648 0-6.297-2.156-6.297-4.476zm1.656-76.574V333.28c-7.457 1.492-10.61 5.301-10.61 9.281 0 4.805 4.313 7.79 10.61 10.442zm9.28 30.664v22.21c5.638-1.327 10.114-4.476 10.114-10.444 0-5.47-4.144-8.95-10.113-11.766zm0 0" fill="#f2a85f"/>
	<path d="m417.227 281.727 33.363-8.446c13.496-3.414 13.496-22.59 0-26.008l-33.363-8.445a13.415 13.415 0 0 1-9.715-9.71l-8.442-33.364c-3.418-13.5-22.593-13.5-26.011 0l-8.446 33.363a13.404 13.404 0 0 1-9.71 9.711l-33.364 8.445c-13.496 3.418-13.496 22.594 0 26.008l33.363 8.446a13.41 13.41 0 0 1 9.711 9.714l8.446 33.364c3.418 13.496 22.593 13.496 26.011 0l8.442-33.364a13.42 13.42 0 0 1 9.715-9.714zm0 0" fill="#f1f4fe"/>
</svg>