<svg viewBox="0 -5 512 511" width="24px" height="24px" xmlns="http://www.w3.org/2000/svg">
	<path d="m130.058594 466.679688c-71.328125-42.828126-119.058594-120.925782-119.058594-210.179688 0-135.132812 109.40625-244.714844 244.472656-245 135.617188-.285156 245.042969 108.492188 245.523438 244.109375.324218 89.984375-47.875 168.730469-119.917969 211.589844-7.730469 4.597656-16.582031 6.96875-25.570313 6.96875h-198.238281c-9.578125 0-19-2.554688-27.210937-7.488281zm0 0" fill="#97f0f2"/>
	<path d="m309.03125 36.609375c-3.902344 3.90625-10.234375 3.90625-14.140625 0-10.386719-10.386719-24.199219-16.109375-38.890625-16.109375s-28.503906 5.722656-38.890625 16.109375c-3.90625 3.90625-10.238281 3.90625-14.144531 0-1.949219-1.953125-2.929688-4.511719-2.929688-7.070313 0-2.558593.980469-5.121093 2.929688-7.070312 14.167968-14.167969 33.003906-21.96875 53.035156-21.96875s38.867188 7.800781 53.03125 21.96875c3.90625 3.902344 3.90625 10.234375 0 14.140625zm-87.082031 19.53125c-1.949219 1.953125-2.925781 4.511719-2.925781 7.070313 0 2.558593.976562 5.121093 2.925781 7.070312 3.90625 3.90625 10.238281 3.90625 14.144531 0 10.976562-10.976562 28.835938-10.976562 39.8125 0 3.90625 3.90625 10.238281 3.90625 14.144531 0 3.902344-3.902344 3.902344-10.234375 0-14.140625-18.777343-18.773437-49.324219-18.773437-68.101562 0zm0 0" fill="#30d6ce"/>
	<path d="m329.320312 470.5h-146.640624c-8.285157 0-15-6.714844-15-15v-53.523438c0-8.285156 6.714843-15 15-15h146.640624c8.285157 0 15 6.714844 15 15v53.523438c0 8.285156-6.714843 15-15 15zm0 0" fill="#025f80"/>
	<path d="m480 105.101562v296.398438c0 8.285156-6.714844 15-15 15h-120.679688v39c0 8.285156-6.714843 15-15 15h-121.988281c-8.28125 0-15-6.714844-15-15v-39h-177.332031c-8.285156 0-15-6.714844-15-15v-296.398438c0-8.285156 6.714844-15 15-15h450c8.285156 0 15 6.714844 15 15zm0 0" fill="#0069a3"/>
	<path d="m382.308594 466.464844c-36.882813 22.234375-80.101563 35.035156-126.308594 35.035156s-89.425781-12.800781-126.308594-35.035156c1.554688-6.625 7.488282-11.566406 14.589844-11.566406h223.4375c7.101562 0 13.035156 4.941406 14.589844 11.566406zm114.691406-376.363282h-442c-8.285156 0-15 6.714844-15 15v296.398438c0 8.285156 6.714844 15 15 15h442c8.285156 0 15-6.714844 15-15v-296.398438c0-8.285156-6.714844-15-15-15zm0 0" fill="#08c"/>
	<path d="m472 378.101562h-432c-5.523438 0-10-4.480468-10-10v-227.601562c0-5.523438 4.476562-10 10-10h432c5.523438 0 10 4.476562 10 10v227.601562c0 5.519532-4.476562 10-10 10zm0 0" fill="#ffe59c"/>
	<path d="m482 140.5v227.601562c0 5.519532-4.476562 10-10 10h-402c-5.523438 0-10-4.480468-10-10v-5c0-2.761718 2.238281-5 5-5h392c2.761719 0 5-2.242187 5-5v-57.601562c0-2.761719-2.238281-5-5-5h-392c-2.761719 0-5-2.238281-5-5v-60c0-2.761719 2.238281-5 5-5h392c2.761719 0 5-2.238281 5-5v-57.601562c0-2.757813-2.238281-5-5-5h-392c-2.761719 0-5-2.238282-5-5v-7.398438c0-5.523438 4.476562-10 10-10h402c5.523438 0 10 4.476562 10 10zm0 0" fill="#fff1c5"/>
	<path d="m230 250.5h-155c-2.761719 0-5-2.238281-5-5v-5c0-2.761719 2.238281-5 5-5h155c2.761719 0 5 2.238281 5 5v5c0 2.761719-2.238281 5-5 5zm-52.5 21.199219v-5c0-2.761719-2.238281-5-5-5h-97.5c-2.761719 0-5 2.238281-5 5v5c0 2.761719 2.238281 5 5 5h97.5c2.761719 0 5-2.238281 5-5zm142.5-26.199219v-5c0-2.761719-2.238281-5-5-5h-35c-2.761719 0-5 2.238281-5 5v5c0 2.761719 2.238281 5 5 5h35c2.761719 0 5-2.238281 5-5zm65 0v-5c0-2.761719-2.238281-5-5-5h-35c-2.761719 0-5 2.238281-5 5v5c0 2.761719 2.238281 5 5 5h35c2.761719 0 5-2.238281 5-5zm0 0" fill="#ffe59c"/>
	<path d="m235 308.699219v5c0 2.761719-2.238281 5-5 5h-155c-2.761719 0-5-2.238281-5-5v-5c0-2.761719 2.238281-5 5-5h155c2.761719 0 5 2.238281 5 5zm-160-101.398438h97.5c2.761719 0 5-2.238281 5-5v-5c0-2.761719-2.238281-5-5-5h-97.5c-2.761719 0-5 2.238281-5 5v5c0 2.761719 2.238281 5 5 5zm97.5 122.597657h-97.5c-2.761719 0-5 2.242187-5 5v5c0 2.761718 2.238281 5 5 5h97.5c2.761719 0 5-2.238282 5-5v-5c0-2.757813-2.238281-5-5-5zm57.5-163.796876h-155c-2.761719 0-5 2.238282-5 5v5c0 2.757813 2.238281 5 5 5h155c2.761719 0 5-2.242187 5-5v-5c0-2.761718-2.238281-5-5-5zm85 137.597657h-35c-2.761719 0-5 2.238281-5 5v5c0 2.761719 2.238281 5 5 5h35c2.761719 0 5-2.238281 5-5v-5c0-2.761719-2.238281-5-5-5zm65 0h-35c-2.761719 0-5 2.238281-5 5v5c0 2.761719 2.238281 5 5 5h35c2.761719 0 5-2.238281 5-5v-5c0-2.761719-2.238281-5-5-5zm0-137.597657h-35c-2.761719 0-5 2.238282-5 5v5c0 2.757813 2.238281 5 5 5h35c2.761719 0 5-2.242187 5-5v-5c0-2.761718-2.238281-5-5-5zm-65 0h-35c-2.761719 0-5 2.238282-5 5v5c0 2.757813 2.238281 5 5 5h35c2.761719 0 5-2.242187 5-5v-5c0-2.761718-2.238281-5-5-5zm0 0" fill="#f5c02c"/>
	<path d="m450 240.5v5c0 2.761719-2.238281 5-5 5h-35c-2.761719 0-5-2.238281-5-5v-5c0-2.761719 2.238281-5 5-5h35c2.761719 0 5 2.238281 5 5zm-5 63.199219h-35c-2.761719 0-5 2.238281-5 5v5c0 2.761719 2.238281 5 5 5h35c2.761719 0 5-2.238281 5-5v-5c0-2.761719-2.238281-5-5-5zm0-137.597657h-35c-2.761719 0-5 2.238282-5 5v5c0 2.757813 2.238281 5 5 5h35c2.761719 0 5-2.242187 5-5v-5c0-2.761718-2.238281-5-5-5zm0 0" fill="#ff6466"/>
</svg>