<?xml version="1.0" encoding="UTF-8"?>
<!DOCTYPE svg PUBLIC "-//W3C//DTD SVG 1.1//EN" "http://www.w3.org/Graphics/SVG/1.1/DTD/svg11.dtd">
<!-- Creator: CorelDRAW -->
<svg xmlns="http://www.w3.org/2000/svg" xml:space="preserve" width="32px" height="32px" version="1.1" style="shape-rendering:geometricPrecision; text-rendering:geometricPrecision; image-rendering:optimizeQuality; fill-rule:evenodd; clip-rule:evenodd"
viewBox="0 0 3.55 3.55"
 xmlns:xlink="http://www.w3.org/1999/xlink"
 xmlns:xodm="http://www.corel.com/coreldraw/odm/2003">
 <defs>
  <style type="text/css">
   <![CDATA[
    .fil0 {fill:#5C2D91;fill-rule:nonzero}
    .fil3 {fill:#F2F2F2;fill-rule:nonzero}
    .fil2 {fill:white;fill-rule:nonzero}
    .fil1 {fill:white;fill-rule:nonzero;fill-opacity:0.101961}
   ]]>
  </style>
 </defs>
 <g id="Camada_x0020_1">
  <metadata id="CorelCorpID_0Corel-Layer"/>
  <circle class="fil0" cx="1.78" cy="1.78" r="1.78"/>
  <path class="fil1" d="M0.6 0.44c-0.38,0.34 -0.6,0.82 -0.6,1.33 0,0.98 0.8,1.77 1.78,1.77 0.5,0 0.99,-0.21 1.32,-0.59l-2.5 -2.51z"/>
  <path class="fil2" d="M0.41 2.07c0,0 0,0 0,0 -0.02,0 -0.04,-0.01 -0.05,-0.03 -0.02,-0.01 -0.03,-0.03 -0.03,-0.05 0,0 0,0 0,0 0,0 0,0 0,0 0,-0.02 0.01,-0.04 0.03,-0.06 0.01,-0.01 0.03,-0.02 0.05,-0.02 0,0 0,0 0,0 0,0 0,0 0,0 0.02,0 0.04,0.01 0.06,0.02 0.01,0.02 0.02,0.04 0.02,0.06 0,0 0,0 0,0 0,0 0,0 0,0 0,0.02 -0.01,0.04 -0.02,0.05 -0.02,0.02 -0.04,0.03 -0.06,0.03 0,0 0,0 0,0l0 0z"/>
  <path class="fil2" d="M1.51 2.05l-0.14 0 -0.52 -0.8c-0.01,-0.02 -0.03,-0.04 -0.03,-0.07l-0.01 0c0.01,0.04 0.01,0.08 0.01,0.11 0,0.01 0,0.02 0,0.03l0 0.73 -0.12 0 0 -1.01 0.15 0 0.51 0.79c0.02,0.04 0.03,0.06 0.04,0.07l0 0c0,-0.04 -0.01,-0.08 -0.01,-0.12 0,-0.01 0.01,-0.02 0.01,-0.03l0 -0.71 0.11 0 0 1.01z"/>
  <polygon class="fil2" points="2.31,2.05 1.78,2.05 1.78,1.04 2.29,1.04 2.29,1.15 1.9,1.15 1.9,1.49 2.26,1.49 2.26,1.59 1.9,1.59 1.9,1.94 2.31,1.94 "/>
  <polygon class="fil2" points="3.11,1.15 2.81,1.15 2.81,2.05 2.7,2.05 2.7,1.15 2.4,1.15 2.4,1.04 3.11,1.04 "/>
  <path class="fil3" d="M1.45 2.74c-0.04,0.02 -0.08,0.03 -0.12,0.03 0,0 -0.01,0 -0.01,0 0,0 -0.01,0 -0.01,0 -0.06,0 -0.11,-0.02 -0.15,-0.07 -0.04,-0.04 -0.06,-0.09 -0.06,-0.15 0,-0.01 0,-0.01 0,-0.01 0,-0.01 0,-0.01 0,-0.01 0,-0.07 0.03,-0.13 0.07,-0.17 0.04,-0.05 0.1,-0.07 0.16,-0.07 0,0 0.01,0 0.01,0 0,0 0.01,0 0.01,0 0.03,0 0.07,0.01 0.1,0.02l0 0.05c-0.03,-0.01 -0.07,-0.02 -0.11,-0.02 0,0 0,0 0,0 0,0 0,0 -0.01,0 -0.04,0 -0.09,0.02 -0.12,0.05 -0.03,0.04 -0.05,0.09 -0.05,0.13 0,0.01 0,0.01 0,0.01 0,0.01 0,0.01 0,0.01 0,0.05 0.02,0.1 0.05,0.13 0.03,0.03 0.07,0.05 0.11,0.05 0,0 0.01,0 0.01,0 0,0 0,0 0,0 0.05,0 0.09,-0.01 0.12,-0.03l0 0.05z"/>
  <path class="fil3" d="M1.68 2.77c-0.01,0 -0.01,0 -0.01,0 -0.04,0 -0.08,-0.02 -0.11,-0.05 -0.03,-0.03 -0.05,-0.07 -0.05,-0.12 0,0 0,0 0,0 0,-0.01 0,-0.01 0,-0.01 0,-0.05 0.02,-0.09 0.05,-0.13 0.03,-0.03 0.07,-0.04 0.12,-0.04 0,0 0,0 0,0 0.01,0 0.01,0 0.01,0 0.04,0 0.08,0.01 0.11,0.04 0.03,0.04 0.04,0.08 0.04,0.12 0,0 0,0.01 0,0.01 0,0 0,0.01 0,0.01 0,0.04 -0.01,0.09 -0.04,0.12 -0.03,0.03 -0.07,0.05 -0.12,0.05 0,0 0,0 0,0l0 0zm0 -0.3c0,0 0,0 0,0 -0.03,0 -0.06,0.01 -0.08,0.03 -0.02,0.03 -0.03,0.06 -0.03,0.09 0,0 0,0 0,0.01 0,0 0,0 0,0 0,0.04 0.01,0.07 0.03,0.09 0.02,0.02 0.05,0.03 0.08,0.03 0,0 0,0 0,0 0,0 0,0 0.01,0 0.02,0 0.05,-0.01 0.07,-0.03 0.02,-0.02 0.03,-0.05 0.03,-0.08 0,-0.01 0,-0.01 0,-0.01 0,-0.01 0,-0.01 0,-0.01 0,-0.03 -0.01,-0.07 -0.03,-0.09 -0.02,-0.02 -0.05,-0.04 -0.07,-0.04 -0.01,0 -0.01,0.01 -0.01,0.01l0 0z"/>
  <path class="fil3" d="M2.1 2.48c-0.01,-0.01 -0.02,-0.01 -0.03,-0.01 -0.01,0 -0.01,0 -0.01,0 -0.02,0 -0.04,0.01 -0.05,0.03 -0.02,0.03 -0.03,0.05 -0.03,0.08 0,0.01 0,0.01 0,0.01l0 0.17 -0.05 0 0 -0.33 0.05 0 0 0.07 0 0c0.01,-0.02 0.02,-0.04 0.04,-0.06 0.01,-0.01 0.03,-0.02 0.05,-0.02 0,0 0,0 0,0 0,0 0,0 0,0 0.01,0 0.02,0 0.03,0.01l0 0.05z"/>
  <path class="fil3" d="M2.43 2.61l-0.24 0c0,0 0,0 0,0 0,0.03 0.01,0.06 0.03,0.08 0.02,0.02 0.05,0.03 0.07,0.03 0,0 0.01,0 0.01,0 0.04,0 0.07,-0.01 0.1,-0.03l0 0.05c-0.03,0.02 -0.07,0.03 -0.1,0.03 -0.01,0 -0.01,0 -0.01,0 -0.01,0 -0.01,0 -0.01,0 -0.04,0 -0.08,-0.02 -0.11,-0.05 -0.02,-0.03 -0.04,-0.07 -0.04,-0.11 0,-0.01 0,-0.01 0,-0.02 0,0 0,0 0,0 0,-0.05 0.02,-0.09 0.05,-0.12 0.03,-0.03 0.06,-0.05 0.11,-0.05 0,0 0,0 0,0 0,0 0,0 0.01,0 0.03,0 0.07,0.01 0.09,0.04 0.02,0.03 0.04,0.07 0.04,0.11 0,0 0,0.01 0,0.01l0 0.03zm-0.06 -0.05c0,0 0,0 0,0 0,-0.03 -0.01,-0.05 -0.02,-0.07 -0.02,-0.01 -0.04,-0.02 -0.06,-0.02 0,0 0,0 0,0 0,0 0,0 0,0 -0.03,0 -0.05,0.01 -0.07,0.02 -0.01,0.02 -0.03,0.05 -0.03,0.07l0.18 0z"/>
 </g>
</svg>
