<?xml version="1.0" encoding="UTF-8"?>
<!DOCTYPE svg PUBLIC "-//W3C//DTD SVG 1.1//EN" "http://www.w3.org/Graphics/SVG/1.1/DTD/svg11.dtd">
<!-- Creator: CorelDRAW -->
<svg xmlns="http://www.w3.org/2000/svg" xml:space="preserve" width="32px" height="32px" version="1.1" style="shape-rendering:geometricPrecision; text-rendering:geometricPrecision; image-rendering:optimizeQuality; fill-rule:evenodd; clip-rule:evenodd"
viewBox="0 0 3.16 2.86"
 xmlns:xlink="http://www.w3.org/1999/xlink"
 xmlns:xodm="http://www.corel.com/coreldraw/odm/2003">
 <defs>
  <style type="text/css">
   <![CDATA[
    .fil0 {fill:#702AF7;fill-rule:nonzero}
   ]]>
  </style>
 </defs>
 <g id="Camada_x0020_1">
  <metadata id="CorelCorpID_0Corel-Layer"/>
  <g id="_1490849555296">
   <path class="fil0" d="M3.14 0.92c-0.07,0.42 -0.29,0.81 -0.62,1.1 -0.32,0.28 -0.74,0.44 -1.18,0.44 -0.08,0 -0.17,0 -0.26,-0.02 -0.37,-0.06 -0.65,-0.38 -0.67,-0.75 0,-0.21 0.08,-0.41 0.23,-0.55 0.15,-0.15 0.35,-0.23 0.55,-0.23 0.21,0 0.4,0.08 0.55,0.22 0.14,0.14 0.23,0.34 0.23,0.54 0.01,0.13 -0.05,0.25 -0.16,0.25 -0.13,0 -0.19,-0.09 -0.19,-0.21l0 -0.33c0,0 0,0 0,0 0,-0.11 -0.08,-0.2 -0.2,-0.2l-0.27 0c0,0 0,0 0,0 -0.17,0 -0.32,0.08 -0.41,0.22 -0.05,0.08 -0.08,0.17 -0.08,0.26 0,0.24 0.18,0.44 0.41,0.48 0.03,0 0.05,0 0.08,0 0.13,0 0.26,-0.05 0.35,-0.16l0.01 -0.01 0.01 0.02c0.07,0.08 0.17,0.13 0.28,0.13 0,0 0.01,0 0.01,0 0.2,-0.01 0.36,-0.18 0.36,-0.38 0,0 0,-0.01 0,-0.02 0,0 0,-0.01 0,-0.01 0,-0.08 -0.01,-0.16 -0.03,-0.24 -0.05,-0.24 -0.19,-0.45 -0.38,-0.59 -0.17,-0.12 -0.37,-0.18 -0.57,-0.18 -0.28,0 -0.55,0.12 -0.73,0.33 -0.16,0.17 -0.25,0.41 -0.25,0.65 0,0 0,0 0,0 0,0.25 0.11,0.5 0.28,0.68 0.18,0.18 0.43,0.29 0.68,0.29 0.26,0.01 0.08,0.01 0.16,0.01 0.39,0 0.78,-0.12 1.11,-0.33 0.01,-0.01 0.01,0 0.01,0 -0.31,0.34 -0.75,0.53 -1.2,0.53 -0.03,0 -0.05,0 -0.08,0 0,0 -0.01,0 -0.02,0 -0.3,0 -0.6,-0.13 -0.82,-0.34 -0.21,-0.22 -0.33,-0.51 -0.33,-0.82 0,-0.01 0,-0.02 0,-0.03 0,-0.37 0.18,-0.73 0.48,-0.95 0.2,-0.15 0.44,-0.23 0.69,-0.23l0.37 0c0.29,0 0.57,-0.12 0.77,-0.34 0,0 0,0 0.01,0 0,0 0,0 0,0 0,0 0.01,0 0.01,0 0,0.01 0,0.01 0,0.01 -0.01,0.17 -0.07,0.33 -0.16,0.47 0,0 0,0.01 0,0.01 0,0 0,0 0,0.01 0.01,0 0.01,0 0.01,0 0.01,0 0.01,0 0.01,0 0.35,-0.08 0.64,-0.32 0.78,-0.64 0,0 0,-0.01 0,-0.01 0.01,0 0.01,0 0.01,0 0.01,0 0.01,0 0.01,0 0.01,0 0.01,0.01 0.01,0.01 0.11,0.2 0.16,0.43 0.16,0.66 0,0.08 -0.01,0.16 -0.02,0.25l0 0 0 0zm-1.97 0.46c0,0 0,0 0,0 -0.16,0 -0.29,0.13 -0.29,0.29 0,0.02 0.01,0.04 0.01,0.05 0.02,0.12 0.11,0.21 0.23,0.23 0.01,0 0.03,0.01 0.05,0.01 0.16,0 0.29,-0.13 0.29,-0.29 0,0 0,0 0,0l0 -0.27c0,-0.01 -0.01,-0.02 -0.02,-0.02l-0.27 0 0 0z"/>
  </g>
 </g>
</svg>
