<?xml version="1.0" encoding="UTF-8"?>
<!DOCTYPE svg PUBLIC "-//W3C//DTD SVG 1.1//EN" "http://www.w3.org/Graphics/SVG/1.1/DTD/svg11.dtd">
<!-- Creator: CorelDRAW -->
<svg xmlns="http://www.w3.org/2000/svg" xml:space="preserve" width="32px" height="32px" version="1.1" style="shape-rendering:geometricPrecision; text-rendering:geometricPrecision; image-rendering:optimizeQuality; fill-rule:evenodd; clip-rule:evenodd"
viewBox="0 0 2.36 1.88"
 xmlns:xlink="http://www.w3.org/1999/xlink"
 xmlns:xodm="http://www.corel.com/coreldraw/odm/2003">
 <defs>
  <style type="text/css">
   <![CDATA[
    .fil0 {fill:#7952B3}
   ]]>
  </style>
 </defs>
 <g id="Camada_x0020_1">
  <metadata id="CorelCorpID_0Corel-Layer"/>
  <g id="_1490850630832">
   <path class="fil0" d="M0.49 0c-0.13,0 -0.23,0.12 -0.23,0.25 0.01,0.12 0,0.28 -0.04,0.41 -0.04,0.13 -0.11,0.21 -0.22,0.22l0 0.12c0.11,0.01 0.18,0.09 0.22,0.22 0.04,0.14 0.05,0.29 0.04,0.42 0,0.12 0.1,0.24 0.23,0.24l1.38 0c0.14,0 0.24,-0.12 0.23,-0.24 0,-0.13 0.01,-0.28 0.04,-0.42 0.05,-0.13 0.11,-0.21 0.22,-0.22l0 -0.12c-0.11,-0.01 -0.17,-0.09 -0.22,-0.22 -0.03,-0.13 -0.04,-0.29 -0.04,-0.41 0.01,-0.13 -0.09,-0.25 -0.23,-0.25l-1.38 0 0 0zm1.11 1.16c0,0.18 -0.13,0.28 -0.35,0.28l-0.37 0c-0.02,0 -0.04,-0.02 -0.04,-0.04l0 -0.92c0,-0.02 0.02,-0.04 0.04,-0.04l0.37 0c0.18,0 0.3,0.1 0.3,0.25 0,0.11 -0.08,0.2 -0.18,0.22l0 0c0.14,0.02 0.23,0.12 0.23,0.25l0 0zm-0.39 -0.59l-0.21 0 0 0.3 0.18 0c0.14,0 0.21,-0.06 0.21,-0.16 0,-0.09 -0.06,-0.14 -0.18,-0.14l0 0zm-0.21 0.42l0 0.33 0.22 0c0.14,0 0.22,-0.06 0.22,-0.17 0,-0.11 -0.08,-0.16 -0.23,-0.16l-0.21 0 0 0 0 0z"/>
  </g>
 </g>
</svg>
