<?xml version="1.0" encoding="UTF-8"?>
<!DOCTYPE svg PUBLIC "-//W3C//DTD SVG 1.1//EN" "http://www.w3.org/Graphics/SVG/1.1/DTD/svg11.dtd">
<!-- Creator: CorelDRAW -->
<svg xmlns="http://www.w3.org/2000/svg" xml:space="preserve" width="32px" height="32px" version="1.1" style="shape-rendering:geometricPrecision; text-rendering:geometricPrecision; image-rendering:optimizeQuality; fill-rule:evenodd; clip-rule:evenodd"
viewBox="0 0 23.96 26.93"
 xmlns:xlink="http://www.w3.org/1999/xlink"
 xmlns:xodm="http://www.corel.com/coreldraw/odm/2003">
 <defs>
  <style type="text/css">
   <![CDATA[
    .fil1 {fill:#280068;fill-rule:nonzero}
    .fil2 {fill:#390091;fill-rule:nonzero}
    .fil0 {fill:#A179DC;fill-rule:nonzero}
    .fil3 {fill:white;fill-rule:nonzero}
   ]]>
  </style>
 </defs>
 <g id="Camada_x0020_1">
  <metadata id="CorelCorpID_0Corel-Layer"/>
  <g id="_1490849873360">
   <g>
    <path class="fil0" d="M23.96 7.92c0,-0.45 -0.09,-0.85 -0.29,-1.2 -0.19,-0.34 -0.48,-0.62 -0.87,-0.84 -3.19,-1.84 -6.38,-3.68 -9.57,-5.52 -0.86,-0.49 -1.69,-0.48 -2.55,0.03 -1.27,0.75 -7.62,4.39 -9.52,5.49 -0.78,0.45 -1.16,1.14 -1.16,2.04 0,3.7 0,7.4 0,11.1 0,0.44 0.09,0.83 0.28,1.17 0.19,0.35 0.48,0.64 0.88,0.87 1.89,1.09 8.25,4.74 9.52,5.49 0.86,0.5 1.69,0.52 2.55,0.02 3.19,-1.84 6.38,-3.67 9.57,-5.51 0.4,-0.23 0.69,-0.52 0.88,-0.87 0.19,-0.34 0.28,-0.73 0.28,-1.18 0,0 0,-7.39 0,-11.09l0 0zm0 0l0 0 0 0z"/>
   </g>
   <path class="fil1" d="M12.02 13.43l-11.74 6.76c0.19,0.35 0.48,0.64 0.88,0.87 1.89,1.09 8.25,4.74 9.52,5.49 0.86,0.5 1.69,0.52 2.55,0.02 3.19,-1.84 6.38,-3.67 9.57,-5.51 0.4,-0.23 0.69,-0.52 0.88,-0.87l-11.66 -6.76z"/>
   <path class="fil2" d="M23.96 7.92c0,-0.45 -0.09,-0.85 -0.29,-1.2l-11.65 6.71 11.66 6.76c0.19,-0.34 0.28,-0.73 0.28,-1.18 0,0 0,-7.39 0,-11.09z"/>
   <g>
    <path class="fil3" d="M18.93 10.9l0 1.27 1.26 0 0 -1.27 0.63 0 0 1.27 1.27 0 0 0.63 -1.27 0 0 1.26 1.27 0 0 0.63 -1.27 0 0 1.27 -0.63 0 0 -1.27 -1.26 0 0 1.27 -0.63 0 0 -1.27 -1.27 0 0 -0.63 1.27 0 0 -1.26 -1.27 0 0 -0.63 1.27 0 0 -1.27 0.63 0zm1.26 1.9l-1.26 0 0 1.26 1.26 0 0 -1.26z"/>
    <path class="fil3" d="M12.04 4.56c3.3,0 6.18,1.79 7.72,4.45l-0.02 -0.03 -3.87 2.24c-0.77,-1.3 -2.17,-2.17 -3.78,-2.19l-0.05 0c-2.45,0 -4.43,1.99 -4.43,4.44 0,0 0,0 0,0 0,0.77 0.2,1.53 0.58,2.2 0.77,1.33 2.21,2.23 3.85,2.23 1.66,0 3.11,-0.91 3.87,-2.26l-0.02 0.03 3.87 2.25c-1.52,2.63 -4.36,4.42 -7.62,4.45l-0.1 0c-3.3,0 -6.19,-1.8 -7.72,-4.47 -0.75,-1.31 -1.18,-2.82 -1.18,-4.43 0,-4.92 3.98,-8.91 8.9,-8.91l0 0z"/>
   </g>
  </g>
 </g>
</svg>
