<?xml version="1.0" encoding="UTF-8"?>
<!DOCTYPE svg PUBLIC "-//W3C//DTD SVG 1.1//EN" "http://www.w3.org/Graphics/SVG/1.1/DTD/svg11.dtd">
<!-- Creator: CorelDRAW -->
<svg xmlns="http://www.w3.org/2000/svg" xml:space="preserve" width="32px" height="32px" version="1.1" style="shape-rendering:geometricPrecision; text-rendering:geometricPrecision; image-rendering:optimizeQuality; fill-rule:evenodd; clip-rule:evenodd"
viewBox="0 0 31.96 31.96"
 xmlns:xlink="http://www.w3.org/1999/xlink"
 xmlns:xodm="http://www.corel.com/coreldraw/odm/2003">
 <defs>
  <style type="text/css">
   <![CDATA[
    .fil0 {fill:#512BD4;fill-rule:nonzero}
    .fil1 {fill:white;fill-rule:nonzero}
   ]]>
  </style>
 </defs>
 <g id="Camada_x0020_1">
  <metadata id="CorelCorpID_0Corel-Layer"/>
  <rect class="fil0" width="31.96" height="31.96"/>
  <g id="_1526221189680">
   <path class="fil1" d="M3.54 20.97c-0.26,0 -0.49,-0.09 -0.68,-0.27 -0.19,-0.18 -0.28,-0.4 -0.28,-0.65 0,-0.26 0.09,-0.48 0.28,-0.66 0.19,-0.18 0.42,-0.27 0.68,-0.27 0.28,0 0.5,0.09 0.69,0.27 0.19,0.18 0.29,0.4 0.29,0.66 0,0.25 -0.1,0.47 -0.29,0.65 -0.19,0.18 -0.41,0.27 -0.69,0.27z"/>
   <path class="fil1" d="M14.24 20.82l-1.74 0 -4.58 -7.23c-0.12,-0.18 -0.22,-0.37 -0.29,-0.57l-0.04 0c0.03,0.21 0.05,0.66 0.05,1.35l0 6.45 -1.54 0 0 -9.83 1.86 0 4.42 7.05c0.19,0.29 0.31,0.49 0.36,0.6l0.03 0c-0.04,-0.26 -0.07,-0.7 -0.07,-1.32l0 -6.33 1.54 0 0 9.83z"/>
   <polygon class="fil1" points="21.73,20.82 16.34,20.82 16.34,10.99 21.51,10.99 21.51,12.37 17.93,12.37 17.93,15.15 21.23,15.15 21.23,16.53 17.93,16.53 17.93,19.44 21.73,19.44 "/>
   <polygon class="fil1" points="29.38,12.37 26.62,12.37 26.62,20.82 25.03,20.82 25.03,12.37 22.28,12.37 22.28,10.99 29.38,10.99 "/>
  </g>
 </g>
</svg>
