<?xml version="1.0" encoding="UTF-8"?>
<!DOCTYPE svg PUBLIC "-//W3C//DTD SVG 1.1//EN" "http://www.w3.org/Graphics/SVG/1.1/DTD/svg11.dtd">
<!-- Creator: CorelDRAW -->
<svg xmlns="http://www.w3.org/2000/svg" xml:space="preserve" width="32px" height="32px" version="1.1" style="shape-rendering:geometricPrecision; text-rendering:geometricPrecision; image-rendering:optimizeQuality; fill-rule:evenodd; clip-rule:evenodd"
viewBox="0 0 30.24 29.49"
 xmlns:xlink="http://www.w3.org/1999/xlink"
 xmlns:xodm="http://www.corel.com/coreldraw/odm/2003">
 <defs>
  <style type="text/css">
   <![CDATA[
    .fil0 {fill:#161614;fill-rule:nonzero}
   ]]>
  </style>
 </defs>
 <g id="Camada_x0020_1">
  <metadata id="CorelCorpID_0Corel-Layer"/>
  <g id="_1490850633760">
   <g>
    <path class="fil0" d="M15.12 0c-8.35,0 -15.12,6.77 -15.12,15.12 0,6.68 4.33,12.35 10.34,14.35 0.75,0.13 1.03,-0.33 1.03,-0.73 0,-0.36 -0.01,-1.55 -0.02,-2.82 -4.2,0.92 -5.09,-1.78 -5.09,-1.78 -0.69,-1.75 -1.68,-2.21 -1.68,-2.21 -1.37,-0.94 0.1,-0.92 0.1,-0.92 1.52,0.1 2.32,1.56 2.32,1.56 1.35,2.31 3.54,1.64 4.4,1.25 0.14,-0.97 0.53,-1.64 0.96,-2.02 -3.36,-0.38 -6.89,-1.68 -6.89,-7.47 0,-1.65 0.59,-3 1.56,-4.06 -0.16,-0.38 -0.68,-1.92 0.15,-4 0,0 1.27,-0.41 4.15,1.55 1.21,-0.34 2.5,-0.5 3.79,-0.51 1.28,0.01 2.58,0.17 3.79,0.51 2.88,-1.96 4.15,-1.55 4.15,-1.55 0.82,2.08 0.3,3.62 0.15,4 0.97,1.06 1.55,2.41 1.55,4.06 0,5.81 -3.53,7.08 -6.9,7.46 0.54,0.47 1.03,1.39 1.03,2.8 0,2.02 -0.02,3.65 -0.02,4.15 0,0.4 0.27,0.87 1.04,0.72 6,-2 10.33,-7.66 10.33,-14.34 0,-8.35 -6.77,-15.12 -15.12,-15.12z"/>
    <g>
     <path class="fil0" d="M5.66 21.54c-0.03,0.07 -0.15,0.09 -0.26,0.04 -0.11,-0.05 -0.17,-0.15 -0.13,-0.22 0.03,-0.08 0.15,-0.1 0.26,-0.05 0.11,0.05 0.17,0.15 0.13,0.23l0 0zm0.75 0.66c-0.08,0.07 -0.22,0.04 -0.31,-0.07 -0.1,-0.1 -0.12,-0.25 -0.05,-0.31 0.08,-0.07 0.21,-0.04 0.31,0.07 0.1,0.1 0.12,0.24 0.05,0.31l0 0zm0.51 0.85c-0.1,0.06 -0.25,0 -0.34,-0.13 -0.09,-0.14 -0.09,-0.3 0,-0.36 0.09,-0.07 0.24,-0.01 0.34,0.13 0.09,0.13 0.09,0.29 0,0.36l0 0zm0.86 0.98c-0.08,0.09 -0.26,0.07 -0.39,-0.05 -0.13,-0.13 -0.17,-0.3 -0.09,-0.39 0.09,-0.09 0.27,-0.07 0.4,0.06 0.13,0.12 0.17,0.29 0.08,0.38l0 0zm1.11 0.33c-0.03,0.12 -0.2,0.18 -0.37,0.13 -0.17,-0.05 -0.29,-0.19 -0.25,-0.31 0.03,-0.12 0.2,-0.18 0.38,-0.12 0.17,0.05 0.28,0.18 0.24,0.3l0 0zm1.27 0.15c0.01,0.12 -0.14,0.22 -0.32,0.23 -0.18,0 -0.32,-0.1 -0.33,-0.22 0,-0.13 0.15,-0.23 0.33,-0.23 0.18,-0.01 0.32,0.09 0.32,0.22l0 0zm1.25 -0.05c0.02,0.12 -0.1,0.24 -0.28,0.28 -0.18,0.03 -0.34,-0.05 -0.36,-0.17 -0.02,-0.12 0.1,-0.25 0.28,-0.28 0.18,-0.03 0.34,0.04 0.36,0.17l0 0zm0 0l0 0 0 0z"/>
    </g>
   </g>
  </g>
 </g>
</svg>
