<?xml version="1.0" encoding="UTF-8"?>
<!DOCTYPE svg PUBLIC "-//W3C//DTD SVG 1.1//EN" "http://www.w3.org/Graphics/SVG/1.1/DTD/svg11.dtd">
<!-- Creator: CorelDRAW -->
<svg xmlns="http://www.w3.org/2000/svg" xml:space="preserve" width="32px" height="32px" version="1.1" style="shape-rendering:geometricPrecision; text-rendering:geometricPrecision; image-rendering:optimizeQuality; fill-rule:evenodd; clip-rule:evenodd"
viewBox="0 0 4.76 6.42"
 xmlns:xlink="http://www.w3.org/1999/xlink"
 xmlns:xodm="http://www.corel.com/coreldraw/odm/2003">
 <defs>
  <style type="text/css">
   <![CDATA[
    .fil2 {fill:black}
    .fil0 {fill:#ED1F24}
    .fil1 {fill:#FFAE01}
   ]]>
  </style>
 </defs>
 <g id="Camada_x0020_1">
  <metadata id="CorelCorpID_0Corel-Layer"/>
  <g id="_1526223378640">
   <path class="fil0" d="M2.83 6.29l1.49 -0.86c0.28,-0.16 0.44,-0.44 0.44,-0.77l0 -2.78c0,-0.33 -0.16,-0.61 -0.44,-0.77l-1.88 -1.11 -0.2 0.87c-0.06,0.25 -0.21,0.45 -0.44,0.58l-1.34 0.75c-0.29,0.16 -0.46,0.45 -0.46,0.78l0 1.68c0,0.33 0.16,0.61 0.45,0.77l1.49 0.86c0.28,0.17 0.61,0.17 0.89,0z"/>
   <path class="fil1" d="M2.83 6.29l0.95 -0.55c0.29,-0.16 0.45,-0.44 0.45,-0.77l0 -1.17c0,-0.31 -0.15,-0.58 -0.41,-0.75l-0.09 -0.06c-0.26,-0.17 -0.4,-0.43 -0.4,-0.74l0 -0.58 -1.45 0.91c-0.26,0.17 -0.41,0.44 -0.41,0.76l0 0.01c0,0.33 -0.17,0.62 -0.46,0.78l-0.01 0c-0.29,0.16 -0.46,0.45 -0.46,0.79l0 0.05c0,0.33 0.16,0.61 0.44,0.77l0.96 0.55c0.28,0.17 0.61,0.17 0.89,0z"/>
   <path class="fil2" d="M2.83 6.29l0.12 -0.07c0.28,-0.16 0.45,-0.44 0.44,-0.77l0 -1.12c0,-0.32 -0.15,-0.6 -0.43,-0.76l-0.58 -0.35 0 0.61c0,0.32 -0.15,0.59 -0.43,0.76l-0.16 0.1c-0.27,0.17 -0.42,0.44 -0.42,0.76l0 0c0,0.33 0.16,0.61 0.45,0.77l0.12 0.07c0.28,0.17 0.61,0.17 0.89,0z"/>
  </g>
 </g>
</svg>
