<?xml version="1.0" encoding="UTF-8"?>
<!DOCTYPE svg PUBLIC "-//W3C//DTD SVG 1.1//EN" "http://www.w3.org/Graphics/SVG/1.1/DTD/svg11.dtd">
<!-- Creator: CorelDRAW -->
<svg xmlns="http://www.w3.org/2000/svg" xml:space="preserve" width="32px" height="32px" version="1.1" style="shape-rendering:geometricPrecision; text-rendering:geometricPrecision; image-rendering:optimizeQuality; fill-rule:evenodd; clip-rule:evenodd"
viewBox="0 0 31.55 31.55"
 xmlns:xlink="http://www.w3.org/1999/xlink"
 xmlns:xodm="http://www.corel.com/coreldraw/odm/2003">
 <defs>
  <style type="text/css">
   <![CDATA[
    .fil1 {fill:#323330;fill-rule:nonzero}
    .fil0 {fill:#F0DB4F;fill-rule:nonzero}
   ]]>
  </style>
 </defs>
 <g id="Camada_x0020_1">
  <metadata id="CorelCorpID_0Corel-Layer"/>
  <g id="_1490850765440">
   <polygon class="fil0" points="0,0 31.55,0 31.55,31.55 0,31.55 "/>
   <path class="fil1" d="M28.97 24.03c-0.23,-1.44 -1.17,-2.65 -3.95,-3.78 -0.97,-0.44 -2.04,-0.76 -2.36,-1.49 -0.12,-0.43 -0.13,-0.67 -0.06,-0.93 0.21,-0.83 1.21,-1.09 2,-0.85 0.51,0.17 0.99,0.56 1.28,1.19 1.36,-0.88 1.36,-0.88 2.31,-1.48 -0.35,-0.54 -0.53,-0.79 -0.76,-1.02 -0.82,-0.92 -1.94,-1.39 -3.72,-1.35 -0.31,0.03 -0.62,0.08 -0.93,0.12 -0.89,0.22 -1.74,0.69 -2.24,1.32 -1.49,1.69 -1.07,4.66 0.75,5.88 1.79,1.34 4.42,1.65 4.76,2.9 0.33,1.54 -1.13,2.04 -2.58,1.86 -1.07,-0.22 -1.66,-0.76 -2.3,-1.75 -1.19,0.69 -1.19,0.69 -2.4,1.38 0.29,0.63 0.59,0.92 1.07,1.46 2.29,2.32 8.01,2.21 9.03,-1.3 0.05,-0.12 0.32,-0.92 0.1,-2.16l0 0zm-11.82 -9.53l-2.95 0c0,2.55 -0.01,5.08 -0.01,7.63 0,1.62 0.08,3.11 -0.18,3.57 -0.43,0.9 -1.55,0.78 -2.06,0.61 -0.52,-0.25 -0.78,-0.62 -1.09,-1.13 -0.08,-0.15 -0.15,-0.26 -0.17,-0.27 -0.8,0.49 -1.6,0.98 -2.4,1.47 0.4,0.82 0.99,1.53 1.74,1.99 1.13,0.68 2.64,0.88 4.22,0.52 1.03,-0.3 1.92,-0.92 2.38,-1.87 0.67,-1.23 0.53,-2.73 0.52,-4.39 0.02,-2.71 0,-5.41 0,-8.13z"/>
  </g>
 </g>
</svg>
