<?xml version="1.0" encoding="UTF-8"?>
<!DOCTYPE svg PUBLIC "-//W3C//DTD SVG 1.1//EN" "http://www.w3.org/Graphics/SVG/1.1/DTD/svg11.dtd">
<!-- Creator: CorelDRAW -->
<svg xmlns="http://www.w3.org/2000/svg" xml:space="preserve" width="32px" height="32px" version="1.1" style="shape-rendering:geometricPrecision; text-rendering:geometricPrecision; image-rendering:optimizeQuality; fill-rule:evenodd; clip-rule:evenodd"
viewBox="0 0 44.27 44.27"
 xmlns:xlink="http://www.w3.org/1999/xlink"
 xmlns:xodm="http://www.corel.com/coreldraw/odm/2003">
 <defs>
  <style type="text/css">
   <![CDATA[
    .fil0 {fill:url(#id0);fill-rule:nonzero}
    .fil1 {fill:url(#id1);fill-rule:nonzero}
   ]]>
  </style>
  <linearGradient id="id0" gradientUnits="userSpaceOnUse" x1="5.61" y1="7.64" x2="38.67" y2="36.68">
   <stop offset="0" style="stop-opacity:1; stop-color:black"/>
   <stop offset="1" style="stop-opacity:1; stop-color:white"/>
  </linearGradient>
  <linearGradient id="id1" gradientUnits="userSpaceOnUse" xlink:href="#id0" x1="40.03" y1="34.35" x2="4.25" y2="9.91">
  </linearGradient>
 </defs>
 <g id="Camada_x0020_1">
  <metadata id="CorelCorpID_0Corel-Layer"/>
  <g id="_1526258304576">
   <path class="fil0" d="M22.1 32.95c9.79,13.35 19.38,-3.72 19.36,-13.99 -0.02,-12.15 -12.32,-18.93 -19.37,-18.93 -11.32,0 -22.09,9.35 -22.09,22.14 0,14.22 12.35,22.1 22.09,22.1 -2.2,-0.32 -9.55,-1.89 -9.65,-18.81 -0.06,-11.44 3.73,-16.01 9.63,-14 0.14,0.05 6.51,2.57 6.51,10.78 0,8.18 -6.48,10.71 -6.48,10.71l0 0z"/>
   <path class="fil1" d="M22.09 11.45c-6.48,-2.23 -14.4,3.11 -14.4,13.79 0,17.45 12.92,19.03 14.49,19.03 11.31,0 22.09,-9.35 22.09,-22.15 0,-14.22 -12.35,-22.09 -22.09,-22.09 2.7,-0.38 14.54,2.92 14.54,19.1 0,10.55 -8.84,16.3 -14.59,13.84 -0.14,-0.05 -6.51,-2.56 -6.51,-10.78 0,-8.17 6.47,-10.74 6.47,-10.74z"/>
  </g>
 </g>
</svg>
