<?xml version="1.0" encoding="UTF-8"?>
<!DOCTYPE svg PUBLIC "-//W3C//DTD SVG 1.1//EN" "http://www.w3.org/Graphics/SVG/1.1/DTD/svg11.dtd">
<!-- Creator: CorelDRAW -->
<svg xmlns="http://www.w3.org/2000/svg" xml:space="preserve" width="32px" height="32px" version="1.1" style="shape-rendering:geometricPrecision; text-rendering:geometricPrecision; image-rendering:optimizeQuality; fill-rule:evenodd; clip-rule:evenodd"
viewBox="0 0 31.95 31.95"
 xmlns:xlink="http://www.w3.org/1999/xlink"
 xmlns:xodm="http://www.corel.com/coreldraw/odm/2003">
 <defs>
  <style type="text/css">
   <![CDATA[
    .fil0 {fill:darkorange}
    .fil1 {fill:white}
   ]]>
  </style>
 </defs>
 <g id="Camada_x0020_1">
  <metadata id="CorelCorpID_0Corel-Layer"/>
  <path class="fil0" d="M5.77 0l20.41 0c3.18,0 5.77,2.59 5.77,5.77l0 20.41c0,3.18 -2.59,5.77 -5.77,5.77l-20.41 0c-3.18,0 -5.77,-2.59 -5.77,-5.77l0 -20.41c0,-3.18 2.59,-5.77 5.77,-5.77z"/>
  <g id="_1790323980832">
   <rect class="fil1" x="2.93" y="2.88" width="11.59" height="2.92"/>
   <rect class="fil1" x="2.93" y="8.74" width="11.59" height="2.92"/>
   <rect class="fil1" x="2.93" y="14.44" width="11.59" height="2.92"/>
   <rect class="fil1" x="17.43" y="2.88" width="11.59" height="2.92"/>
   <rect class="fil1" x="17.43" y="8.74" width="11.59" height="2.92"/>
   <rect class="fil1" x="17.43" y="14.44" width="11.59" height="2.92"/>
   <rect class="fil1" x="17.43" y="20.18" width="11.59" height="2.92"/>
   <circle class="fil1" cx="8.72" cy="24.57" r="5.08"/>
  </g>
 </g>
</svg>