<?xml version="1.0" encoding="UTF-8"?>
<!DOCTYPE svg PUBLIC "-//W3C//DTD SVG 1.1//EN" "http://www.w3.org/Graphics/SVG/1.1/DTD/svg11.dtd">
<!-- Creator: CorelDRAW -->
<svg xmlns="http://www.w3.org/2000/svg" xml:space="preserve" width="32px" height="32px" version="1.1" style="shape-rendering:geometricPrecision; text-rendering:geometricPrecision; image-rendering:optimizeQuality; fill-rule:evenodd; clip-rule:evenodd"
viewBox="0 0 4.33 4.14"
 xmlns:xlink="http://www.w3.org/1999/xlink"
 xmlns:xodm="http://www.corel.com/coreldraw/odm/2003">
 <defs>
  <style type="text/css">
   <![CDATA[
    .fil0 {fill:#00E2F4}
   ]]>
  </style>
 </defs>
 <g id="Camada_x0020_1">
  <metadata id="CorelCorpID_0Corel-Layer"/>
  <path class="fil0" d="M1.24 3.19c-0.03,-0.23 -0.01,-2.26 0.03,-2.53 0.04,-0.39 0.23,-0.7 -0.03,-0.57 -0.29,0.15 -0.69,0.56 -0.87,0.84 -0.83,1.21 -0.2,2.85 1.26,3.16 1.55,0.32 2.86,-0.75 2.68,-2.33 -0.14,-1.25 -1.41,-2.22 -2.32,-1.53 -0.09,0.06 -0.37,0.33 -0.34,0.52 0.02,0.12 0.38,0.29 0.49,0.37l1.05 0.65c0.06,0.04 0.37,0.22 0.4,0.27 0.08,0.18 -0.26,0.23 -0.62,0.43 -0.34,0.19 -0.77,0.37 -1.14,0.57 -0.1,0.05 -0.19,0.09 -0.29,0.14 -0.15,0.07 -0.18,0.12 -0.3,0.01z"/>
 </g>
</svg>
