<?xml version="1.0" encoding="UTF-8"?>
<!DOCTYPE svg PUBLIC "-//W3C//DTD SVG 1.1//EN" "http://www.w3.org/Graphics/SVG/1.1/DTD/svg11.dtd">
<!-- Creator: CorelDRAW -->
<svg xmlns="http://www.w3.org/2000/svg" xml:space="preserve" width="32px" height="32px" version="1.1" style="shape-rendering:geometricPrecision; text-rendering:geometricPrecision; image-rendering:optimizeQuality; fill-rule:evenodd; clip-rule:evenodd"
viewBox="0 0 0.61 0.66"
 xmlns:xlink="http://www.w3.org/1999/xlink"
 xmlns:xodm="http://www.corel.com/coreldraw/odm/2003">
 <defs>
  <style type="text/css">
   <![CDATA[
    .fil0 {fill:#BDBFC1;fill-rule:nonzero}
    .fil1 {fill:url(#id0);fill-rule:nonzero}
   ]]>
  </style>
  <radialGradient id="id0" gradientUnits="userSpaceOnUse" gradientTransform="matrix(1.97759 -0 -0 1.38085 -1 0)" cx="0.61" cy="0.11" r="0.12" fx="0.61" fy="0.11">
   <stop offset="0" style="stop-opacity:1; stop-color:#EE352C"/>
   <stop offset="1" style="stop-opacity:1; stop-color:#A91D22"/>
  </radialGradient>
 </defs>
 <g id="Camada_x0020_1">
  <metadata id="CorelCorpID_0Corel-Layer"/>
  <path class="fil0" d="M0.38 0.31l-0.13 0.04 -0.12 0.05 -0.03 0.01c-0.01,0.01 -0.01,0.02 -0.02,0.03 -0.01,0.01 -0.02,0.01 -0.03,0.02 -0.01,0.01 -0.02,0.02 -0.03,0.03 -0.01,0.01 -0.01,0.02 -0.02,0.03 0,0.02 0,0.03 0.01,0.05 0.01,0.02 0.04,0.04 0.07,0.05 0.02,0.01 0.05,0.02 0.07,0.02 0.03,0.01 0.1,0.02 0.13,0.02 0.01,0 0.02,0 0.02,0 0,0 0.01,-0.01 0.01,-0.02 0.03,-0.05 0.04,-0.09 0.05,-0.13 0.01,-0.02 0.01,-0.05 0.01,-0.08 0,-0.01 0,-0.04 0,-0.06 0,-0.01 0,-0.03 0,-0.04 0,0 0,-0.01 0,-0.01 0,0 0,0 0.02,0l-0.01 -0.01 0 0zm-0.03 0.02c0,0 0.01,0.03 0.01,0.05 0,0 0,0.01 0,0.01 0,0 -0.02,-0.01 -0.03,-0.02 -0.01,-0.01 -0.03,-0.02 -0.03,-0.02 0,0 0,0 0,-0.01 0.02,0 0.05,-0.01 0.05,-0.01l0 0zm-0.07 0.02c0.01,0 0.01,0 0.01,0 0.02,0.02 0.05,0.03 0.06,0.04 0.01,0 0.01,0 0,0.01 -0.02,0.01 -0.04,0.02 -0.07,0.03 0,0 -0.01,0.01 -0.01,0.01 0,0 0,-0.01 0,-0.01 0.01,-0.02 0.01,-0.05 0.01,-0.07 0,-0.01 0,-0.01 0,-0.01l0 0 0 0zm-0.01 0.01c0,0 0,0.02 0,0.02 0,0.02 0,0.03 -0.01,0.05 0,0 0,0.01 0,0.01 0,0 -0.02,-0.02 -0.02,-0.02 -0.01,-0.01 -0.01,-0.02 -0.02,-0.03 0,0 0,-0.01 0,-0.01 0,0 0.05,-0.03 0.05,-0.02l0 0 0 0zm-0.06 0.02c0,0 0,0 0,0 0,0.01 0.01,0.03 0.01,0.03 0.01,0.01 0.02,0.02 0.03,0.03 0,0 0,0 0,0 0,0 0,0 -0.01,0.01 -0.02,0.01 -0.04,0.01 -0.07,0.02 0,0 -0.01,0.01 -0.01,0.01 0,0 0,0 0,-0.01 0.01,-0.01 0.03,-0.05 0.04,-0.08 0,0 0,-0.01 0,-0.01 0,0 0,0 0,0 0,0 0.01,0 0.01,0l0 0 0 0zm-0.02 0.01c0,0 -0.01,0.01 -0.01,0.02 -0.01,0.02 -0.03,0.04 -0.04,0.06 0,0 0,0.01 0,0.01 0,0 0,0 -0.01,0 0,-0.01 0,-0.02 0,-0.03 -0.01,-0.01 -0.01,-0.02 0,-0.03 0,0 0,0 0,-0.01 0.01,0 0.05,-0.02 0.06,-0.02l0 0zm0.17 0.01l0 0c0,0.02 0,0.05 -0.01,0.08 0,0 0,0 0,0 0,0 0,0 -0.01,0 -0.01,0 -0.03,-0.01 -0.04,-0.02 -0.01,0 -0.03,-0.01 -0.02,-0.01 0,0 0,0 0,-0.01 0.02,-0.01 0.04,-0.02 0.06,-0.03 0.01,0 0.02,-0.01 0.02,-0.01l0 0 0 0zm-0.25 0.03c0,0 0,0 0,0 0,0 0,0.01 0,0.01 0,0.02 0,0.03 0.01,0.04 0,0.01 0,0.01 0,0.01 0,0 -0.07,0.02 -0.09,0.03 0,0 -0.01,0 -0.01,0 0,0 0,0 0,0 0,-0.02 0.01,-0.04 0.03,-0.05 0.01,-0.01 0.02,-0.02 0.03,-0.03 0.01,0 0.03,-0.01 0.03,-0.01 0,0 0,0 0,0l0 0zm0.16 0.02c0,0 0,0.01 0,0.01 0.02,0.01 0.05,0.02 0.08,0.03l0 0 0 0c-0.02,0.01 -0.06,0.03 -0.11,0.04 0,0 -0.01,0.01 -0.01,0.01 0,0 0,0 0,0 0,0 0,-0.01 0,-0.01 0.01,-0.02 0.03,-0.05 0.03,-0.07 0.01,0 0.01,-0.01 0.01,-0.01l0 0 0 0zm-0.02 0.01c0,0 0,0 0,0 -0.01,0.03 -0.02,0.05 -0.04,0.07 0,0.01 0,0.02 0,0.02 0,0 -0.01,-0.01 -0.01,-0.01 -0.02,-0.01 -0.04,-0.03 -0.05,-0.04l0 0 0.01 -0.01c0.03,-0.01 0.06,-0.02 0.08,-0.03 0.01,0 0.01,0 0.01,0l0 0 0 0zm0.1 0.03c0,0.01 -0.01,0.03 -0.01,0.04 0,0.01 -0.01,0.02 -0.01,0.04 0,0.01 -0.01,0.02 -0.01,0.02 0,0 0,0 0,0 -0.03,-0.01 -0.05,-0.02 -0.08,-0.03 -0.01,0 -0.02,0 -0.02,-0.01 0,0 0.01,0 0.02,0 0.04,-0.02 0.09,-0.04 0.11,-0.05 0,-0.01 0,-0.01 0,-0.01zm-0.23 0.01c0,0 -0.01,0.02 -0.03,0.05 -0.01,0 -0.01,0.01 -0.02,0.02 0,0 0,0.01 -0.01,0.01l0 0.01 0 -0.01c-0.01,0 -0.02,-0.01 -0.02,-0.01 -0.01,-0.02 -0.02,-0.03 -0.02,-0.04 0,0 0,0 0,0 0,0 0.03,-0.01 0.05,-0.02 0.02,0 0.03,0 0.04,-0.01 0.01,0 0.01,0 0.01,0l0 0 0 0zm0.01 0.01l0.01 0c0.01,0.02 0.03,0.03 0.04,0.04 0.01,0 0.01,0 0.01,0 0,0 -0.06,0.03 -0.09,0.03 -0.02,0.01 -0.03,0.02 -0.03,0.02l0 -0.01 0 0 0 0c0.01,-0.02 0.02,-0.03 0.05,-0.06l0.01 -0.02 0 0zm0.08 0.05c0,0 0.01,0.01 0.01,0.01 0.02,0 0.03,0.01 0.04,0.01 0.02,0 0.04,0.01 0.06,0.01 0,0 0,0 0,0 0,0 -0.02,0.01 -0.03,0.01 -0.01,0 -0.07,0.02 -0.11,0.03 -0.01,0 -0.01,0.01 -0.01,0.01 -0.01,0 -0.01,0 -0.01,0 0,0 0,-0.01 0.01,-0.01 0.01,-0.02 0.02,-0.04 0.04,-0.06 0,0 0,-0.01 0,-0.01l0 0 0 0zm-0.01 0c0,0 -0.01,0.02 -0.02,0.04 -0.01,0 -0.02,0.01 -0.02,0.02 0,0 0,0.01 0,0.01l-0.01 0 0 0c0,0 -0.03,-0.01 -0.03,-0.01 -0.01,0 -0.02,-0.01 -0.03,-0.01 -0.01,0 -0.02,-0.01 -0.01,-0.01 0,0 0.01,0 0.03,-0.01 0.04,-0.01 0.06,-0.02 0.08,-0.02 0,0 0.01,-0.01 0.01,-0.01l0 0 0 0zm0.12 0.03c0,0.01 -0.02,0.05 -0.02,0.06 0,0.01 0,0.01 0,0.01 -0.01,0 -0.03,0 -0.04,-0.01 -0.03,0 -0.07,-0.01 -0.08,-0.01l0 0 0.01 0c0.03,-0.01 0.05,-0.02 0.06,-0.02 0.02,-0.01 0.04,-0.01 0.06,-0.02 0.01,0 0.01,-0.01 0.01,-0.01l0 0 0 0z"/>
  <path class="fil0" d="M0.25 0c-0.01,0 -0.04,0.01 -0.07,0.02 -0.03,0.01 -0.05,0.03 -0.06,0.04 -0.01,0 -0.02,0.01 -0.02,0.01 0,0 0,0 0,0l0.01 0.02 0.04 0.01 0.07 0.01 0.09 0.02 0 -0.01 0 0 -0.01 0 0 -0.01c-0.02,-0.02 -0.03,-0.04 -0.04,-0.06 0,-0.02 -0.01,-0.03 -0.01,-0.04 0,-0.01 0,-0.01 0,-0.01l0 0 0 0zm-0.01 0.01c0,0 0,0 0.01,0 0,0.02 0,0.03 0.01,0.04 0,0.01 0,0.01 -0.01,0.01 -0.01,0 -0.05,-0.01 -0.08,-0.01 -0.01,0 -0.01,0 -0.01,0 -0.01,0 0.02,-0.02 0.03,-0.02 0.01,-0.01 0.05,-0.02 0.05,-0.02l0 0 0 0zm-0.09 0.04l0 0c0.02,0.01 0.08,0.02 0.11,0.02 0,0 0,0 0,0 0,0 0,0 0,0.01 -0.02,0 -0.03,0.01 -0.04,0.02 -0.01,0 -0.01,0 -0.01,0 0,0 0,0 -0.01,0l0 0 -0.01 -0.01c-0.02,-0.02 -0.03,-0.03 -0.04,-0.04l0 0 0 0zm-0.01 0l0.02 0.02c0.01,0.01 0.01,0.02 0.01,0.02 0.01,0 0.01,0.01 0.01,0.01 0,0 -0.02,-0.01 -0.03,-0.01 -0.01,0 -0.02,0 -0.03,-0.01l0 0 0 0c0,-0.01 0.01,-0.02 0.02,-0.03l0 0 0 0zm0.12 0.03c0,0 0,0 0.01,0 0,0.01 0.01,0.03 0.01,0.03 0,0 0,0 -0.01,0 -0.03,0 -0.04,-0.01 -0.04,-0.01 0,0 0,0 0,0 0.01,0 0.02,-0.01 0.03,-0.02 0,0 0,0 0,0 0,0 0,0 0,0l0 0 0 0z"/>
  <path class="fil1" d="M0.1 0.07c0,0 0,0 0,0.01 0,0 0.01,0.01 0.01,0.01 0,0 0.05,0.04 0.05,0.05 0.03,0.03 0.04,0.06 0.04,0.09 0,0.03 -0.01,0.05 -0.02,0.08 -0.02,0.04 -0.06,0.09 -0.13,0.15l0.01 -0.01c0.01,0 0.01,-0.01 0.04,-0.02 0.04,-0.02 0.1,-0.05 0.16,-0.07 0.1,-0.04 0.25,-0.08 0.34,-0.09l0.01 0 0 0c-0.01,-0.02 -0.02,-0.02 -0.02,-0.03 -0.02,-0.03 -0.05,-0.05 -0.08,-0.06 -0.03,-0.02 -0.09,-0.04 -0.15,-0.05 -0.01,-0.01 -0.04,-0.01 -0.06,-0.01 -0.05,-0.01 -0.08,-0.02 -0.11,-0.02 -0.01,0 -0.03,-0.01 -0.04,-0.01 -0.01,0 -0.02,0 -0.03,-0.01 -0.01,0 -0.02,0 -0.02,-0.01l0 0zm0.03 0.02c0,0 0,0.01 0,0.01 0.01,0 0.01,0 0.02,0 0,0 0.01,0 0.01,0 0.01,0.01 0.01,0.01 0.01,0.01 0,0 0.01,0.03 0.02,0.04 0,0.01 0,0.01 0,0.01 0,0 0,0 -0.01,0 -0.01,-0.02 -0.03,-0.04 -0.05,-0.06 0,0 0,-0.01 0,-0.01l0 0 0 0zm0.05 0.02c0,0 0,0 0,0 0.02,0 0.05,0.01 0.07,0.01 0,0 0.01,0 0.01,0 0,0 -0.01,0 -0.01,0 0,0.01 -0.01,0.01 -0.02,0.02 -0.01,0 -0.02,0.01 -0.03,0.02l0 0.01c0,0 0,-0.01 0,-0.01 -0.01,-0.01 -0.01,-0.03 -0.02,-0.05 0,0 0,0 0,0 0,0 0,0 0,0l0 0 0 0zm0.08 0.01c0.01,0 0.01,0.01 0.01,0.02 0,0.01 0,0.03 0,0.04 0,0.01 0,0.01 0,0.01l0 0 0 0c-0.01,0 -0.03,-0.01 -0.05,-0.01 0,-0.01 -0.01,-0.01 -0.01,-0.01 0,0 0.01,-0.01 0.02,-0.02 0.01,0 0.03,-0.03 0.03,-0.03l0 0zm0.01 0.01c0,-0.01 0.04,0 0.06,0.01 0.02,0 0.04,0 0.04,0 0,0 0,0 -0.01,0.01 -0.03,0.01 -0.05,0.02 -0.07,0.03 0,0.01 -0.01,0.01 -0.01,0.01 0,0 0,0 0,-0.01 0,-0.02 0,-0.03 -0.01,-0.05 0,0 0,0 0,0l0 0 0 0zm0.11 0.02c0,0 0,0.01 0,0.01 -0.01,0.01 -0.02,0.04 -0.03,0.06 0,0 0,0 0,0 0,0 -0.01,0 -0.01,0 -0.01,-0.01 -0.02,-0.01 -0.04,-0.02 0,0 -0.01,0 -0.01,0 0,0 0.04,-0.02 0.05,-0.03 0.02,-0.01 0.04,-0.02 0.04,-0.02l0 0 0 0zm0.01 0c0,0 0.01,0 0.02,0.01 0.03,0 0.06,0.01 0.07,0.02l0.01 0 -0.01 0.01c-0.04,0.01 -0.08,0.02 -0.11,0.03 0,0 -0.01,0 -0.01,0 0,0 0,0 0.01,0 0.01,-0.02 0.01,-0.05 0.01,-0.07 0.01,0 0.01,0 0.01,0l0 0 0 0zm-0.19 0.04c0,0 0.02,0 0.03,0.01 0.01,0 0.03,0.01 0.03,0.01 0,0 0,0 0,0 -0.02,0.01 -0.03,0.02 -0.05,0.04 0,0 0,0.01 0,0.01 0,0 0,0 0,0 0,-0.02 0,-0.04 -0.01,-0.06 0,-0.01 0,-0.01 0,-0.01l0 0 0 0zm0.3 0c0,0 -0.01,0.01 -0.01,0.02 -0.01,0.01 -0.02,0.02 -0.04,0.04 -0.01,0.01 -0.02,0.03 -0.02,0.04 -0.01,0 -0.01,0 -0.01,0 0,0 0,0 -0.01,0 -0.01,-0.02 -0.02,-0.03 -0.04,-0.04 0,-0.01 0,-0.01 0,-0.01 0,0 -0.01,0 -0.01,0 0,0 0.02,-0.01 0.03,-0.02 0.03,0 0.06,-0.02 0.08,-0.02 0.01,-0.01 0.03,-0.01 0.03,-0.01l0 0 0 0zm0.01 0c0,0 0,0 0,0.01 0.03,0.01 0.05,0.03 0.07,0.05 0,0 0.02,0.01 0.02,0.01 0,0 -0.01,0 -0.01,0.01 -0.05,0 -0.1,0.01 -0.15,0.02 -0.01,0 -0.01,0 -0.01,0 0,0 0,0 0.01,-0.01 0.03,-0.03 0.04,-0.05 0.06,-0.08 0,0 0,-0.01 0.01,-0.01 -0.01,0 -0.01,0 0,0l0 0zm-0.23 0.02c0,0.01 0.02,0.01 0.03,0.02 0,0 0.02,0.01 0.02,0.01 0,0 -0.01,0 -0.01,0 -0.02,0.01 -0.04,0.02 -0.05,0.03 -0.01,0.01 -0.01,0.01 -0.01,0.01 0,0 0,0 0,-0.01 0.01,-0.01 0.02,-0.03 0.02,-0.05 0,0 0,-0.01 0,-0.01l0 0zm-0.01 0.01c0,0 0,0.01 -0.01,0.02 0,0.01 -0.01,0.03 -0.01,0.04 -0.01,0 -0.01,0 -0.01,0.01l0 0 -0.01 0c0,-0.01 -0.01,-0.01 -0.02,-0.02 0,0 0,0 0,0 0,0 0.02,-0.02 0.03,-0.03 0.01,-0.01 0.03,-0.02 0.03,-0.02l0 0 0 0zm0.08 0.03l0 0c0.01,0.01 0.03,0.02 0.04,0.03 0,0 0.01,0.01 0.02,0.02l0 0 -0.01 0c-0.05,0.01 -0.08,0.02 -0.12,0.04 -0.01,0 -0.01,0 -0.01,0 0,0 0,0 0.01,-0.01 0.02,-0.02 0.05,-0.05 0.06,-0.07l0.01 -0.01zm-0.02 0.01c0,0 -0.02,0.01 -0.02,0.03 -0.01,0.01 -0.03,0.03 -0.04,0.05 -0.01,0 -0.01,0.01 -0.01,0.01 0,0 0,-0.01 0,-0.01 0,-0.01 -0.01,-0.02 -0.01,-0.03 0,-0.01 -0.01,-0.01 0,-0.01 0,0 0.03,-0.02 0.05,-0.03 0.01,-0.01 0.03,-0.01 0.03,-0.01l0 0 0 0zm-0.13 0.03c0,0 0,0 0.01,0 0,0 0.01,0.01 0.01,0.01 0,0 0,0 0,0.01 -0.01,0 -0.03,0.01 -0.04,0.02 0,0.01 0,0.01 0,0.01 0,-0.01 0.01,-0.02 0.01,-0.03 0,0 0.01,-0.01 0.01,-0.02 0,0 0,0 0,0l0 0zm0.03 0.02c0,0 0,0 0.01,0.01 0,0.01 0.01,0.02 0.01,0.03l0 0 -0.01 0c-0.03,0.01 -0.05,0.02 -0.07,0.03 0,0 -0.01,0.01 -0.01,0.01 -0.01,0 -0.01,0 -0.01,0 0,0 0,0 0,0 0.03,-0.02 0.06,-0.05 0.08,-0.07 0,0 0,-0.01 0,-0.01l0 0zm-0.01 0.01c0,0 -0.01,0.01 -0.02,0.02 -0.02,0.02 -0.04,0.03 -0.06,0.05 -0.01,0 -0.01,0 -0.01,0 0,0 0,0 0.01,-0.01 0.01,-0.01 0.01,-0.01 0.02,-0.02 0,0 0,-0.01 0.01,-0.01 0.01,-0.01 0.05,-0.03 0.05,-0.03z"/>
 </g>
</svg>
