<?xml version="1.0" encoding="UTF-8"?>
<!DOCTYPE svg PUBLIC "-//W3C//DTD SVG 1.1//EN" "http://www.w3.org/Graphics/SVG/1.1/DTD/svg11.dtd">
<!-- Creator: CorelDRAW -->
<svg xmlns="http://www.w3.org/2000/svg" xml:space="preserve" width="32px" height="32px" version="1.1" style="shape-rendering:geometricPrecision; text-rendering:geometricPrecision; image-rendering:optimizeQuality; fill-rule:evenodd; clip-rule:evenodd"
viewBox="0 0 27.77 27.77"
 xmlns:xlink="http://www.w3.org/1999/xlink"
 xmlns:xodm="http://www.corel.com/coreldraw/odm/2003">
 <defs>
  <style type="text/css">
   <![CDATA[
    .fil0 {fill:#654FF0;fill-rule:nonzero}
   ]]>
  </style>
 </defs>
 <g id="Camada_x0020_1">
  <metadata id="CorelCorpID_0Corel-Layer"/>
  <path class="fil0" d="M17.06 0l10.71 0 0 27.77 -27.77 0 0 -27.77 10.71 0c0,0.05 -0.01,0.1 -0.01,0.15 0,1.76 1.43,3.18 3.19,3.18 1.75,0 3.18,-1.42 3.18,-3.18 0,-0.05 0,-0.1 -0.01,-0.15zm6.33 24.8l1.91 0 -2.89 -9.83 -2.9 0 -2.39 9.83 1.85 0 0.49 -2.19 3.3 0 0.63 2.19zm-10.13 0l1.83 0 2.34 -9.83 -1.8 0 -1.44 6.77 -0.02 0 -1.37 -6.77 -1.72 0 -1.52 6.69 -0.02 0 -1.26 -6.69 -1.84 0 2.12 9.83 1.86 0 1.46 -6.69 0.03 0 1.35 6.69zm7.35 -7.41l0.78 0 0.92 3.61 -2.5 0 0.8 -3.61z"/>
 </g>
</svg>
